<svg width="205" height="56" viewBox="0 0 205 56" fill="none" xmlns="http://www.w3.org/2000/svg">
<rect x="0.662983" y="0.662983" width="202.873" height="54.3646" rx="8.20062" stroke="#333333" stroke-width="1.32597"/>
<path d="M75.7523 9.70081C76.7247 9.70081 77.5777 9.89086 78.3114 10.271C79.054 10.6511 79.6242 11.1947 80.0219 11.9019C80.4286 12.6003 80.6319 13.4135 80.6319 14.3417C80.6319 15.2699 80.4286 16.0831 80.0219 16.7815C79.6242 17.471 79.054 18.0058 78.3114 18.3859C77.5777 18.766 76.7247 18.9561 75.7523 18.9561H72.517V9.70081H75.7523ZM75.686 17.3782C76.6584 17.3782 77.4098 17.113 77.9402 16.5826C78.4706 16.0522 78.7358 15.3052 78.7358 14.3417C78.7358 13.3782 78.4706 12.6268 77.9402 12.0875C77.4098 11.5395 76.6584 11.2654 75.686 11.2654H74.3733V17.3782H75.686ZM85.2833 19.0754C84.5762 19.0754 83.9397 18.9207 83.3739 18.6113C82.8082 18.2931 82.3618 17.8467 82.0347 17.2721C81.7165 16.6975 81.5574 16.0345 81.5574 15.2831C81.5574 14.5317 81.7209 13.8688 82.048 13.2942C82.3839 12.7196 82.8391 12.2776 83.4137 11.9682C83.9883 11.65 84.6292 11.4909 85.3364 11.4909C86.0436 11.4909 86.6844 11.65 87.259 11.9682C87.8336 12.2776 88.2844 12.7196 88.6115 13.2942C88.9474 13.8688 89.1154 14.5317 89.1154 15.2831C89.1154 16.0345 88.943 16.6975 88.5983 17.2721C88.2623 17.8467 87.8027 18.2931 87.2192 18.6113C86.6447 18.9207 85.9994 19.0754 85.2833 19.0754ZM85.2833 17.4577C85.6192 17.4577 85.9331 17.3782 86.2248 17.219C86.5253 17.0511 86.764 16.8036 86.9408 16.4765C87.1176 16.1494 87.206 15.7516 87.206 15.2831C87.206 14.5848 87.0204 14.05 86.6491 13.6787C86.2867 13.2986 85.8402 13.1085 85.3099 13.1085C84.7795 13.1085 84.3331 13.2986 83.9706 13.6787C83.617 14.05 83.4402 14.5848 83.4402 15.2831C83.4402 15.9815 83.6126 16.5207 83.9574 16.9008C84.311 17.2721 84.7529 17.4577 85.2833 17.4577ZM100.661 11.6102L98.5124 18.9561H96.5102L95.171 13.8246L93.8318 18.9561H91.8163L89.655 11.6102H91.5379L92.8373 17.2058L94.2428 11.6102H96.2053L97.5843 17.1925L98.8837 11.6102H100.661ZM105.736 11.5041C106.611 11.5041 107.318 11.7826 107.857 12.3395C108.396 12.8875 108.666 13.6566 108.666 14.6467V18.9561H106.81V14.8986C106.81 14.3152 106.664 13.8688 106.372 13.5594C106.08 13.2411 105.683 13.082 105.179 13.082C104.666 13.082 104.259 13.2411 103.959 13.5594C103.667 13.8688 103.521 14.3152 103.521 14.8986V18.9561H101.665V11.6102H103.521V12.5251C103.769 12.2069 104.083 11.9594 104.463 11.7826C104.852 11.5969 105.276 11.5041 105.736 11.5041ZM112.288 9.1439V18.9561H110.431V9.1439H112.288ZM117.384 19.0754C116.676 19.0754 116.04 18.9207 115.474 18.6113C114.909 18.2931 114.462 17.8467 114.135 17.2721C113.817 16.6975 113.658 16.0345 113.658 15.2831C113.658 14.5317 113.821 13.8688 114.148 13.2942C114.484 12.7196 114.939 12.2776 115.514 11.9682C116.089 11.65 116.73 11.4909 117.437 11.4909C118.144 11.4909 118.785 11.65 119.359 11.9682C119.934 12.2776 120.385 12.7196 120.712 13.2942C121.048 13.8688 121.216 14.5317 121.216 15.2831C121.216 16.0345 121.043 16.6975 120.699 17.2721C120.363 17.8467 119.903 18.2931 119.32 18.6113C118.745 18.9207 118.1 19.0754 117.384 19.0754ZM117.384 17.4577C117.72 17.4577 118.033 17.3782 118.325 17.219C118.626 17.0511 118.864 16.8036 119.041 16.4765C119.218 16.1494 119.306 15.7516 119.306 15.2831C119.306 14.5848 119.121 14.05 118.749 13.6787C118.387 13.2986 117.941 13.1085 117.41 13.1085C116.88 13.1085 116.433 13.2986 116.071 13.6787C115.717 14.05 115.541 14.5848 115.541 15.2831C115.541 15.9815 115.713 16.5207 116.058 16.9008C116.411 17.2721 116.853 17.4577 117.384 17.4577ZM122.1 15.2566C122.1 14.5141 122.246 13.8555 122.538 13.2809C122.838 12.7063 123.24 12.2643 123.744 11.9549C124.257 11.6456 124.827 11.4909 125.455 11.4909C126.003 11.4909 126.48 11.6014 126.887 11.8224C127.302 12.0433 127.634 12.3218 127.881 12.6577V11.6102H129.751V18.9561H127.881V17.882C127.643 18.2268 127.311 18.5141 126.887 18.7439C126.471 18.9649 125.99 19.0754 125.441 19.0754C124.823 19.0754 124.257 18.9163 123.744 18.598C123.24 18.2798 122.838 17.8334 122.538 17.2588C122.246 16.6754 122.1 16.008 122.1 15.2566ZM127.881 15.2831C127.881 14.8323 127.793 14.4478 127.616 14.1295C127.439 13.8025 127.201 13.5549 126.9 13.387C126.599 13.2102 126.277 13.1218 125.932 13.1218C125.587 13.1218 125.269 13.2058 124.977 13.3737C124.686 13.5417 124.447 13.7892 124.261 14.1163C124.085 14.4345 123.996 14.8146 123.996 15.2566C123.996 15.6986 124.085 16.0875 124.261 16.4235C124.447 16.7505 124.686 17.0025 124.977 17.1793C125.278 17.3561 125.596 17.4445 125.932 17.4445C126.277 17.4445 126.599 17.3605 126.9 17.1925C127.201 17.0157 127.439 16.7682 127.616 16.45C127.793 16.1229 127.881 15.734 127.881 15.2831ZM131.087 15.2566C131.087 14.5141 131.232 13.8555 131.524 13.2809C131.825 12.7063 132.231 12.2643 132.744 11.9549C133.257 11.6456 133.827 11.4909 134.455 11.4909C134.932 11.4909 135.387 11.5969 135.82 11.8091C136.253 12.0124 136.598 12.2864 136.855 12.6312V9.1439H138.737V18.9561H136.855V17.8688C136.625 18.2312 136.302 18.5229 135.887 18.7439C135.471 18.9649 134.989 19.0754 134.441 19.0754C133.822 19.0754 133.257 18.9163 132.744 18.598C132.231 18.2798 131.825 17.8334 131.524 17.2588C131.232 16.6754 131.087 16.008 131.087 15.2566ZM136.868 15.2831C136.868 14.8323 136.779 14.4478 136.603 14.1295C136.426 13.8025 136.187 13.5549 135.887 13.387C135.586 13.2102 135.263 13.1218 134.919 13.1218C134.574 13.1218 134.256 13.2058 133.964 13.3737C133.672 13.5417 133.434 13.7892 133.248 14.1163C133.071 14.4345 132.983 14.8146 132.983 15.2566C132.983 15.6986 133.071 16.0875 133.248 16.4235C133.434 16.7505 133.672 17.0025 133.964 17.1793C134.264 17.3561 134.583 17.4445 134.919 17.4445C135.263 17.4445 135.586 17.3605 135.887 17.1925C136.187 17.0157 136.426 16.7682 136.603 16.45C136.779 16.1229 136.868 15.734 136.868 15.2831ZM146.972 19.0754C146.265 19.0754 145.628 18.9207 145.062 18.6113C144.497 18.2931 144.05 17.8467 143.723 17.2721C143.405 16.6975 143.246 16.0345 143.246 15.2831C143.246 14.5317 143.409 13.8688 143.737 13.2942C144.072 12.7196 144.528 12.2776 145.102 11.9682C145.677 11.65 146.318 11.4909 147.025 11.4909C147.732 11.4909 148.373 11.65 148.948 11.9682C149.522 12.2776 149.973 12.7196 150.3 13.2942C150.636 13.8688 150.804 14.5317 150.804 15.2831C150.804 16.0345 150.632 16.6975 150.287 17.2721C149.951 17.8467 149.491 18.2931 148.908 18.6113C148.333 18.9207 147.688 19.0754 146.972 19.0754ZM146.972 17.4577C147.308 17.4577 147.622 17.3782 147.913 17.219C148.214 17.0511 148.453 16.8036 148.629 16.4765C148.806 16.1494 148.895 15.7516 148.895 15.2831C148.895 14.5848 148.709 14.05 148.338 13.6787C147.975 13.2986 147.529 13.1085 146.998 13.1085C146.468 13.1085 146.022 13.2986 145.659 13.6787C145.306 14.05 145.129 14.5848 145.129 15.2831C145.129 15.9815 145.301 16.5207 145.646 16.9008C145.999 17.2721 146.441 17.4577 146.972 17.4577ZM156.236 11.5041C157.111 11.5041 157.819 11.7826 158.358 12.3395C158.897 12.8875 159.167 13.6566 159.167 14.6467V18.9561H157.31V14.8986C157.31 14.3152 157.165 13.8688 156.873 13.5594C156.581 13.2411 156.183 13.082 155.679 13.082C155.167 13.082 154.76 13.2411 154.46 13.5594C154.168 13.8688 154.022 14.3152 154.022 14.8986V18.9561H152.166V11.6102H154.022V12.5251C154.269 12.2069 154.583 11.9594 154.963 11.7826C155.352 11.5969 155.777 11.5041 156.236 11.5041ZM166.253 13.1351V16.6887C166.253 16.9362 166.31 17.1174 166.425 17.2323C166.549 17.3384 166.752 17.3914 167.035 17.3914H167.897V18.9561H166.73C165.166 18.9561 164.383 18.1958 164.383 16.6754V13.1351H163.508V11.6102H164.383V9.79362H166.253V11.6102H167.897V13.1351H166.253ZM173.369 11.5041C173.926 11.5041 174.421 11.6279 174.854 11.8754C175.288 12.1141 175.623 12.4721 175.862 12.9494C176.11 13.4179 176.233 13.9837 176.233 14.6467V18.9561H174.377V14.8986C174.377 14.3152 174.231 13.8688 173.939 13.5594C173.648 13.2411 173.25 13.082 172.746 13.082C172.233 13.082 171.827 13.2411 171.526 13.5594C171.234 13.8688 171.089 14.3152 171.089 14.8986V18.9561H169.232V9.1439H171.089V12.5251C171.327 12.2069 171.646 11.9594 172.043 11.7826C172.441 11.5969 172.883 11.5041 173.369 11.5041ZM184.827 15.124C184.827 15.3892 184.81 15.6279 184.774 15.84H179.404C179.448 16.3704 179.634 16.7859 179.961 17.0864C180.288 17.387 180.69 17.5373 181.168 17.5373C181.857 17.5373 182.348 17.2411 182.64 16.6489H184.642C184.43 17.3561 184.023 17.9395 183.422 18.3991C182.821 18.85 182.083 19.0754 181.208 19.0754C180.5 19.0754 179.864 18.9207 179.298 18.6113C178.741 18.2931 178.304 17.8467 177.985 17.2721C177.676 16.6975 177.521 16.0345 177.521 15.2831C177.521 14.5229 177.676 13.8555 177.985 13.2809C178.295 12.7063 178.728 12.2643 179.285 11.9549C179.842 11.6456 180.483 11.4909 181.208 11.4909C181.906 11.4909 182.529 11.6411 183.077 11.9417C183.634 12.2422 184.063 12.671 184.363 13.2279C184.673 13.7759 184.827 14.408 184.827 15.124ZM182.905 14.5936C182.896 14.1163 182.724 13.7362 182.388 13.4533C182.052 13.1616 181.641 13.0157 181.154 13.0157C180.695 13.0157 180.306 13.1572 179.988 13.44C179.678 13.7141 179.488 14.0986 179.417 14.5936H182.905Z" fill="#333333"/>
<path d="M77.5091 35.5705H71.9798L71.0649 38.2158H68.1412L73.1334 24.3131H76.3754L81.3677 38.2158H78.424L77.5091 35.5705ZM76.7533 33.3429L74.7445 27.5352L72.7356 33.3429H76.7533ZM86.0182 28.7882C86.3763 28.2843 86.8669 27.8666 87.4901 27.5352C88.1265 27.1904 88.8492 27.018 89.658 27.018C90.5995 27.018 91.4481 27.2501 92.2039 27.7142C92.9729 28.1783 93.5763 28.8412 94.0138 29.7031C94.4646 30.5517 94.6901 31.5396 94.6901 32.6666C94.6901 33.7937 94.4646 34.7948 94.0138 35.67C93.5763 36.5318 92.9729 37.2015 92.2039 37.6788C91.4481 38.1562 90.5995 38.3948 89.658 38.3948C88.8492 38.3948 88.1332 38.2291 87.51 37.8976C86.9 37.5661 86.4028 37.1484 86.0182 36.6445V43.4666H83.2337V27.197H86.0182V28.7882ZM91.8459 32.6666C91.8459 32.0037 91.7066 31.4335 91.4282 30.9562C91.163 30.4655 90.805 30.0943 90.3542 29.8423C89.9166 29.5904 89.4392 29.4644 88.9221 29.4644C88.4182 29.4644 87.9409 29.597 87.4901 29.8622C87.0525 30.1142 86.6945 30.4854 86.416 30.976C86.1508 31.4666 86.0182 32.0434 86.0182 32.7064C86.0182 33.3694 86.1508 33.9462 86.416 34.4368C86.6945 34.9274 87.0525 35.3053 87.4901 35.5705C87.9409 35.8224 88.4182 35.9484 88.9221 35.9484C89.4392 35.9484 89.9166 35.8158 90.3542 35.5506C90.805 35.2854 91.163 34.9075 91.4282 34.4169C91.7066 33.9263 91.8459 33.3429 91.8459 32.6666ZM99.498 28.7882C99.8561 28.2843 100.347 27.8666 100.97 27.5352C101.606 27.1904 102.329 27.018 103.138 27.018C104.079 27.018 104.928 27.2501 105.684 27.7142C106.453 28.1783 107.056 28.8412 107.494 29.7031C107.944 30.5517 108.17 31.5396 108.17 32.6666C108.17 33.7937 107.944 34.7948 107.494 35.67C107.056 36.5318 106.453 37.2015 105.684 37.6788C104.928 38.1562 104.079 38.3948 103.138 38.3948C102.329 38.3948 101.613 38.2291 100.99 37.8976C100.38 37.5661 99.8826 37.1484 99.498 36.6445V43.4666H96.7135V27.197H99.498V28.7882ZM105.326 32.6666C105.326 32.0037 105.186 31.4335 104.908 30.9562C104.643 30.4655 104.285 30.0943 103.834 29.8423C103.396 29.5904 102.919 29.4644 102.402 29.4644C101.898 29.4644 101.421 29.597 100.97 29.8622C100.532 30.1142 100.174 30.4854 99.8958 30.976C99.6306 31.4666 99.498 32.0434 99.498 32.7064C99.498 33.3694 99.6306 33.9462 99.8958 34.4368C100.174 34.9274 100.532 35.3053 100.97 35.5705C101.421 35.8224 101.898 35.9484 102.402 35.9484C102.919 35.9484 103.396 35.8158 103.834 35.5506C104.285 35.2854 104.643 34.9075 104.908 34.4169C105.186 33.9263 105.326 33.3429 105.326 32.6666ZM119.726 38.355C118.758 38.355 117.883 38.1893 117.101 37.8578C116.332 37.5263 115.722 37.049 115.271 36.4258C114.82 35.8026 114.588 35.0666 114.575 34.218H117.558C117.598 34.7882 117.797 35.239 118.155 35.5705C118.526 35.902 119.03 36.0678 119.666 36.0678C120.316 36.0678 120.827 35.9153 121.198 35.6103C121.569 35.2921 121.755 34.881 121.755 34.3771C121.755 33.9661 121.629 33.628 121.377 33.3628C121.125 33.0976 120.807 32.8921 120.422 32.7462C120.051 32.5871 119.534 32.4147 118.871 32.2291C117.969 31.9639 117.233 31.7053 116.663 31.4534C116.106 31.1882 115.622 30.797 115.211 30.2799C114.813 29.7495 114.614 29.0468 114.614 28.1716C114.614 27.3495 114.82 26.6335 115.231 26.0236C115.642 25.4136 116.219 24.9495 116.961 24.6313C117.704 24.2998 118.552 24.1341 119.507 24.1341C120.939 24.1341 122.099 24.4854 122.988 25.1882C123.89 25.8777 124.387 26.8457 124.48 28.0921H121.417C121.39 27.6147 121.185 27.2236 120.8 26.9186C120.429 26.6004 119.932 26.4412 119.308 26.4412C118.765 26.4412 118.327 26.5805 117.996 26.8589C117.677 27.1374 117.518 27.5418 117.518 28.0722C117.518 28.4434 117.638 28.755 117.876 29.007C118.128 29.2457 118.433 29.4445 118.791 29.6037C119.162 29.7495 119.68 29.9219 120.343 30.1208C121.244 30.386 121.98 30.6512 122.55 30.9164C123.12 31.1816 123.611 31.5794 124.022 32.1097C124.433 32.6401 124.639 33.3363 124.639 34.1981C124.639 34.9407 124.446 35.6302 124.062 36.2666C123.677 36.9031 123.114 37.4136 122.371 37.7981C121.629 38.1694 120.747 38.355 119.726 38.355ZM130.295 29.4843V34.8147C130.295 35.186 130.381 35.4578 130.553 35.6302C130.739 35.7893 131.044 35.8689 131.468 35.8689H132.761V38.2158H131.011C128.664 38.2158 127.49 37.0755 127.49 34.7948V29.4843H126.178V27.197H127.49V24.4722H130.295V27.197H132.761V29.4843H130.295ZM139.657 38.3948C138.596 38.3948 137.641 38.1628 136.793 37.6987C135.944 37.2213 135.274 36.5517 134.784 35.6899C134.306 34.828 134.068 33.8335 134.068 32.7064C134.068 31.5794 134.313 30.5849 134.804 29.723C135.307 28.8611 135.99 28.1981 136.852 27.7341C137.714 27.2567 138.675 27.018 139.736 27.018C140.797 27.018 141.758 27.2567 142.62 27.7341C143.482 28.1981 144.158 28.8611 144.649 29.723C145.153 30.5849 145.405 31.5794 145.405 32.7064C145.405 33.8335 145.146 34.828 144.629 35.6899C144.125 36.5517 143.436 37.2213 142.561 37.6987C141.699 38.1628 140.731 38.3948 139.657 38.3948ZM139.657 35.9683C140.161 35.9683 140.631 35.849 141.069 35.6103C141.52 35.3584 141.878 34.9871 142.143 34.4965C142.408 34.0059 142.541 33.4092 142.541 32.7064C142.541 31.6589 142.262 30.8567 141.705 30.2998C141.162 29.7296 140.492 29.4445 139.696 29.4445C138.901 29.4445 138.231 29.7296 137.688 30.2998C137.157 30.8567 136.892 31.6589 136.892 32.7064C136.892 33.7539 137.151 34.5628 137.668 35.1329C138.198 35.6899 138.861 35.9683 139.657 35.9683ZM150.232 28.9075C150.59 28.3241 151.054 27.8666 151.624 27.5352C152.208 27.2037 152.87 27.0379 153.613 27.0379V29.9617H152.877C152.002 29.9617 151.339 30.1672 150.888 30.5783C150.451 30.9893 150.232 31.7053 150.232 32.7263V38.2158H147.447V27.197H150.232V28.9075ZM165.732 32.4678C165.732 32.8655 165.705 33.2236 165.652 33.5418H157.597C157.663 34.3374 157.942 34.9606 158.432 35.4114C158.923 35.8622 159.526 36.0876 160.242 36.0876C161.276 36.0876 162.012 35.6434 162.45 34.755H165.453C165.135 35.8158 164.525 36.691 163.623 37.3805C162.722 38.0567 161.615 38.3948 160.302 38.3948C159.241 38.3948 158.286 38.1628 157.438 37.6987C156.602 37.2213 155.946 36.5517 155.469 35.6899C155.005 34.828 154.773 33.8335 154.773 32.7064C154.773 31.5661 155.005 30.565 155.469 29.7031C155.933 28.8412 156.582 28.1783 157.418 27.7142C158.253 27.2501 159.215 27.018 160.302 27.018C161.349 27.018 162.284 27.2434 163.106 27.6943C163.942 28.1451 164.585 28.7882 165.036 29.6236C165.5 30.4457 165.732 31.3937 165.732 32.4678ZM162.848 31.6722C162.834 30.9562 162.576 30.386 162.072 29.9617C161.568 29.5241 160.952 29.3053 160.222 29.3053C159.533 29.3053 158.949 29.5175 158.472 29.9418C158.008 30.3528 157.723 30.9296 157.617 31.6722H162.848Z" fill="#333333"/>
<path d="M47.1973 38.6848C45.5937 40.2283 43.8428 39.9846 42.1574 39.2534C40.3738 38.506 38.7375 38.4735 36.8558 39.2534C34.4995 40.2608 33.2559 39.9683 31.8486 38.6848C23.8634 30.5121 25.0416 18.0662 34.1068 17.6112C36.3158 17.725 37.8539 18.8136 39.1466 18.9111C41.0775 18.5211 42.9265 17.4 44.9882 17.5462C47.4591 17.7412 49.3245 18.7161 50.5517 20.4709C45.4464 23.5092 46.6573 30.1871 51.3371 32.0556C50.4044 34.4928 49.1936 36.9137 47.1809 38.701L47.1973 38.6848ZM38.983 17.5138C38.7375 13.8905 41.6993 10.9009 45.1028 10.6084C45.5773 14.8004 41.2738 17.92 38.983 17.5138Z" fill="#333333"/>
</svg>
