<svg width="64" height="63" viewBox="0 0 64 63" fill="none" xmlns="http://www.w3.org/2000/svg">
<path d="M25.0001 16.0781H37.5305C42.3039 16.0781 46.1824 19.9566 46.1824 24.7301V37.2604C46.1824 39.5551 45.2709 41.7557 43.6483 43.3783C42.0258 45.0008 39.8251 45.9124 37.5305 45.9124H25.0001C20.2266 45.9124 16.3481 42.0339 16.3481 37.2604V24.7301C16.3481 22.4354 17.2597 20.2348 18.8822 18.6122C20.5048 16.9897 22.7054 16.0781 25.0001 16.0781ZM24.7017 19.0616C23.2775 19.0616 21.9116 19.6273 20.9045 20.6344C19.8974 21.6415 19.3316 23.0075 19.3316 24.4317V37.5588C19.3316 40.5273 21.7332 42.929 24.7017 42.929H37.8288C39.2531 42.929 40.619 42.3632 41.6261 41.3561C42.6332 40.349 43.199 38.983 43.199 37.5588V24.4317C43.199 21.4632 40.7973 19.0616 37.8288 19.0616H24.7017ZM39.0968 21.2991C39.5913 21.2991 40.0656 21.4956 40.4153 21.8453C40.765 22.1949 40.9614 22.6692 40.9614 23.1638C40.9614 23.6583 40.765 24.1326 40.4153 24.4823C40.0656 24.8319 39.5913 25.0284 39.0968 25.0284C38.6022 25.0284 38.1279 24.8319 37.7783 24.4823C37.4286 24.1326 37.2321 23.6583 37.2321 23.1638C37.2321 22.6692 37.4286 22.1949 37.7783 21.8453C38.1279 21.4956 38.6022 21.2991 39.0968 21.2991ZM31.2653 23.5367C33.2434 23.5367 35.1405 24.3225 36.5393 25.7213C37.938 27.12 38.7238 29.0171 38.7238 30.9953C38.7238 32.9734 37.938 34.8705 36.5393 36.2693C35.1405 37.668 33.2434 38.4538 31.2653 38.4538C29.2871 38.4538 27.39 37.668 25.9913 36.2693C24.5925 34.8705 23.8067 32.9734 23.8067 30.9953C23.8067 29.0171 24.5925 27.12 25.9913 25.7213C27.39 24.3225 29.2871 23.5367 31.2653 23.5367ZM31.2653 26.5201C30.0784 26.5201 28.9401 26.9916 28.1009 27.8309C27.2616 28.6701 26.7901 29.8084 26.7901 30.9953C26.7901 32.1821 27.2616 33.3204 28.1009 34.1597C28.9401 34.9989 30.0784 35.4704 31.2653 35.4704C32.4522 35.4704 33.5904 34.9989 34.4297 34.1597C35.2689 33.3204 35.7404 32.1821 35.7404 30.9953C35.7404 29.8084 35.2689 28.6701 34.4297 27.8309C33.5904 26.9916 32.4522 26.5201 31.2653 26.5201Z" fill="#333333"/>
<rect x="0.662983" y="0.662983" width="62.3204" height="60.9945" rx="7.29282" stroke="#333333" stroke-width="1.32597"/>
</svg>
