<svg width="64" height="63" viewBox="0 0 64 63" fill="none" xmlns="http://www.w3.org/2000/svg">
<path d="M42.8131 17.4043C43.663 17.4043 44.478 17.7419 45.079 18.3428C45.6799 18.9438 46.0175 19.7589 46.0175 20.6087V43.0397C46.0175 43.8895 45.6799 44.7046 45.079 45.3055C44.478 45.9065 43.663 46.2441 42.8131 46.2441H20.3822C19.5323 46.2441 18.7172 45.9065 18.1163 45.3055C17.5153 44.7046 17.1777 43.8895 17.1777 43.0397V20.6087C17.1777 19.7589 17.5153 18.9438 18.1163 18.3428C18.7172 17.7419 19.5323 17.4043 20.3822 17.4043H42.8131ZM42.012 42.2386V33.7468C42.012 32.3616 41.4617 31.033 40.4821 30.0535C39.5026 29.0739 38.1741 28.5236 36.7888 28.5236C35.4269 28.5236 33.8407 29.3568 33.0717 30.6065V28.8281H28.6015V42.2386H33.0717V34.3397C33.0717 33.106 34.065 32.0966 35.2987 32.0966C35.8936 32.0966 36.4642 32.3329 36.8848 32.7535C37.3055 33.1742 37.5418 33.7447 37.5418 34.3397V42.2386H42.012ZM23.3943 26.3126C24.1082 26.3126 24.7928 26.029 25.2976 25.5242C25.8024 25.0194 26.086 24.3348 26.086 23.6209C26.086 22.1308 24.8844 20.9131 23.3943 20.9131C22.6762 20.9131 21.9874 21.1984 21.4797 21.7062C20.9719 22.214 20.6866 22.9027 20.6866 23.6209C20.6866 25.1109 21.9043 26.3126 23.3943 26.3126ZM25.6214 42.2386V28.8281H21.1833V42.2386H25.6214Z" fill="#333333"/>
<rect x="0.662983" y="0.662983" width="62.3204" height="60.9945" rx="7.29282" stroke="#333333" stroke-width="1.32597"/>
</svg>
