<svg width="205" height="56" viewBox="0 0 205 56" fill="none" xmlns="http://www.w3.org/2000/svg">
<rect x="0.662983" y="0.662983" width="202.873" height="54.3646" rx="8.20062" stroke="#333333" stroke-width="1.32597"/>
<path d="M72.3318 11.1592C72.1196 10.7702 71.8279 10.4741 71.4566 10.2708C71.0854 10.0675 70.6522 9.96579 70.1572 9.96579C69.6091 9.96579 69.1229 10.0896 68.6986 10.3371C68.2743 10.5846 67.9428 10.9382 67.7041 11.3978C67.4655 11.8575 67.3461 12.3879 67.3461 12.989C67.3461 13.6078 67.4655 14.147 67.7041 14.6067C67.9517 15.0663 68.292 15.4199 68.7251 15.6675C69.1583 15.915 69.6622 16.0387 70.2367 16.0387C70.9439 16.0387 71.5229 15.8531 71.9738 15.4818C72.4246 15.1017 72.7207 14.5757 72.8622 13.9039H69.6798V12.4851H74.692V14.1028C74.5682 14.7481 74.303 15.3448 73.8964 15.8929C73.4898 16.4409 72.9638 16.8829 72.3185 17.2188C71.682 17.5459 70.966 17.7094 70.1704 17.7094C69.2776 17.7094 68.4688 17.5105 67.7439 17.1128C67.0279 16.7061 66.4622 16.1448 66.0467 15.4288C65.6401 14.7128 65.4367 13.8995 65.4367 12.989C65.4367 12.0785 65.6401 11.2652 66.0467 10.5492C66.4622 9.82436 67.0279 9.26303 67.7439 8.86524C68.4688 8.45861 69.2732 8.2553 70.1572 8.2553C71.2003 8.2553 72.1064 8.51165 72.8754 9.02436C73.6445 9.52823 74.1749 10.2398 74.4666 11.1592H72.3318ZM82.8941 13.7978C82.8941 14.063 82.8765 14.3017 82.8411 14.5139H77.4709C77.5151 15.0442 77.7008 15.4597 78.0278 15.7603C78.3549 16.0608 78.7571 16.2111 79.2345 16.2111C79.924 16.2111 80.4146 15.915 80.7063 15.3227H82.7085C82.4963 16.0299 82.0897 16.6133 81.4886 17.073C80.8875 17.5238 80.1494 17.7492 79.2742 17.7492C78.5671 17.7492 77.9306 17.5945 77.3649 17.2851C76.8079 16.9669 76.3704 16.5205 76.0521 15.9459C75.7428 15.3713 75.5881 14.7083 75.5881 13.957C75.5881 13.1967 75.7428 12.5293 76.0521 11.9547C76.3615 11.3802 76.7947 10.9382 77.3516 10.6288C77.9085 10.3194 78.5494 10.1647 79.2742 10.1647C79.9726 10.1647 80.5958 10.315 81.1439 10.6155C81.7008 10.9161 82.1295 11.3448 82.43 11.9017C82.7394 12.4498 82.8941 13.0818 82.8941 13.7978ZM80.9715 13.2675C80.9626 12.7901 80.7903 12.41 80.4544 12.1271C80.1184 11.8354 79.7074 11.6896 79.2212 11.6896C78.7615 11.6896 78.3726 11.831 78.0544 12.1139C77.745 12.3879 77.5549 12.7724 77.4842 13.2675H80.9715ZM86.4104 11.8089V15.3625C86.4104 15.61 86.4679 15.7912 86.5828 15.9061C86.7066 16.0122 86.9099 16.0652 87.1928 16.0652H88.0546V17.6299H86.8878C85.3231 17.6299 84.5408 16.8697 84.5408 15.3492V11.8089H83.6657V10.284H84.5408V8.46745H86.4104V10.284H88.0546V11.8089H86.4104ZM93.4908 9.40889C93.1637 9.40889 92.8897 9.30723 92.6687 9.10392C92.4565 8.89176 92.3505 8.63099 92.3505 8.3216C92.3505 8.0122 92.4565 7.75585 92.6687 7.55253C92.8897 7.34038 93.1637 7.2343 93.4908 7.2343C93.8179 7.2343 94.0875 7.34038 94.2996 7.55253C94.5206 7.75585 94.6311 8.0122 94.6311 8.3216C94.6311 8.63099 94.5206 8.89176 94.2996 9.10392C94.0875 9.30723 93.8179 9.40889 93.4908 9.40889ZM94.4057 10.284V17.6299H92.5493V10.284H94.4057ZM98.4011 11.8089V15.3625C98.4011 15.61 98.4586 15.7912 98.5735 15.9061C98.6972 16.0122 98.9006 16.0652 99.1834 16.0652H100.045V17.6299H98.8785C97.3138 17.6299 96.5315 16.8697 96.5315 15.3492V11.8089H95.6564V10.284H96.5315V8.46745H98.4011V10.284H100.045V11.8089H98.4011ZM107.802 17.7492C107.095 17.7492 106.458 17.5945 105.893 17.2851C105.327 16.9669 104.88 16.5205 104.553 15.9459C104.235 15.3713 104.076 14.7083 104.076 13.957C104.076 13.2056 104.239 12.5426 104.567 11.968C104.902 11.3934 105.358 10.9514 105.932 10.642C106.507 10.3238 107.148 10.1647 107.855 10.1647C108.562 10.1647 109.203 10.3238 109.778 10.642C110.352 10.9514 110.803 11.3934 111.13 11.968C111.466 12.5426 111.634 13.2056 111.634 13.957C111.634 14.7083 111.462 15.3713 111.117 15.9459C110.781 16.5205 110.321 16.9669 109.738 17.2851C109.163 17.5945 108.518 17.7492 107.802 17.7492ZM107.802 16.1315C108.138 16.1315 108.452 16.052 108.743 15.8929C109.044 15.7249 109.283 15.4774 109.459 15.1503C109.636 14.8233 109.725 14.4255 109.725 13.957C109.725 13.2586 109.539 12.7238 109.168 12.3525C108.805 11.9724 108.359 11.7824 107.828 11.7824C107.298 11.7824 106.852 11.9724 106.489 12.3525C106.136 12.7238 105.959 13.2586 105.959 13.957C105.959 14.6553 106.131 15.1945 106.476 15.5746C106.83 15.9459 107.272 16.1315 107.802 16.1315ZM117.066 10.1779C117.942 10.1779 118.649 10.4564 119.188 11.0133C119.727 11.5614 119.997 12.3304 119.997 13.3205V17.6299H118.14V13.5724C118.14 12.989 117.995 12.5426 117.703 12.2332C117.411 11.915 117.013 11.7558 116.509 11.7558C115.997 11.7558 115.59 11.915 115.29 12.2332C114.998 12.5426 114.852 12.989 114.852 13.5724V17.6299H112.996V10.284H114.852V11.1989C115.1 10.8807 115.413 10.6332 115.793 10.4564C116.182 10.2708 116.607 10.1779 117.066 10.1779Z" fill="#333333"/>
<path d="M76.0113 31.1621C75.6931 30.5787 75.2555 30.1345 74.6986 29.8295C74.1417 29.5245 73.492 29.372 72.7495 29.372C71.9274 29.372 71.1981 29.5577 70.5616 29.9289C69.9251 30.3002 69.4279 30.8306 69.0699 31.5201C68.7119 32.2096 68.5329 33.0052 68.5329 33.9068C68.5329 34.835 68.7119 35.6439 69.0699 36.3334C69.4412 37.0229 69.9517 37.5532 70.6014 37.9245C71.2511 38.2958 72.0069 38.4814 72.8688 38.4814C73.9296 38.4814 74.7981 38.203 75.4743 37.6461C76.1506 37.0759 76.5948 36.2869 76.8069 35.2792H72.0334V33.151H79.5517V35.5776C79.366 36.5455 78.9682 37.4405 78.3583 38.2626C77.7483 39.0847 76.9594 39.7477 75.9914 40.2516C75.0367 40.7422 73.9627 40.9875 72.7693 40.9875C71.4301 40.9875 70.2169 40.6892 69.1296 40.0925C68.0555 39.4825 67.2069 38.6405 66.5837 37.5665C65.9738 36.4925 65.6688 35.2726 65.6688 33.9068C65.6688 32.5411 65.9738 31.3212 66.5837 30.2472C67.2069 29.1599 68.0555 28.3179 69.1296 27.7212C70.2169 27.1113 71.4235 26.8063 72.7495 26.8063C74.3141 26.8063 75.6732 27.1908 76.8268 27.9599C77.9804 28.7157 78.776 29.7831 79.2135 31.1621H76.0113ZM86.5046 41.0472C85.4438 41.0472 84.4891 40.8151 83.6405 40.351C82.7919 39.8737 82.1223 39.2041 81.6317 38.3422C81.1543 37.4803 80.9156 36.4858 80.9156 35.3588C80.9156 34.2317 81.161 33.2372 81.6516 32.3753C82.1554 31.5135 82.8383 30.8505 83.7002 30.3864C84.5621 29.909 85.5234 29.6704 86.5842 29.6704C87.6449 29.6704 88.6063 29.909 89.4681 30.3864C90.33 30.8505 91.0063 31.5135 91.4969 32.3753C92.0007 33.2372 92.2527 34.2317 92.2527 35.3588C92.2527 36.4858 91.9941 37.4803 91.477 38.3422C90.9731 39.2041 90.2836 39.8737 89.4085 40.351C88.5466 40.8151 87.5786 41.0472 86.5046 41.0472ZM86.5046 38.6207C87.0085 38.6207 87.4792 38.5013 87.9168 38.2626C88.3676 38.0107 88.7256 37.6394 88.9908 37.1488C89.256 36.6582 89.3886 36.0615 89.3886 35.3588C89.3886 34.3113 89.1101 33.509 88.5532 32.9521C88.0096 32.382 87.34 32.0969 86.5444 32.0969C85.7488 32.0969 85.0792 32.382 84.5355 32.9521C84.0051 33.509 83.74 34.3113 83.74 35.3588C83.74 36.4063 83.9985 37.2151 84.5156 37.7853C85.046 38.3422 85.709 38.6207 86.5046 38.6207ZM99.188 41.0472C98.1273 41.0472 97.1726 40.8151 96.324 40.351C95.4753 39.8737 94.8057 39.2041 94.3151 38.3422C93.8378 37.4803 93.5991 36.4858 93.5991 35.3588C93.5991 34.2317 93.8444 33.2372 94.335 32.3753C94.8389 31.5135 95.5217 30.8505 96.3836 30.3864C97.2455 29.909 98.2068 29.6704 99.2676 29.6704C100.328 29.6704 101.29 29.909 102.152 30.3864C103.013 30.8505 103.69 31.5135 104.18 32.3753C104.684 33.2372 104.936 34.2317 104.936 35.3588C104.936 36.4858 104.678 37.4803 104.16 38.3422C103.657 39.2041 102.967 39.8737 102.092 40.351C101.23 40.8151 100.262 41.0472 99.188 41.0472ZM99.188 38.6207C99.6919 38.6207 100.163 38.5013 100.6 38.2626C101.051 38.0107 101.409 37.6394 101.674 37.1488C101.939 36.6582 102.072 36.0615 102.072 35.3588C102.072 34.3113 101.794 33.509 101.237 32.9521C100.693 32.382 100.023 32.0969 99.2278 32.0969C98.4322 32.0969 97.7626 32.382 97.219 32.9521C96.6886 33.509 96.4234 34.3113 96.4234 35.3588C96.4234 36.4063 96.682 37.2151 97.1991 37.7853C97.7295 38.3422 98.3925 38.6207 99.188 38.6207ZM111.295 29.6704C112.117 29.6704 112.839 29.8361 113.463 30.1676C114.086 30.4858 114.576 30.9035 114.934 31.4206V29.8494H117.739V40.9477C117.739 41.9687 117.533 42.877 117.122 43.6726C116.711 44.4814 116.095 45.1179 115.273 45.582C114.45 46.0593 113.456 46.298 112.289 46.298C110.725 46.298 109.438 45.9334 108.431 45.2041C107.436 44.4748 106.873 43.4803 106.74 42.2207H109.505C109.65 42.7245 109.962 43.1223 110.439 43.414C110.93 43.719 111.52 43.8715 112.21 43.8715C113.018 43.8715 113.675 43.6262 114.179 43.1356C114.683 42.6582 114.934 41.9289 114.934 40.9477V39.2372C114.576 39.7544 114.079 40.1853 113.443 40.53C112.82 40.8748 112.104 41.0472 111.295 41.0472C110.367 41.0472 109.518 40.8085 108.749 40.3311C107.98 39.8538 107.37 39.1842 106.919 38.3223C106.481 37.4472 106.263 36.4461 106.263 35.319C106.263 34.2052 106.481 33.2173 106.919 32.3555C107.37 31.4936 107.973 30.8306 108.729 30.3665C109.498 29.9024 110.353 29.6704 111.295 29.6704ZM114.934 35.3588C114.934 34.6825 114.802 34.1057 114.537 33.6284C114.271 33.1378 113.913 32.7665 113.463 32.5146C113.012 32.2494 112.528 32.1168 112.011 32.1168C111.494 32.1168 111.016 32.2427 110.579 32.4947C110.141 32.7466 109.783 33.1179 109.505 33.6085C109.239 34.0858 109.107 34.656 109.107 35.319C109.107 35.982 109.239 36.5654 109.505 37.0693C109.783 37.5599 110.141 37.9378 110.579 38.203C111.029 38.4682 111.507 38.6008 112.011 38.6008C112.528 38.6008 113.012 38.4748 113.463 38.2229C113.913 37.9577 114.271 37.5864 114.537 37.109C114.802 36.6184 114.934 36.035 114.934 35.3588ZM123.243 26.1499V40.8682H120.458V26.1499H123.243ZM136.237 35.1201C136.237 35.5179 136.211 35.8759 136.158 36.1941H128.102C128.169 36.9897 128.447 37.6129 128.938 38.0637C129.428 38.5146 130.032 38.74 130.748 38.74C131.782 38.74 132.518 38.2958 132.955 37.4074H135.959C135.641 38.4682 135.031 39.3433 134.129 40.0328C133.227 40.709 132.12 41.0472 130.807 41.0472C129.747 41.0472 128.792 40.8151 127.943 40.351C127.108 39.8737 126.452 39.2041 125.974 38.3422C125.51 37.4803 125.278 36.4858 125.278 35.3588C125.278 34.2184 125.51 33.2173 125.974 32.3555C126.438 31.4936 127.088 30.8306 127.923 30.3665C128.759 29.9024 129.72 29.6704 130.807 29.6704C131.855 29.6704 132.79 29.8958 133.612 30.3466C134.447 30.7974 135.09 31.4405 135.541 32.2759C136.005 33.098 136.237 34.0461 136.237 35.1201ZM133.353 34.3245C133.34 33.6085 133.081 33.0383 132.578 32.614C132.074 32.1765 131.457 31.9577 130.728 31.9577C130.038 31.9577 129.455 32.1698 128.978 32.5941C128.513 33.0052 128.228 33.582 128.122 34.3245H133.353ZM153.133 31.2814C153.133 32.024 152.954 32.7201 152.596 33.3698C152.251 34.0195 151.701 34.5433 150.945 34.9411C150.202 35.3389 149.261 35.5378 148.121 35.5378H145.793V40.8682H143.009V26.9853H148.121C149.195 26.9853 150.11 27.1709 150.865 27.5422C151.621 27.9135 152.185 28.424 152.556 29.0737C152.94 29.7234 153.133 30.4593 153.133 31.2814ZM148.001 33.2903C148.77 33.2903 149.34 33.1179 149.712 32.7731C150.083 32.4151 150.269 31.9179 150.269 31.2814C150.269 29.9289 149.513 29.2527 148.001 29.2527H145.793V33.2903H148.001ZM157.894 26.1499V40.8682H155.11V26.1499H157.894ZM159.929 35.319C159.929 34.2052 160.148 33.2173 160.586 32.3555C161.037 31.4936 161.64 30.8306 162.396 30.3665C163.165 29.9024 164.02 29.6704 164.961 29.6704C165.783 29.6704 166.5 29.8361 167.109 30.1676C167.733 30.4991 168.23 30.9168 168.601 31.4206V29.8494H171.406V40.8682H168.601V39.2571C168.243 39.7742 167.746 40.2052 167.109 40.5499C166.486 40.8814 165.764 41.0472 164.941 41.0472C164.013 41.0472 163.165 40.8085 162.396 40.3311C161.64 39.8538 161.037 39.1842 160.586 38.3223C160.148 37.4472 159.929 36.4461 159.929 35.319ZM168.601 35.3588C168.601 34.6825 168.469 34.1057 168.203 33.6284C167.938 33.1378 167.58 32.7665 167.129 32.5146C166.679 32.2494 166.195 32.1168 165.677 32.1168C165.16 32.1168 164.683 32.2427 164.245 32.4947C163.808 32.7466 163.45 33.1179 163.171 33.6085C162.906 34.0858 162.774 34.656 162.774 35.319C162.774 35.982 162.906 36.5654 163.171 37.0693C163.45 37.5599 163.808 37.9378 164.245 38.203C164.696 38.4682 165.174 38.6008 165.677 38.6008C166.195 38.6008 166.679 38.4748 167.129 38.2229C167.58 37.9577 167.938 37.5864 168.203 37.109C168.469 36.6184 168.601 36.035 168.601 35.3588ZM184.667 29.8494L177.844 46.0792H174.881L177.268 40.5897L172.852 29.8494H175.975L178.819 37.5466L181.703 29.8494H184.667Z" fill="#333333"/>
<path d="M20.3778 13.3881C20.526 13.3033 20.6938 13.2591 20.8645 13.2598C21.0352 13.2605 21.2028 13.3061 21.3502 13.392L36.6038 22.2891L31.8836 26.5364L19.8896 15.7432V14.2321C19.8895 14.0609 19.9346 13.8927 20.0203 13.7445C20.106 13.5963 20.2293 13.4734 20.3778 13.3881ZM19.8896 18.3608V37.3297L30.4308 27.8452L19.8896 18.3608ZM19.8896 39.9473V41.4584C19.8896 41.6295 19.9347 41.7975 20.0204 41.9456C20.1061 42.0937 20.2293 42.2166 20.3777 42.3018C20.5261 42.387 20.6943 42.4316 20.8654 42.431C21.0365 42.4304 21.2044 42.3847 21.3522 42.2985L36.6038 33.4014L31.8836 29.1541L19.8896 39.9473ZM38.3678 32.3726L44.6886 28.6854C44.8355 28.5998 44.9574 28.4771 45.0421 28.3297C45.1268 28.1823 45.1714 28.0153 45.1714 27.8452C45.1714 27.6752 45.1268 27.5082 45.0421 27.3608C44.9574 27.2134 44.8355 27.0907 44.6886 27.0051L38.3678 23.3179L33.3364 27.8452L38.3678 32.3726Z" fill="#333333"/>
</svg>
