<svg width="64" height="63" viewBox="0 0 64 63" fill="none" xmlns="http://www.w3.org/2000/svg">
<path d="M32.924 14.752C24.0798 14.752 16.9019 21.9299 16.9019 30.7741C16.9019 39.6182 24.0798 46.7961 32.924 46.7961C41.7682 46.7961 48.9461 39.6182 48.9461 30.7741C48.9461 21.9299 41.7682 14.752 32.924 14.752ZM40.3582 25.647C40.1179 28.1785 39.0764 34.331 38.5477 37.1669C38.3234 38.3685 37.8748 38.7691 37.4582 38.8171C36.5289 38.8973 35.824 38.2083 34.9267 37.6155C33.5168 36.6862 32.7157 36.1094 31.3538 35.2122C29.7676 34.1707 30.793 33.5939 31.7063 32.6647C31.9466 32.4243 36.0483 28.6912 36.1284 28.3547C36.1395 28.3038 36.138 28.2508 36.1241 28.2006C36.1101 28.1503 36.0841 28.1042 36.0483 28.0663C35.9521 27.9862 35.824 28.0183 35.7118 28.0343C35.5676 28.0663 33.3245 29.5564 28.9505 32.5044C28.3096 32.937 27.7328 33.1613 27.2201 33.1453C26.6433 33.1293 25.5538 32.8249 24.7367 32.5525C23.7273 32.2321 22.9422 32.0558 23.0063 31.495C23.0383 31.2066 23.4389 30.9182 24.1919 30.6138C28.8704 28.579 31.9786 27.2332 33.5328 26.5923C37.9869 24.7337 38.9002 24.4133 39.509 24.4133C39.6372 24.4133 39.9416 24.4453 40.1339 24.6055C40.2941 24.7337 40.3422 24.91 40.3582 25.0381C40.3422 25.1343 40.3742 25.4227 40.3582 25.647Z" fill="#333333"/>
<rect x="0.662983" y="0.662983" width="62.3204" height="60.9945" rx="7.29282" stroke="#333333" stroke-width="1.32597"/>
</svg>
