<svg width="64" height="63" viewBox="0 0 64 63" fill="none" xmlns="http://www.w3.org/2000/svg">
<path fill-rule="evenodd" clip-rule="evenodd" d="M32.3197 14.7787C34.0725 14.752 35.8119 14.7653 37.5513 14.752C37.6583 16.7992 38.3943 18.8865 39.8927 20.3316C41.3913 21.8168 43.5054 22.4992 45.5659 22.7266V28.1189C43.6392 28.052 41.699 27.6506 39.9463 26.821C39.1836 26.4731 38.4745 26.0316 37.7787 25.5767C37.7654 29.4837 37.7921 33.3908 37.752 37.2845C37.6449 39.1577 37.0294 41.0176 35.9457 42.5563C34.1929 45.1254 31.1557 46.7979 28.0381 46.8514C26.1248 46.9585 24.2115 46.4366 22.5791 45.4733C19.8764 43.881 17.9764 40.9641 17.6955 37.8331C17.6687 37.164 17.6553 36.495 17.6821 35.8394C17.9229 33.2971 19.1806 30.8619 21.1341 29.2027C23.3551 27.276 26.4593 26.3527 29.3627 26.9013C29.3895 28.8816 29.3093 30.8619 29.3093 32.8422C27.9846 32.414 26.4326 32.5344 25.2685 33.3373C24.4256 33.8859 23.7833 34.7288 23.4488 35.6788C23.1678 36.3612 23.2481 37.1105 23.2615 37.8331C23.5826 40.0275 25.6966 41.8739 27.9445 41.6732C29.4431 41.6599 30.8747 40.7901 31.6508 39.519C31.9049 39.0774 32.1859 38.6225 32.1993 38.1007C32.3331 35.7056 32.2796 33.3239 32.293 30.9288C32.3063 25.5365 32.2796 20.1576 32.3197 14.7787Z" fill="#333333"/>
<rect x="0.662983" y="0.662983" width="62.3204" height="60.9945" rx="7.29282" stroke="#333333" stroke-width="1.32597"/>
</svg>
