<svg width="64" height="63" viewBox="0 0 64 63" fill="none" xmlns="http://www.w3.org/2000/svg">
<path d="M27.9504 36.9615L37.4128 31.4919L27.9504 26.0223V36.9615ZM49.0266 22.6858C49.2636 23.5428 49.4277 24.6914 49.5371 26.1499C49.6647 27.6085 49.7194 28.8665 49.7194 29.9604L49.8288 31.4919C49.8288 35.4847 49.5371 38.4201 49.0266 40.298C48.5708 41.9389 47.5134 42.9963 45.8725 43.4521C45.0156 43.6892 43.4476 43.8532 41.041 43.9626C38.6708 44.0903 36.5012 44.145 34.4957 44.145L31.5968 44.2544C23.9576 44.2544 19.199 43.9626 17.3211 43.4521C15.6802 42.9963 14.6228 41.9389 14.167 40.298C13.9299 39.4411 13.7659 38.2925 13.6565 36.8339C13.5288 35.3753 13.4741 34.1173 13.4741 33.0234L13.3647 31.4919C13.3647 27.4991 13.6565 24.5637 14.167 22.6858C14.6228 21.045 15.6802 19.9875 17.3211 19.5317C18.178 19.2947 19.746 19.1306 22.1526 19.0212C24.5228 18.8936 26.6924 18.8389 28.6979 18.8389L31.5968 18.7295C39.236 18.7295 43.9946 19.0212 45.8725 19.5317C47.5134 19.9875 48.5708 21.045 49.0266 22.6858Z" fill="#333333"/>
<rect x="0.662983" y="0.662983" width="62.3204" height="60.9945" rx="7.29282" stroke="#333333" stroke-width="1.32597"/>
</svg>
