<svg width="150" height="150" viewBox="0 0 150 150" fill="none" xmlns="http://www.w3.org/2000/svg">
<path d="M150 112.626C150 117.046 148.244 121.285 145.118 124.411C141.993 127.536 137.754 129.292 133.333 129.292H16.6667C12.2464 129.292 8.00716 127.536 4.88155 124.411C1.75595 121.285 0 117.046 0 112.626V37.6257C0 33.2054 1.75595 28.9661 4.88155 25.8405C8.00716 22.7149 12.2464 20.959 16.6667 20.959H133.333C137.754 20.959 141.993 22.7149 145.118 25.8405C148.244 28.9661 150 33.2054 150 37.6257V112.626Z" fill="#DE2910"/>
<path d="M46.4002 37.5308L49.4668 39.0141L51.921 36.6558L51.4585 40.0308L54.4585 41.6391L51.1085 42.2391L50.5085 45.5891L48.9002 42.5891L45.5252 43.0516L47.8835 40.5974L46.4002 37.5308ZM65.8377 49.7849L64.3543 52.8474L66.7127 55.3058L63.3418 54.8391L61.7335 57.8433L61.1335 54.4891L57.7793 53.8891L60.7835 52.2808L60.3168 48.9099L62.7752 51.2683L65.8377 49.7849ZM61.8502 65.5308L62.9668 68.7474L66.371 68.8183L63.6585 70.8724L64.646 74.1349L61.8502 72.1891L59.0543 74.1349L60.0377 70.8724L57.3252 68.8183L60.7293 68.7474L61.8502 65.5308ZM46.4002 79.1974L49.4668 80.6808L51.921 78.3224L51.4585 81.6974L54.4585 83.3058L51.1085 83.9058L50.5085 87.2558L48.9002 84.2558L45.5252 84.7183L47.8835 82.2641L46.4002 79.1974ZM29.1668 45.7558L33.0377 56.8849L44.8127 57.1266L35.4252 64.2433L38.8377 75.5183L29.1668 68.7891L19.496 75.5183L22.9085 64.2433L13.521 57.1266L25.296 56.8849L29.1668 45.7558Z" fill="#FFDE02"/>
</svg>
