<svg width="150" height="150" viewBox="0 0 150 150" fill="none" xmlns="http://www.w3.org/2000/svg">
<path d="M150 112.667C150 117.087 148.244 121.326 145.118 124.452C141.993 127.577 137.754 129.333 133.333 129.333H16.6667C12.2464 129.333 8.00716 127.577 4.88155 124.452C1.75595 121.326 0 117.087 0 112.667V37.6667C0 33.2464 1.75595 29.0072 4.88155 25.8816C8.00716 22.7559 12.2464 21 16.6667 21H133.333C137.754 21 141.993 22.7559 145.118 25.8816C148.244 29.0072 150 33.2464 150 37.6667V112.667Z" fill="#C60A1D"/>
<path d="M0 50.1665H150V100.167H0V50.1665Z" fill="#FFC400"/>
<path d="M37.5 71V83.5C37.5 86.8152 38.817 89.9946 41.1612 92.3388C43.5054 94.683 46.6848 96 50 96C53.3152 96 56.4946 94.683 58.8388 92.3388C61.183 89.9946 62.5 86.8152 62.5 83.5V71H37.5Z" fill="#EA596E"/>
<path d="M50 66.834H62.5V79.334H50V66.834Z" fill="#F4A2B2"/>
<path d="M37.5 66.834H50V79.334H37.5V66.834Z" fill="#DD2E44"/>
<path d="M50 66.834C56.9036 66.834 62.5 64.0358 62.5 60.584C62.5 57.1322 56.9036 54.334 50 54.334C43.0964 54.334 37.5 57.1322 37.5 60.584C37.5 64.0358 43.0964 66.834 50 66.834Z" fill="#EA596E"/>
<path d="M50 60.584C56.9036 60.584 62.5 59.1849 62.5 57.459C62.5 55.7331 56.9036 54.334 50 54.334C43.0964 54.334 37.5 55.7331 37.5 57.459C37.5 59.1849 43.0964 60.584 50 60.584Z" fill="#FFAC33"/>
<path d="M29.1663 66.834H33.3329V96.0007H29.1663V66.834ZM66.6663 66.834H70.8329V96.0007H66.6663V66.834Z" fill="#99AAB5"/>
<path d="M25 91.8332H37.5V95.9998H25V91.8332ZM62.5 91.8332H75V95.9998H62.5V91.8332ZM29.1667 62.6665H33.3333V66.8332H29.1667V62.6665ZM66.6667 62.6665H70.8333V66.8332H66.6667V62.6665Z" fill="#66757F"/>
</svg>
