<svg width="150" height="150" viewBox="0 0 150 150" fill="none" xmlns="http://www.w3.org/2000/svg">
<path d="M0 116.667C0 121.087 1.75595 125.326 4.88155 128.452C8.00716 131.577 12.2464 133.333 16.6667 133.333H133.333C137.754 133.333 141.993 131.577 145.118 128.452C148.244 125.326 150 121.087 150 116.667V100H0V116.667Z" fill="#DA0001"/>
<path d="M0 58.334H150V100.001H0V58.334Z" fill="#EEEEEE"/>
<path d="M150 58.3333V41.6667C150 37.2464 148.244 33.0072 145.118 29.8816C141.993 26.7559 137.754 25 133.333 25H16.6667C12.2464 25 8.00716 26.7559 4.88155 29.8816C1.75595 33.0072 0 37.2464 0 41.6667L0 58.3333H150Z" fill="#239F40"/>
<path d="M0 100H150V104.167H0V100Z" fill="#E96667"/>
<path d="M81.1045 66.5379C85.092 68.5795 93.7628 78.842 84.4295 90.417C90.2253 89.1337 97.6045 72.0504 81.1045 66.5379ZM68.867 66.5379C52.3711 72.0504 59.7461 89.1337 65.542 90.417C56.2086 78.842 64.8795 68.5795 68.867 66.5379ZM74.9211 65.942C75.0878 66.7629 79.5086 67.7587 78.9795 63.5545C78.2795 65.2545 76.2545 65.2045 74.9461 64.417C73.1461 65.4212 71.467 65.1754 70.8295 63.4712C70.2128 66.6129 73.2753 67.5337 74.9211 65.942Z" fill="#BE1931"/>
<path d="M85.5755 78.7667C85.513 73.5667 82.7547 68.9667 80.038 67.1042C81.8297 69.3001 87.338 81.4209 76.7672 89.4001L76.963 68.1626L74.9839 66.4209L73.0047 68.0792L73.338 89.5209L73.263 89.4584C62.5839 81.4834 68.1255 69.3042 69.9214 67.1042C67.2047 68.9667 64.4422 73.5667 64.3839 78.7667C64.3297 83.2292 66.3714 88.1126 72.0255 92.1209C69.7422 92.7079 67.3912 92.9895 65.0339 92.9584C66.9672 94.0126 70.6172 93.7584 73.3964 93.5042L73.4005 93.7876L75.0589 95.6084L76.7255 93.7126V93.4959C79.5255 93.7542 83.2547 94.0334 85.2214 92.9626C82.7863 93.0029 80.3574 92.7042 78.0047 92.0751C83.6047 88.0709 85.6297 83.2126 85.5755 78.7667Z" fill="#BE1931"/>
<path d="M0 54.1665H150V58.3332H0V54.1665Z" fill="#7BC58C"/>
</svg>
