<svg width="150" height="150" viewBox="0 0 150 150" fill="none" xmlns="http://www.w3.org/2000/svg">
<path d="M150 112.667C150 117.087 148.244 121.326 145.118 124.452C141.993 127.577 137.754 129.333 133.333 129.333H100V21H133.333C137.754 21 141.993 22.7559 145.118 25.8816C148.244 29.0072 150 33.2464 150 37.6667V112.667Z" fill="#ED2939"/>
<path d="M16.6667 21C12.2464 21 8.00716 22.7559 4.88155 25.8816C1.75595 29.0072 0 33.2464 0 37.6667L0 112.667C0 117.087 1.75595 121.326 4.88155 124.452C8.00716 127.577 12.2464 129.333 16.6667 129.333H50V21H16.6667Z" fill="#002495"/>
<path d="M50 21H100V129.333H50V21Z" fill="#EEEEEE"/>
</svg>
