<svg width="150" height="150" viewBox="0 0 150 150" fill="none" xmlns="http://www.w3.org/2000/svg">
<mask id="mask0_8245_15105" style="mask-type:alpha" maskUnits="userSpaceOnUse" x="0" y="23" width="150" height="109">
<path d="M150 114.667C150 119.087 148.244 123.326 145.118 126.452C141.993 129.578 137.754 131.334 133.333 131.334H100V23.0002H133.333C137.754 23.0002 141.993 24.7561 145.118 27.8817C148.244 31.0073 150 35.2466 150 39.6668V114.667Z" fill="#ED2939"/>
<path d="M16.6667 23C12.2464 23 8.00716 24.7559 4.88155 27.8816C1.75595 31.0072 0 35.2464 0 39.6667V114.667C0 119.087 1.75595 123.326 4.88155 126.452C8.00716 129.577 12.2464 131.333 16.6667 131.333H50V23H16.6667Z" fill="#002495"/>
<path d="M50 23L100 23.0002V131.334L50 131.333V23Z" fill="#EEEEEE"/>
</mask>
<g mask="url(#mask0_8245_15105)">
<path fill-rule="evenodd" clip-rule="evenodd" d="M0 21V133.5H150V21H0Z" fill="#2E42A5"/>
<mask id="mask1_8245_15105" style="mask-type:luminance" maskUnits="userSpaceOnUse" x="0" y="21" width="150" height="113">
<path fill-rule="evenodd" clip-rule="evenodd" d="M0 21V133.5H150V21H0Z" fill="white"/>
</mask>
<g mask="url(#mask1_8245_15105)">
<path d="M-16.7021 125.463L16.3058 139.422L150.749 36.1773L168.16 15.4328L132.863 10.7671L78.0266 55.2584L33.889 85.2351L-16.7021 125.463Z" fill="white"/>
<path d="M-12.1833 135.243L4.63266 143.344L161.908 13.5055H138.296L-12.1833 135.243Z" fill="#F50100"/>
<path d="M166.702 125.463L133.694 139.422L-0.748811 36.1773L-18.1597 15.4328L17.1375 10.7671L71.9737 55.2584L116.111 85.2351L166.702 125.463Z" fill="white"/>
<path d="M165.576 132.482L148.76 140.583L81.7908 84.9923L61.9358 78.7813L-19.835 15.5038H3.77663L85.5015 77.2793L107.209 84.727L165.576 132.482Z" fill="#F50100"/>
<mask id="path-8-inside-1_8245_15105" fill="white">
<path d="M92.7083 58.5H159.504V96H92.7083V142.875H57.2913V96H-9.24585V58.5H57.2913V11.625H92.7083V58.5Z"/>
</mask>
<path d="M92.7083 58.5H159.504V96H92.7083V142.875H57.2913V96H-9.24585V58.5H57.2913V11.625H92.7083V58.5Z" fill="#F50100"/>
<path d="M92.7083 58.5H83.3333V67.875H92.7083V58.5ZM159.504 58.5H168.879V49.125H159.504V58.5ZM159.504 96V105.375H168.879V96H159.504ZM92.7083 96V86.625H83.3333V96H92.7083ZM92.7083 142.875V152.25H102.083V142.875H92.7083ZM57.2913 142.875H47.9163V152.25H57.2913V142.875ZM57.2913 96H66.6663V86.625H57.2913V96ZM-9.24585 96H-18.6208V105.375H-9.24585V96ZM-9.24585 58.5V49.125H-18.6208V58.5H-9.24585ZM57.2913 58.5V67.875H66.6663V58.5H57.2913ZM57.2913 11.625V2.25H47.9163V11.625H57.2913ZM92.7083 11.625H102.083V2.25H92.7083V11.625ZM92.7083 58.5V67.875H159.504V58.5V49.125H92.7083V58.5ZM159.504 58.5H150.129V96H159.504H168.879V58.5H159.504ZM159.504 96V86.625H92.7083V96V105.375H159.504V96ZM92.7083 96H83.3333V142.875H92.7083H102.083V96H92.7083ZM92.7083 142.875V133.5H57.2913V142.875V152.25H92.7083V142.875ZM57.2913 142.875H66.6663V96H57.2913H47.9163V142.875H57.2913ZM57.2913 96V86.625H-9.24585V96V105.375H57.2913V96ZM-9.24585 96H0.129149V58.5H-9.24585H-18.6208V96H-9.24585ZM-9.24585 58.5V67.875H57.2913V58.5V49.125H-9.24585V58.5ZM57.2913 58.5H66.6663V11.625H57.2913H47.9163V58.5H57.2913ZM57.2913 11.625V21H92.7083V11.625V2.25H57.2913V11.625ZM92.7083 11.625H83.3333V58.5H92.7083H102.083V11.625H92.7083Z" fill="white" mask="url(#path-8-inside-1_8245_15105)"/>
</g>
</g>
</svg>
