<svg width="150" height="150" viewBox="0 0 150 150" fill="none" xmlns="http://www.w3.org/2000/svg">
<path d="M0 112.668C0 117.089 1.75595 121.328 4.88155 124.453C8.00716 127.579 12.2464 129.335 16.6667 129.335H133.333C137.754 129.335 141.993 127.579 145.118 124.453C148.244 121.328 150 117.089 150 112.668V91.835H0V112.668Z" fill="#138808"/>
<path d="M150 58.5V37.6667C150 33.2464 148.244 29.0072 145.118 25.8816C141.993 22.7559 137.754 21 133.333 21H16.6667C12.2464 21 8.00716 22.7559 4.88155 25.8816C1.75595 29.0072 0 33.2464 0 37.6667L0 58.5H150Z" fill="#FF9933"/>
<path d="M0 57.1128H150V93.2253H0V57.1128Z" fill="#F7F7F7"/>
<path d="M75.0004 91.8333C84.2052 91.8333 91.6671 84.3714 91.6671 75.1667C91.6671 65.9619 84.2052 58.5 75.0004 58.5C65.7957 58.5 58.3337 65.9619 58.3337 75.1667C58.3337 84.3714 65.7957 91.8333 75.0004 91.8333Z" fill="#000080"/>
<path d="M75 89.23C82.7665 89.23 89.0625 82.934 89.0625 75.1675C89.0625 67.401 82.7665 61.105 75 61.105C67.2335 61.105 60.9375 67.401 60.9375 75.1675C60.9375 82.934 67.2335 89.23 75 89.23Z" fill="#F7F7F7"/>
<path d="M75.417 69.9595L75.0003 72.6678L74.5837 69.9595L75.0003 61.8345L75.417 69.9595ZM71.5503 62.2886L73.2503 70.2428L74.3545 72.7511L74.0545 70.0303L71.5503 62.2886ZM68.3337 63.622L72.0337 70.8636L73.7503 73.0011L72.7587 70.447L68.3337 63.622ZM65.5712 65.7386L71.0212 71.7803L73.2337 73.4011L71.6128 71.1886L65.5712 65.7386ZM63.4545 68.5011L70.2795 72.9261L72.8337 73.9178L70.6962 72.2011L63.4545 68.5011ZM62.1212 71.7178L69.8628 74.222L72.5837 74.522L70.0753 73.4178L62.1212 71.7178ZM61.667 75.1678L69.792 75.5845L72.5003 75.1678L69.792 74.7511L61.667 75.1678ZM62.1212 78.6178L70.0753 76.9178L72.5837 75.8136L69.8628 76.1136L62.1212 78.6178ZM63.4545 81.8345L70.6962 78.1345L72.8337 76.4178L70.2795 77.4095L63.4545 81.8345ZM65.5712 84.597L71.6128 79.147L73.2337 76.9345L71.0212 78.5553L65.5712 84.597ZM68.3337 86.7136L72.7587 79.8886L73.7503 77.3345L72.0337 79.472L68.3337 86.7136ZM71.5503 88.047L74.0545 80.3053L74.3545 77.5845L73.2503 80.0928L71.5503 88.047ZM75.0003 88.5011L75.417 80.3761L75.0003 77.6678L74.5837 80.3761L75.0003 88.5011ZM78.4503 88.047L76.7503 80.0928L75.6462 77.5845L75.9462 80.3053L78.4503 88.047ZM81.667 86.7136L77.967 79.472L76.2503 77.3345L77.242 79.8886L81.667 86.7136ZM84.4295 84.597L78.9795 78.5553L76.767 76.9345L78.3878 79.147L84.4295 84.597ZM86.5462 81.8345L79.7212 77.4095L77.167 76.4178L79.3045 78.1345L86.5462 81.8345ZM87.8795 78.6178L80.1378 76.1136L77.417 75.8136L79.9253 76.9178L87.8795 78.6178ZM88.3337 75.1678L80.2087 74.7511L77.5003 75.1678L80.2087 75.5845L88.3337 75.1678ZM87.8795 71.7178L79.9253 73.4178L77.417 74.522L80.1378 74.222L87.8795 71.7178ZM86.5462 68.5011L79.3045 72.2011L77.167 73.9178L79.7212 72.9261L86.5462 68.5011ZM84.4295 65.7386L78.3878 71.1886L76.767 73.4011L78.9795 71.7803L84.4295 65.7386ZM81.667 63.622L77.242 70.447L76.2503 73.0011L77.967 70.8636L81.667 63.622ZM78.4503 62.2886L75.9462 70.0303L75.6462 72.7511L76.7503 70.2428L78.4503 62.2886Z" fill="#6666B3"/>
<path d="M73.1663 62.0807C73.6266 62.0807 73.9997 61.7076 73.9997 61.2474C73.9997 60.7872 73.6266 60.4141 73.1663 60.4141C72.7061 60.4141 72.333 60.7872 72.333 61.2474C72.333 61.7076 72.7061 62.0807 73.1663 62.0807Z" fill="#000080"/>
<path d="M69.6243 63.0314C70.0846 63.0314 70.4577 62.6583 70.4577 62.1981C70.4577 61.7378 70.0846 61.3647 69.6243 61.3647C69.1641 61.3647 68.791 61.7378 68.791 62.1981C68.791 62.6583 69.1641 63.0314 69.6243 63.0314Z" fill="#000080"/>
<path d="M66.4498 64.8595C66.91 64.8595 67.2831 64.4864 67.2831 64.0262C67.2831 63.566 66.91 63.1929 66.4498 63.1929C65.9896 63.1929 65.6165 63.566 65.6165 64.0262C65.6165 64.4864 65.9896 64.8595 66.4498 64.8595Z" fill="#000080"/>
<path d="M63.8582 67.4518C64.3185 67.4518 64.6916 67.0787 64.6916 66.6185C64.6916 66.1583 64.3185 65.7852 63.8582 65.7852C63.398 65.7852 63.0249 66.1583 63.0249 66.6185C63.0249 67.0787 63.398 67.4518 63.8582 67.4518Z" fill="#000080"/>
<path d="M62.0286 70.6271C62.4889 70.6271 62.862 70.254 62.862 69.7938C62.862 69.3335 62.4889 68.9604 62.0286 68.9604C61.5684 68.9604 61.1953 69.3335 61.1953 69.7938C61.1953 70.254 61.5684 70.6271 62.0286 70.6271Z" fill="#000080"/>
<path d="M61.0787 74.1686C61.5389 74.1686 61.912 73.7955 61.912 73.3353C61.912 72.875 61.5389 72.502 61.0787 72.502C60.6185 72.502 60.2454 72.875 60.2454 73.3353C60.2454 73.7955 60.6185 74.1686 61.0787 74.1686Z" fill="#000080"/>
<path d="M61.0787 77.8351C61.5389 77.8351 61.912 77.462 61.912 77.0018C61.912 76.5416 61.5389 76.1685 61.0787 76.1685C60.6185 76.1685 60.2454 76.5416 60.2454 77.0018C60.2454 77.462 60.6185 77.8351 61.0787 77.8351Z" fill="#000080"/>
<path d="M62.0286 81.3766C62.4889 81.3766 62.862 81.0035 62.862 80.5433C62.862 80.0831 62.4889 79.71 62.0286 79.71C61.5684 79.71 61.1953 80.0831 61.1953 80.5433C61.1953 81.0035 61.5684 81.3766 62.0286 81.3766Z" fill="#000080"/>
<path d="M63.8582 84.5505C64.3185 84.5505 64.6916 84.1774 64.6916 83.7171C64.6916 83.2569 64.3185 82.8838 63.8582 82.8838C63.398 82.8838 63.0249 83.2569 63.0249 83.7171C63.0249 84.1774 63.398 84.5505 63.8582 84.5505Z" fill="#000080"/>
<path d="M66.4498 87.1427C66.91 87.1427 67.2831 86.7696 67.2831 86.3094C67.2831 85.8492 66.91 85.4761 66.4498 85.4761C65.9896 85.4761 65.6165 85.8492 65.6165 86.3094C65.6165 86.7696 65.9896 87.1427 66.4498 87.1427Z" fill="#000080"/>
<path d="M69.6243 88.9723C70.0846 88.9723 70.4577 88.5992 70.4577 88.139C70.4577 87.6788 70.0846 87.3057 69.6243 87.3057C69.1641 87.3057 68.791 87.6788 68.791 88.139C68.791 88.5992 69.1641 88.9723 69.6243 88.9723Z" fill="#000080"/>
<path d="M73.1663 89.9215C73.6266 89.9215 73.9997 89.5484 73.9997 89.0882C73.9997 88.628 73.6266 88.2549 73.1663 88.2549C72.7061 88.2549 72.333 88.628 72.333 89.0882C72.333 89.5484 72.7061 89.9215 73.1663 89.9215Z" fill="#000080"/>
<path d="M76.8328 89.9215C77.2931 89.9215 77.6662 89.5484 77.6662 89.0882C77.6662 88.628 77.2931 88.2549 76.8328 88.2549C76.3726 88.2549 75.9995 88.628 75.9995 89.0882C75.9995 89.5484 76.3726 89.9215 76.8328 89.9215Z" fill="#000080"/>
<path d="M80.3744 88.9723C80.8346 88.9723 81.2077 88.5992 81.2077 88.139C81.2077 87.6788 80.8346 87.3057 80.3744 87.3057C79.9141 87.3057 79.541 87.6788 79.541 88.139C79.541 88.5992 79.9141 88.9723 80.3744 88.9723Z" fill="#000080"/>
<path d="M83.5496 87.1427C84.0099 87.1427 84.383 86.7696 84.383 86.3094C84.383 85.8492 84.0099 85.4761 83.5496 85.4761C83.0894 85.4761 82.7163 85.8492 82.7163 86.3094C82.7163 86.7696 83.0894 87.1427 83.5496 87.1427Z" fill="#000080"/>
<path d="M86.1412 84.5505C86.6014 84.5505 86.9745 84.1774 86.9745 83.7171C86.9745 83.2569 86.6014 82.8838 86.1412 82.8838C85.681 82.8838 85.3079 83.2569 85.3079 83.7171C85.3079 84.1774 85.681 84.5505 86.1412 84.5505Z" fill="#000080"/>
<path d="M87.9701 81.3766C88.4303 81.3766 88.8034 81.0035 88.8034 80.5433C88.8034 80.0831 88.4303 79.71 87.9701 79.71C87.5098 79.71 87.1367 80.0831 87.1367 80.5433C87.1367 81.0035 87.5098 81.3766 87.9701 81.3766Z" fill="#000080"/>
<path d="M88.9207 77.8351C89.381 77.8351 89.7541 77.462 89.7541 77.0018C89.7541 76.5416 89.381 76.1685 88.9207 76.1685C88.4605 76.1685 88.0874 76.5416 88.0874 77.0018C88.0874 77.462 88.4605 77.8351 88.9207 77.8351Z" fill="#000080"/>
<path d="M88.9207 74.1686C89.381 74.1686 89.7541 73.7955 89.7541 73.3353C89.7541 72.875 89.381 72.502 88.9207 72.502C88.4605 72.502 88.0874 72.875 88.0874 73.3353C88.0874 73.7955 88.4605 74.1686 88.9207 74.1686Z" fill="#000080"/>
<path d="M87.9701 70.6271C88.4303 70.6271 88.8034 70.254 88.8034 69.7938C88.8034 69.3335 88.4303 68.9604 87.9701 68.9604C87.5098 68.9604 87.1367 69.3335 87.1367 69.7938C87.1367 70.254 87.5098 70.6271 87.9701 70.6271Z" fill="#000080"/>
<path d="M86.1412 67.4518C86.6014 67.4518 86.9745 67.0787 86.9745 66.6185C86.9745 66.1583 86.6014 65.7852 86.1412 65.7852C85.681 65.7852 85.3079 66.1583 85.3079 66.6185C85.3079 67.0787 85.681 67.4518 86.1412 67.4518Z" fill="#000080"/>
<path d="M83.5496 64.8595C84.0099 64.8595 84.383 64.4864 84.383 64.0262C84.383 63.566 84.0099 63.1929 83.5496 63.1929C83.0894 63.1929 82.7163 63.566 82.7163 64.0262C82.7163 64.4864 83.0894 64.8595 83.5496 64.8595Z" fill="#000080"/>
<path d="M80.3744 63.0314C80.8346 63.0314 81.2077 62.6583 81.2077 62.1981C81.2077 61.7378 80.8346 61.3647 80.3744 61.3647C79.9141 61.3647 79.541 61.7378 79.541 62.1981C79.541 62.6583 79.9141 63.0314 80.3744 63.0314Z" fill="#000080"/>
<path d="M76.8328 62.0807C77.2931 62.0807 77.6662 61.7076 77.6662 61.2474C77.6662 60.7872 77.2931 60.4141 76.8328 60.4141C76.3726 60.4141 75.9995 60.7872 75.9995 61.2474C75.9995 61.7076 76.3726 62.0807 76.8328 62.0807Z" fill="#000080"/>
<path d="M74.9995 78.918C77.0706 78.918 78.7495 77.239 78.7495 75.168C78.7495 73.0969 77.0706 71.418 74.9995 71.418C72.9284 71.418 71.2495 73.0969 71.2495 75.168C71.2495 77.239 72.9284 78.918 74.9995 78.918Z" fill="#000080"/>
</svg>
