<svg width="150" height="150" viewBox="0 0 150 150" fill="none" xmlns="http://www.w3.org/2000/svg">
<mask id="mask0_8245_15120" style="mask-type:alpha" maskUnits="userSpaceOnUse" x="0" y="20" width="150" height="110">
<path d="M150 112.406C150 116.826 148.244 121.066 145.118 124.191C141.993 127.317 137.754 129.073 133.333 129.073H100V20.7394H133.333C137.754 20.7394 141.993 22.4954 145.118 25.621C148.244 28.7466 150 32.9858 150 37.4061V112.406Z" fill="#ED2939"/>
<path d="M16.6667 20.7393C12.2464 20.7393 8.00716 22.4952 4.88155 25.6208C1.75595 28.7464 0 32.9857 0 37.4059V112.406C0 116.826 1.75595 121.065 4.88155 124.191C8.00716 127.317 12.2464 129.073 16.6667 129.073H50V20.7393H16.6667Z" fill="#002495"/>
<path d="M50 20.7393L100 20.7394V129.073L50 129.073V20.7393Z" fill="#EEEEEE"/>
</mask>
<g mask="url(#mask0_8245_15120)">
<path d="M139 134.739H16C-2.52552 134.739 -11.9546 120.972 -11.9546 103.989V73.2393H166.954V103.989C166.954 120.972 157.525 134.739 139 134.739Z" fill="#E6E7E8"/>
<path d="M-11.9546 42.4893C-11.9546 25.5069 -2.52552 11.7393 16 11.7393H139C157.525 11.7393 166.954 25.5069 166.954 42.4893V73.2393H-11.9546V42.4893Z" fill="#EC1C24"/>
</g>
</svg>
