<svg width="150" height="150" viewBox="0 0 150 150" fill="none" xmlns="http://www.w3.org/2000/svg">
<mask id="mask0_8245_15303" style="mask-type:alpha" maskUnits="userSpaceOnUse" x="0" y="20" width="150" height="109">
<path d="M150 111.667C150 116.087 148.244 120.326 145.118 123.452C141.993 126.578 137.754 128.334 133.333 128.334H100V20.0002H133.333C137.754 20.0002 141.993 21.7561 145.118 24.8817C148.244 28.0073 150 32.2466 150 36.6668V111.667Z" fill="#ED2939"/>
<path d="M16.6667 20C12.2464 20 8.00716 21.7559 4.88155 24.8816C1.75595 28.0072 0 32.2464 0 36.6667V111.667C0 116.087 1.75595 120.326 4.88155 123.452C8.00716 126.577 12.2464 128.333 16.6667 128.333H50V20H16.6667Z" fill="#002495"/>
<path d="M50 20L100 20.0002V128.334L50 128.333V20Z" fill="#EEEEEE"/>
</mask>
<g mask="url(#mask0_8245_15303)">
<path fill-rule="evenodd" clip-rule="evenodd" d="M-2 16.125V132.375H153V16.125H-2Z" fill="#F7FCFF"/>
<mask id="mask1_8245_15303" style="mask-type:luminance" maskUnits="userSpaceOnUse" x="-2" y="16" width="155" height="117">
<path fill-rule="evenodd" clip-rule="evenodd" d="M-2 16.125V132.375H153V16.125H-2Z" fill="white"/>
</mask>
<g mask="url(#mask1_8245_15303)">
<path fill-rule="evenodd" clip-rule="evenodd" d="M74.4656 106.08C91.013 106.08 104.427 92.3431 104.427 75.3976C104.427 58.452 91.013 44.7148 74.4656 44.7148C57.9182 44.7148 44.5039 58.452 44.5039 75.3976C44.5039 92.3431 57.9182 106.08 74.4656 106.08Z" fill="#3D58DB"/>
<mask id="mask2_8245_15303" style="mask-type:luminance" maskUnits="userSpaceOnUse" x="44" y="44" width="61" height="63">
<path fill-rule="evenodd" clip-rule="evenodd" d="M74.4656 106.08C91.013 106.08 104.427 92.3431 104.427 75.3976C104.427 58.452 91.013 44.7148 74.4656 44.7148C57.9182 44.7148 44.5039 58.452 44.5039 75.3976C44.5039 92.3431 57.9182 106.08 74.4656 106.08Z" fill="white"/>
</mask>
<g mask="url(#mask2_8245_15303)">
<path fill-rule="evenodd" clip-rule="evenodd" d="M105.476 77.7474C105.476 77.7474 103.794 63.2795 91.3393 62.4941C78.8842 61.7087 75.5259 73.104 74.8072 76.123C74.0884 79.142 72.2693 87.1957 59.1556 87.1957C46.0418 87.1957 44.8589 66.717 44.8589 66.717V42.5693H105.476V77.7474Z" fill="#E31D1C"/>
</g>
<path fill-rule="evenodd" clip-rule="evenodd" d="M33.3561 26.0654L37.788 30.0738L17.2492 54.0595L12.8174 50.0512L33.3561 26.0654ZM40.6649 32.5534L45.0968 36.5617L25.2943 60.2L20.8624 56.1917L40.6649 32.5534ZM52.3725 43.1269L47.9406 39.1186L28.0831 62.9363L32.5149 66.9446L52.3725 43.1269Z" fill="#272727"/>
<path d="M37.788 30.0738L37.9019 30.1713L37.9969 30.0604L37.8886 29.9625L37.788 30.0738ZM33.3561 26.0654L33.4567 25.9542L33.3424 25.8508L33.2422 25.9679L33.3561 26.0654ZM17.2492 54.0595L17.1486 54.1708L17.2629 54.2742L17.3632 54.1571L17.2492 54.0595ZM12.8174 50.0512L12.7034 49.9537L12.6085 50.0645L12.7168 50.1625L12.8174 50.0512ZM45.0968 36.5617L45.2118 36.658L45.3045 36.5473L45.1974 36.4505L45.0968 36.5617ZM40.6649 32.5534L40.7655 32.4421L40.65 32.3376L40.5499 32.4571L40.6649 32.5534ZM25.2943 60.2L25.1936 60.3113L25.3092 60.4158L25.4092 60.2963L25.2943 60.2ZM20.8624 56.1917L20.7474 56.0954L20.6547 56.2061L20.7618 56.3029L20.8624 56.1917ZM47.9406 39.1186L48.0412 39.0073L47.9254 38.9026L47.8254 39.0225L47.9406 39.1186ZM52.3725 43.1269L52.4877 43.223L52.5799 43.1123L52.4731 43.0157L52.3725 43.1269ZM28.0831 62.9363L27.9679 62.8402L27.8756 62.9509L27.9825 63.0475L28.0831 62.9363ZM32.5149 66.9446L32.4143 67.0559L32.5301 67.1606L32.6301 67.0407L32.5149 66.9446ZM37.788 30.0738L37.8886 29.9625L33.4567 25.9542L33.3561 26.0654L33.2555 26.1767L37.6874 30.185L37.788 30.0738ZM17.2492 54.0595L17.3632 54.1571L37.9019 30.1713L37.788 30.0738L37.674 29.9762L17.1353 53.962L17.2492 54.0595ZM12.8174 50.0512L12.7168 50.1625L17.1486 54.1708L17.2492 54.0595L17.3498 53.9483L12.918 49.94L12.8174 50.0512ZM33.3561 26.0654L33.2422 25.9679L12.7034 49.9537L12.8174 50.0512L12.9313 50.1488L33.4701 26.163L33.3561 26.0654ZM45.0968 36.5617L45.1974 36.4505L40.7655 32.4421L40.6649 32.5534L40.5643 32.6646L44.9962 36.673L45.0968 36.5617ZM25.2943 60.2L25.4092 60.2963L45.2118 36.658L45.0968 36.5617L44.9818 36.4654L25.1793 60.1037L25.2943 60.2ZM20.8624 56.1917L20.7618 56.3029L25.1936 60.3113L25.2943 60.2L25.3949 60.0888L20.963 56.0804L20.8624 56.1917ZM40.6649 32.5534L40.5499 32.4571L20.7474 56.0954L20.8624 56.1917L20.9774 56.288L40.7799 32.6497L40.6649 32.5534ZM47.9406 39.1186L47.84 39.2298L52.2719 43.2382L52.3725 43.1269L52.4731 43.0157L48.0412 39.0073L47.9406 39.1186ZM28.0831 62.9363L28.1983 63.0323L48.0558 39.2146L47.9406 39.1186L47.8254 39.0225L27.9679 62.8402L28.0831 62.9363ZM32.5149 66.9446L32.6155 66.8334L28.1837 62.825L28.0831 62.9363L27.9825 63.0475L32.4143 67.0559L32.5149 66.9446ZM52.3725 43.1269L52.2573 43.0309L32.3997 66.8486L32.5149 66.9446L32.6301 67.0407L52.4877 43.223L52.3725 43.1269Z" fill="#272727"/>
<path fill-rule="evenodd" clip-rule="evenodd" d="M117.085 26.0654L112.653 30.0738L133.191 54.0595L137.623 50.0512L117.085 26.0654ZM109.776 32.5534L105.344 36.5617L125.147 60.2L129.578 56.1917L109.776 32.5534ZM98.0679 43.1269L102.5 39.1186L122.357 62.9363L117.925 66.9446L98.0679 43.1269Z" fill="#272727"/>
<path d="M112.653 30.0738L112.539 30.1713L112.444 30.0604L112.552 29.9625L112.653 30.0738ZM117.085 26.0654L116.984 25.9542L117.098 25.8508L117.198 25.9679L117.085 26.0654ZM133.191 54.0595L133.292 54.1708L133.178 54.2742L133.078 54.1571L133.191 54.0595ZM137.623 50.0512L137.737 49.9537L137.832 50.0645L137.724 50.1625L137.623 50.0512ZM105.344 36.5617L105.229 36.658L105.136 36.5473L105.243 36.4505L105.344 36.5617ZM109.776 32.5534L109.675 32.4421L109.791 32.3376L109.891 32.4571L109.776 32.5534ZM125.147 60.2L125.247 60.3113L125.132 60.4158L125.032 60.2963L125.147 60.2ZM129.578 56.1917L129.693 56.0954L129.786 56.2061L129.679 56.3029L129.578 56.1917ZM102.5 39.1186L102.399 39.0073L102.515 38.9026L102.615 39.0225L102.5 39.1186ZM98.0679 43.1269L97.9527 43.223L97.8605 43.1123L97.9673 43.0157L98.0679 43.1269ZM122.357 62.9363L122.473 62.8402L122.565 62.9509L122.458 63.0475L122.357 62.9363ZM117.925 66.9446L118.026 67.0559L117.91 67.1606L117.81 67.0407L117.925 66.9446ZM112.653 30.0738L112.552 29.9625L116.984 25.9542L117.085 26.0654L117.185 26.1767L112.753 30.185L112.653 30.0738ZM133.191 54.0595L133.078 54.1571L112.539 30.1713L112.653 30.0738L112.767 29.9762L133.305 53.962L133.191 54.0595ZM137.623 50.0512L137.724 50.1625L133.292 54.1708L133.191 54.0595L133.091 53.9483L137.523 49.94L137.623 50.0512ZM117.085 26.0654L117.198 25.9679L137.737 49.9537L137.623 50.0512L137.509 50.1488L116.971 26.163L117.085 26.0654ZM105.344 36.5617L105.243 36.4505L109.675 32.4421L109.776 32.5534L109.877 32.6646L105.445 36.673L105.344 36.5617ZM125.147 60.2L125.032 60.2963L105.229 36.658L105.344 36.5617L105.459 36.4654L125.262 60.1037L125.147 60.2ZM129.578 56.1917L129.679 56.3029L125.247 60.3113L125.147 60.2L125.046 60.0888L129.478 56.0804L129.578 56.1917ZM109.776 32.5534L109.891 32.4571L129.693 56.0954L129.578 56.1917L129.463 56.288L109.661 32.6497L109.776 32.5534ZM102.5 39.1186L102.6 39.2298L98.1685 43.2382L98.0679 43.1269L97.9673 43.0157L102.399 39.0073L102.5 39.1186ZM122.357 62.9363L122.242 63.0323L102.385 39.2146L102.5 39.1186L102.615 39.0225L122.473 62.8402L122.357 62.9363ZM117.925 66.9446L117.825 66.8334L122.257 62.825L122.357 62.9363L122.458 63.0475L118.026 67.0559L117.925 66.9446ZM98.0679 43.1269L98.1831 43.0309L118.041 66.8486L117.925 66.9446L117.81 67.0407L97.9527 43.223L98.0679 43.1269Z" fill="#272727"/>
<path fill-rule="evenodd" clip-rule="evenodd" d="M33.3561 125.069L37.788 121.061L17.2492 97.0747L12.8174 101.083L33.3561 125.069ZM40.6649 118.582L45.0968 114.574L25.2943 90.9356L20.8624 94.9439L40.6649 118.582ZM52.3725 108.008L47.9406 112.016L28.0831 88.1984L32.5149 84.1901L52.3725 108.008Z" fill="#272727"/>
<path d="M37.788 121.061L37.9019 120.963L37.9969 121.074L37.8886 121.172L37.788 121.061ZM33.3561 125.069L33.4567 125.18L33.3424 125.283L33.2422 125.166L33.3561 125.069ZM17.2492 97.0747L17.1486 96.9635L17.2629 96.8601L17.3632 96.9772L17.2492 97.0747ZM12.8174 101.083L12.7034 101.181L12.6085 101.07L12.7168 100.972L12.8174 101.083ZM45.0968 114.574L45.2118 114.478L45.3045 114.588L45.1974 114.685L45.0968 114.574ZM40.6649 118.582L40.7655 118.693L40.65 118.798L40.5499 118.679L40.6649 118.582ZM25.2943 90.9356L25.1936 90.8244L25.3092 90.7198L25.4092 90.8393L25.2943 90.9356ZM20.8624 94.9439L20.7474 95.0403L20.6547 94.9296L20.7618 94.8327L20.8624 94.9439ZM47.9406 112.016L48.0412 112.127L47.9254 112.232L47.8254 112.112L47.9406 112.016ZM52.3725 108.008L52.4877 107.912L52.5799 108.022L52.4731 108.119L52.3725 108.008ZM28.0831 88.1984L27.9679 88.2945L27.8756 88.1838L27.9825 88.0872L28.0831 88.1984ZM32.5149 84.1901L32.4143 84.0788L32.5301 83.9741L32.6301 84.094L32.5149 84.1901ZM37.788 121.061L37.8886 121.172L33.4567 125.18L33.3561 125.069L33.2555 124.958L37.6874 120.949L37.788 121.061ZM17.2492 97.0747L17.3632 96.9772L37.9019 120.963L37.788 121.061L37.674 121.158L17.1353 97.1723L17.2492 97.0747ZM12.8174 101.083L12.7168 100.972L17.1486 96.9635L17.2492 97.0747L17.3498 97.186L12.918 101.194L12.8174 101.083ZM33.3561 125.069L33.2422 125.166L12.7034 101.181L12.8174 101.083L12.9313 100.985L33.4701 124.971L33.3561 125.069ZM45.0968 114.574L45.1974 114.685L40.7655 118.693L40.6649 118.582L40.5643 118.471L44.9962 114.463L45.0968 114.574ZM25.2943 90.9356L25.4092 90.8393L45.2118 114.478L45.0968 114.574L44.9818 114.67L25.1793 91.0319L25.2943 90.9356ZM20.8624 94.9439L20.7618 94.8327L25.1936 90.8244L25.2943 90.9356L25.3949 91.0468L20.963 95.0552L20.8624 94.9439ZM40.6649 118.582L40.5499 118.679L20.7474 95.0403L20.8624 94.9439L20.9774 94.8476L40.7799 118.486L40.6649 118.582ZM47.9406 112.016L47.84 111.905L52.2719 107.897L52.3725 108.008L52.4731 108.119L48.0412 112.127L47.9406 112.016ZM28.0831 88.1984L28.1983 88.1024L48.0558 111.92L47.9406 112.016L47.8254 112.112L27.9679 88.2945L28.0831 88.1984ZM32.5149 84.1901L32.6155 84.3013L28.1837 88.3097L28.0831 88.1984L27.9825 88.0872L32.4143 84.0788L32.5149 84.1901ZM52.3725 108.008L52.2573 108.104L32.3997 84.2861L32.5149 84.1901L32.6301 84.094L52.4877 107.912L52.3725 108.008Z" fill="#272727"/>
<path fill-rule="evenodd" clip-rule="evenodd" d="M117.085 125.069L112.653 121.061L133.191 97.0747L137.623 101.083L117.085 125.069ZM109.776 118.582L105.344 114.574L125.147 90.9356L129.578 94.9439L109.776 118.582ZM98.0679 108.008L102.5 112.016L122.357 88.1984L117.925 84.1901L98.0679 108.008Z" fill="#272727"/>
<path d="M112.653 121.061L112.539 120.963L112.444 121.074L112.552 121.172L112.653 121.061ZM117.085 125.069L116.984 125.18L117.098 125.283L117.198 125.166L117.085 125.069ZM133.191 97.0747L133.292 96.9635L133.178 96.8601L133.078 96.9772L133.191 97.0747ZM137.623 101.083L137.737 101.181L137.832 101.07L137.724 100.972L137.623 101.083ZM105.344 114.574L105.229 114.478L105.136 114.588L105.243 114.685L105.344 114.574ZM109.776 118.582L109.675 118.693L109.791 118.798L109.891 118.679L109.776 118.582ZM125.147 90.9356L125.247 90.8244L125.132 90.7198L125.032 90.8393L125.147 90.9356ZM129.578 94.9439L129.693 95.0403L129.786 94.9296L129.679 94.8327L129.578 94.9439ZM102.5 112.016L102.399 112.127L102.515 112.232L102.615 112.112L102.5 112.016ZM98.0679 108.008L97.9527 107.912L97.8605 108.022L97.9673 108.119L98.0679 108.008ZM122.357 88.1984L122.473 88.2945L122.565 88.1838L122.458 88.0872L122.357 88.1984ZM117.925 84.1901L118.026 84.0788L117.91 83.9741L117.81 84.094L117.925 84.1901ZM112.653 121.061L112.552 121.172L116.984 125.18L117.085 125.069L117.185 124.958L112.753 120.949L112.653 121.061ZM133.191 97.0747L133.078 96.9772L112.539 120.963L112.653 121.061L112.767 121.158L133.305 97.1723L133.191 97.0747ZM137.623 101.083L137.724 100.972L133.292 96.9635L133.191 97.0747L133.091 97.186L137.523 101.194L137.623 101.083ZM117.085 125.069L117.198 125.166L137.737 101.181L137.623 101.083L137.509 100.985L116.971 124.971L117.085 125.069ZM105.344 114.574L105.243 114.685L109.675 118.693L109.776 118.582L109.877 118.471L105.445 114.463L105.344 114.574ZM125.147 90.9356L125.032 90.8393L105.229 114.478L105.344 114.574L105.459 114.67L125.262 91.0319L125.147 90.9356ZM129.578 94.9439L129.679 94.8327L125.247 90.8244L125.147 90.9356L125.046 91.0468L129.478 95.0552L129.578 94.9439ZM109.776 118.582L109.891 118.679L129.693 95.0403L129.578 94.9439L129.463 94.8476L109.661 118.486L109.776 118.582ZM102.5 112.016L102.6 111.905L98.1685 107.897L98.0679 108.008L97.9673 108.119L102.399 112.127L102.5 112.016ZM122.357 88.1984L122.242 88.1024L102.385 111.92L102.5 112.016L102.615 112.112L122.473 88.2945L122.357 88.1984ZM117.925 84.1901L117.825 84.3013L122.257 88.3097L122.357 88.1984L122.458 88.0872L118.026 84.0788L117.925 84.1901ZM98.0679 108.008L98.1831 108.104L118.041 84.2861L117.925 84.1901L117.81 84.094L97.9527 107.912L98.0679 108.008Z" fill="#272727"/>
</g>
</g>
</svg>
