<svg width="150" height="150" viewBox="0 0 150 150" fill="none" xmlns="http://www.w3.org/2000/svg">
<path d="M150 112.583C150 117.003 148.244 121.243 145.118 124.368C141.993 127.494 137.754 129.25 133.333 129.25H16.6667C12.2464 129.25 8.00716 127.494 4.88155 124.368C1.75595 121.243 0 117.003 0 112.583V37.5832C0 33.1629 1.75595 28.9237 4.88155 25.7981C8.00716 22.6725 12.2464 20.9165 16.6667 20.9165H133.333C137.754 20.9165 141.993 22.6725 145.118 25.7981C148.244 28.9237 150 33.1629 150 37.5832V112.583Z" fill="#EEEEEE"/>
<path d="M2.69167 121.667H147.308C148.783 119.4 149.725 116.75 149.95 113.904H0.05C0.275 116.754 1.21667 119.404 2.69167 121.667ZM150 98.404V106.167H0V98.404H150ZM150 90.6665V82.904H0V90.6665H150ZM0 67.404V75.1665H150V67.404H0ZM150 59.6665V51.904H0V59.6665H150ZM0 37.5832V44.1665H150V37.5832C150 37.1859 149.986 36.7929 149.958 36.404H0.0416667C0.0138889 36.7929 0 37.1859 0 37.5832ZM16.6667 20.9165C10.7417 20.9165 5.54167 24.0082 2.58333 28.6665H147.417C145.913 26.292 143.833 24.3364 141.371 22.9814C138.909 21.6264 136.144 20.9161 133.333 20.9165H16.6667Z" fill="#DD2E44"/>
<path d="M75 20.9165H16.6667C12.2464 20.9165 8.00716 22.6725 4.88155 25.7981C1.75595 28.9237 0 33.1629 0 37.5832L0 82.9165H75V20.9165Z" fill="#010066"/>
<path d="M39.7254 73.7207C34.0164 73.6096 28.5786 71.2639 24.5803 67.1873C20.5819 63.1108 18.3418 57.6287 18.3413 51.9185C18.3407 46.2084 20.5797 40.7259 24.5773 36.6486C28.575 32.5713 34.0122 30.2245 39.7212 30.1123C42.7004 30.1123 45.5421 30.7207 48.1296 31.7998C43.8492 28.627 38.6619 26.9149 33.3337 26.9165C26.7033 26.9165 20.3445 29.5504 15.6561 34.2388C10.9677 38.9272 8.33374 45.2861 8.33374 51.9165C8.33374 58.5469 10.9677 64.9058 15.6561 69.5942C20.3445 74.2826 26.7033 76.9165 33.3337 76.9165C38.6619 76.9181 43.8492 75.2061 48.1296 72.0332C45.4685 73.1497 42.6112 73.7235 39.7254 73.7207Z" fill="#FFCC4D"/>
<path d="M53.8414 38.7056L55.2331 45.4556L59.4122 39.9764L57.7372 46.6597L63.8831 43.5389L59.4706 48.8347L66.3622 48.6889L60.0914 51.5472L66.3622 54.4056L59.4706 54.2597L63.8831 59.5556L57.7372 56.4347L59.4122 63.1222L55.2331 57.6389L53.8414 64.3931L52.4497 57.6389L48.2706 63.1222L49.9456 56.4347L43.7997 59.5556L48.2081 54.2597L41.3206 54.4056L47.5914 51.5472L41.3206 48.6889L48.2081 48.8347L43.7997 43.5389L49.9456 46.6597L48.2706 39.9764L52.4497 45.4556L53.8414 38.7056Z" fill="#FFCC4D"/>
</svg>
