<svg width="150" height="150" viewBox="0 0 150 150" fill="none" xmlns="http://www.w3.org/2000/svg">
<mask id="mask0_8245_15111" style="mask-type:alpha" maskUnits="userSpaceOnUse" x="0" y="21" width="150" height="109">
<path d="M150 112.667C150 117.087 148.244 121.326 145.118 124.452C141.993 127.578 137.754 129.334 133.333 129.334H100V21.0002H133.333C137.754 21.0002 141.993 22.7561 145.118 25.8817C148.244 29.0073 150 33.2466 150 37.6668V112.667Z" fill="#ED2939"/>
<path d="M16.6667 21C12.2464 21 8.00716 22.7559 4.88155 25.8816C1.75595 29.0072 0 33.2464 0 37.6667V112.667C0 117.087 1.75595 121.326 4.88155 124.452C8.00716 127.577 12.2464 129.333 16.6667 129.333H50V21H16.6667Z" fill="#002495"/>
<path d="M50 21L100 21.0002V129.334L50 129.333V21Z" fill="#EEEEEE"/>
</mask>
<g mask="url(#mask0_8245_15111)">
<path fill-rule="evenodd" clip-rule="evenodd" d="M0 19V131.5H150V19H0Z" fill="#2E42A5"/>
<mask id="mask1_8245_15111" style="mask-type:luminance" maskUnits="userSpaceOnUse" x="0" y="19" width="150" height="113">
<path fill-rule="evenodd" clip-rule="evenodd" d="M0 19V131.5H150V19H0Z" fill="white"/>
</mask>
<g mask="url(#mask1_8245_15111)">
<path d="M0 18.75H150V75H0V18.75Z" fill="#0038A8"/>
<path d="M0 75H150V131.25H0V75Z" fill="#CE1126"/>
<path d="M97.4297 75L0 131.25V18.75" fill="white"/>
<path d="M6.25781 28.6885L9.60938 31.6416L13.5 29.4854L11.7656 33.5869L15.0469 36.6338L10.5938 36.2588L8.69531 40.29L7.6875 35.9541L3.28125 35.3916L7.10156 33.0479L6.25781 28.6885ZM82.1484 69.0713L82.2422 73.5244L86.4609 75.001L82.2422 76.4541L82.1484 80.9072L79.4531 77.3682L75.1875 78.6572L77.7188 75.001L75.1875 71.3447L79.4531 72.6338L82.1484 69.0713ZM8.71875 109.712L10.5938 113.743L15.0469 113.368L11.7891 116.415L13.5234 120.517L9.63281 118.384L6.25781 121.29L7.10156 116.907L3.28125 114.61L7.71094 114.048L8.71875 109.712ZM35.4844 51.3525L34.0313 52.8057L34.7578 63.8213L34.0547 63.8916L32.7188 53.8369L31.5234 55.0088L33.3047 64.0088C31.8653 64.2952 30.4958 64.8605 29.2734 65.6729L24.1875 58.0791H22.5L28.6875 66.1182L28.125 66.5869L20.8359 58.2666H18.7734V60.3291L27.0703 67.5947L26.6016 68.1807L18.5625 62.0166V63.6807L26.1797 68.7666C25.3672 69.9854 24.8125 71.3291 24.5156 72.7979L15.5391 71.0166L14.3438 72.1885L24.3984 73.5244C24.3516 73.7744 24.3281 74.0166 24.3281 74.251L13.3125 73.5479L11.8594 75.001L13.3125 76.4541L24.3281 75.7275L24.3984 76.4541L14.3438 77.79L15.5156 78.9619L24.5156 77.1807C24.8021 78.6201 25.3674 79.9896 26.1797 81.2119L18.5625 86.2979V87.9854L26.6016 81.8213L27.0703 82.3838L18.7734 89.6494V91.7119H20.8594L28.125 83.415L28.7109 83.8838L22.5 91.9229H24.1875L29.2734 84.3057C30.4922 85.1182 31.8359 85.6729 33.3047 85.9697L31.5234 94.9697L32.6953 96.1416L34.0313 86.0869C34.2656 86.1338 34.5078 86.1572 34.7578 86.1572L34.0547 97.1729L35.4844 98.626L36.9609 97.1729L36.2344 86.1572L36.9375 86.0869L38.2734 96.165L39.4688 94.9697L37.6875 85.9697C39.1269 85.6833 40.4964 85.118 41.7188 84.3057L46.8047 91.9229H48.4922L42.3047 83.8838L42.8672 83.415L50.1563 91.7119H52.2188V89.6494L43.9219 82.3838L44.3906 81.8213L52.4297 87.9854V86.2979L44.8125 81.2119C45.625 79.9932 46.1797 78.6494 46.4766 77.1807L55.4531 78.9619L56.6484 77.79L46.5938 76.4541C46.6406 76.2197 46.6641 75.9775 46.6641 75.7275L57.6797 76.4307L59.1328 75.001L57.6797 73.5479L46.6641 74.251L46.5938 73.5479L56.6484 72.2119L55.4766 71.04L46.4766 72.7979C46.1901 71.3584 45.6248 69.9889 44.8125 68.7666L52.4297 63.6807V62.0166L44.3906 68.1807L43.9219 67.6182L52.2188 60.3525V58.2666H50.1563L42.8906 66.5869L42.3047 66.1182L48.4922 58.0791H46.8047L41.7188 65.6729C40.5 64.8604 39.1563 64.3057 37.6875 64.0088L39.4688 55.0322L38.2969 53.8604L36.9609 63.8916L36.2344 63.8213L36.9375 52.8057L35.4844 51.3525Z" fill="#FCD116"/>
</g>
</g>
</svg>
