<svg width="150" height="150" viewBox="0 0 150 150" fill="none" xmlns="http://www.w3.org/2000/svg">
<path d="M150 112.667C150 117.087 148.244 121.326 145.118 124.452C141.993 127.577 137.754 129.333 133.333 129.333H16.6667C12.2464 129.333 8.00716 127.577 4.88155 124.452C1.75595 121.326 0 117.087 0 112.667V37.6667C0 33.2464 1.75595 29.0072 4.88155 25.8816C8.00716 22.7559 12.2464 21 16.6667 21H133.333C137.754 21 141.993 22.7559 145.118 25.8816C148.244 29.0072 150 33.2464 150 37.6667V112.667Z" fill="#E30917"/>
<path d="M66.6661 97.3753C60.0357 97.3753 53.6769 94.7414 48.9885 90.053C44.3001 85.3646 41.6661 79.0057 41.6661 72.3753C41.6661 65.7449 44.3001 59.386 48.9885 54.6976C53.6769 50.0092 60.0357 47.3753 66.6661 47.3753C72.1245 47.3753 77.1661 49.1461 81.2786 52.117C78.4117 48.855 74.8821 46.242 70.9253 44.4522C66.9685 42.6624 62.6756 41.737 58.3328 41.7378C50.2072 41.7378 42.4145 44.9657 36.6688 50.7113C30.9232 56.457 27.6953 64.2497 27.6953 72.3753C27.6948 76.399 28.4868 80.3834 30.0263 84.101C31.5657 87.8186 33.8223 91.1966 36.6674 94.042C39.5124 96.8874 42.89 99.1445 46.6074 100.684C50.3248 102.224 54.3091 103.017 58.3328 103.017C67.4786 103.017 75.6661 98.9878 81.2786 92.6336C77.0314 95.7189 71.9157 97.3789 66.6661 97.3753ZM82.9703 73.3336L93.137 75.6753L94.0536 86.0628L99.4203 77.1211L109.587 79.4586L102.737 71.592L108.099 62.6461L98.5036 66.7295L91.6536 58.8586L92.5703 69.2503L82.9703 73.3336Z" fill="#EEEEEE"/>
</svg>
