<svg width="150" height="150" viewBox="0 0 150 150" fill="none" xmlns="http://www.w3.org/2000/svg">
<path d="M133.333 21H37.5V129.333H133.333C137.754 129.333 141.993 127.577 145.118 124.452C148.244 121.326 150 117.087 150 112.667V37.6667C150 33.2464 148.244 29.0072 145.118 25.8816C141.993 22.7559 137.754 21 133.333 21ZM93.75 106.3C85.462 106.3 77.5134 103.008 71.6529 97.1471C65.7924 91.2866 62.5 83.338 62.5 75.05C62.5 59.55 73.7958 46.7208 88.5958 44.2583C82.9991 46.8517 78.456 51.2789 75.719 56.8069C72.982 62.3348 72.2153 68.6318 73.5458 74.6551C74.8764 80.6783 78.2243 86.0663 83.0353 89.9269C87.8463 93.7875 93.8316 95.889 100 95.8833C105.159 95.8788 110.21 94.4008 114.558 91.6231C118.905 88.8455 122.369 84.8838 124.542 80.2042C122.079 95.0083 109.25 106.3 93.75 106.3ZM115.042 62.8667L109.987 71.2917L109.121 61.5042L99.5458 59.3042L108.588 55.4542L107.725 45.6667L114.175 53.0792L123.217 49.2292L118.167 57.6583L124.617 65.0708L115.042 62.8667Z" fill="#004600"/>
<path d="M16.6667 21C12.2464 21 8.00716 22.7559 4.88155 25.8816C1.75595 29.0072 0 33.2464 0 37.6667L0 112.667C0 117.087 1.75595 121.326 4.88155 124.452C8.00716 127.577 12.2464 129.333 16.6667 129.333H37.5V21H16.6667Z" fill="#EEEEEE"/>
<path d="M123.217 49.23L114.175 53.08L107.725 45.6675L108.588 55.455L99.5461 59.305L109.121 61.505L109.988 71.2925L115.042 62.8675L124.617 65.0716L118.167 57.6591L123.217 49.23Z" fill="white"/>
<path d="M100 95.8843C93.8316 95.8899 87.8463 93.7884 83.0353 89.9278C78.2243 86.0673 74.8764 80.6792 73.5458 74.656C72.2153 68.6328 72.982 62.3358 75.719 56.8078C78.456 51.2799 82.9991 46.8526 88.5958 44.2593C73.7958 46.7259 62.5 59.5551 62.5 75.0509C62.5 83.339 65.7924 91.2875 71.6529 97.148C77.5134 103.009 85.462 106.301 93.75 106.301C109.25 106.301 122.079 95.0051 124.542 80.2051C122.373 84.8878 118.91 88.8524 114.562 91.6306C110.213 94.4089 105.16 95.8849 100 95.8843Z" fill="white"/>
</svg>
