<svg width="150" height="150" viewBox="0 0 150 150" fill="none" xmlns="http://www.w3.org/2000/svg">
<path d="M133.333 21H70.8333V75.1667H0V112.667C0 117.087 1.75595 121.326 4.88155 124.452C8.00716 127.577 12.2464 129.333 16.6667 129.333H133.333C137.754 129.333 141.993 127.577 145.118 124.452C148.244 121.326 150 117.087 150 112.667V37.6667C150 33.2464 148.244 29.0072 145.118 25.8816C141.993 22.7559 137.754 21 133.333 21Z" fill="#FE0000"/>
<path d="M70.8333 21H16.6667C12.2464 21 8.00716 22.7559 4.88155 25.8816C1.75595 29.0072 0 33.2464 0 37.6667L0 75.1667H70.8333V21ZM45.5708 40.2083L54.05 37.925L47.8375 44.1208C47.3349 42.6857 46.5659 41.3583 45.5708 40.2083ZM46.6167 48.0833C46.6167 49.4173 46.3539 50.7383 45.8434 51.9708C45.3329 53.2032 44.5847 54.3231 43.6414 55.2664C42.6981 56.2097 41.5782 56.9579 40.3458 57.4684C39.1133 57.9789 37.7923 58.2417 36.4583 58.2417C35.1243 58.2417 33.8034 57.9789 32.5709 57.4684C31.3384 56.9579 30.2186 56.2097 29.2753 55.2664C28.332 54.3231 27.5838 53.2032 27.0733 51.9708C26.5628 50.7383 26.3 49.4173 26.3 48.0833C26.3 45.3892 27.3703 42.8054 29.2753 40.9003C31.1804 38.9953 33.7642 37.925 36.4583 37.925C39.1525 37.925 41.7363 38.9953 43.6414 40.9003C45.5464 42.8054 46.6167 45.3892 46.6167 48.0833ZM46.6167 30.4917L44.3333 38.9708C43.1834 37.9758 41.856 37.2068 40.4208 36.7042L46.6167 30.4917ZM36.4583 27.7708L38.7167 36.2458C37.9833 36.1069 37.2306 36.0347 36.4583 36.0292C35.3 36.0208 34.9292 36.1083 34.2 36.2458L36.4583 27.7708ZM32.4958 36.7042C31.0607 37.2068 29.7333 37.9758 28.5833 38.9708L26.3 30.4917L32.4958 36.7042ZM27.3458 40.2083C26.3508 41.3583 25.5818 42.6857 25.0792 44.1208L18.8667 37.925L27.3458 40.2083ZM24.6208 45.825C24.337 47.3172 24.337 48.8495 24.6208 50.3417L16.1458 48.0833L24.6208 45.825ZM25.0792 52.0417C25.5833 53.4917 26.3625 54.8167 27.3458 55.9542L18.8667 58.2375L25.0792 52.0417ZM26.3 65.675L28.5833 57.1958C29.7208 58.1792 31.0458 58.9583 32.4958 59.4625L26.3 65.675ZM36.4583 68.3958L34.2 59.9208C35.6922 60.2047 37.2245 60.2047 38.7167 59.9208L36.4583 68.3958ZM40.4208 59.4625C41.8708 58.9583 43.1958 58.1792 44.3333 57.1958L46.6167 65.675L40.4208 59.4625ZM45.5708 55.9583C46.5583 54.8208 47.3333 53.4958 47.8375 52.0458L54.05 58.2417L45.5708 55.9583ZM48.2958 50.3417C48.5797 48.8495 48.5797 47.3172 48.2958 45.825L56.7708 48.0833L48.2958 50.3417Z" fill="#000095"/>
<path d="M38.7168 36.2465L36.4585 27.7715L34.2002 36.2465C34.9335 36.1076 35.6863 36.0354 36.4585 36.0298C37.6168 36.0215 37.9877 36.109 38.7168 36.2465ZM24.4043 48.084C24.4043 47.3118 24.4766 46.559 24.621 45.8257L16.146 48.084L24.621 50.3423C24.4805 49.5977 24.4079 48.8418 24.4043 48.084ZM34.2002 59.9215L36.4585 68.3965L38.7168 59.9215C37.2247 60.2054 35.6923 60.2054 34.2002 59.9215ZM48.5127 48.084C48.5127 48.8562 48.4404 49.609 48.296 50.3423L56.771 48.084L48.296 45.8257C48.4349 46.559 48.5071 47.3118 48.5127 48.084ZM46.6168 30.4923L40.421 36.7048C41.871 37.2132 43.196 37.9881 44.3335 38.9715L46.6168 30.4923ZM45.571 55.959L54.0502 58.2423L47.8377 52.0465C47.335 53.4817 46.566 54.8091 45.571 55.959ZM26.3002 65.6757L32.496 59.4631C31.0608 58.9605 29.7334 58.1915 28.5835 57.1965L26.3002 65.6757ZM27.346 40.209L18.8668 37.9257L25.0793 44.1215C25.5835 42.6715 26.3585 41.3506 27.346 40.209ZM40.421 59.4631L46.6168 65.6757L44.3335 57.1965C43.1836 58.1915 41.8562 58.9605 40.421 59.4631ZM25.0793 52.0423L18.8668 58.2382L27.346 55.9548C26.351 54.8049 25.582 53.4775 25.0793 52.0423ZM32.496 36.7048L26.3002 30.4923L28.5835 38.9715C29.7252 37.984 31.046 37.209 32.496 36.7048ZM54.0502 37.9257L45.571 40.209C46.5585 41.3465 47.3335 42.6715 47.8377 44.1215L54.0502 37.9257Z" fill="white"/>
<path d="M36.4584 58.2415C42.0687 58.2415 46.6167 53.6934 46.6167 48.0831C46.6167 42.4728 42.0687 37.9248 36.4584 37.9248C30.8481 37.9248 26.3 42.4728 26.3 48.0831C26.3 53.6934 30.8481 58.2415 36.4584 58.2415Z" fill="white"/>
</svg>
