<svg width="145" height="44" viewBox="0 0 145 44" fill="none" xmlns="http://www.w3.org/2000/svg">
<rect width="145" height="43.349" rx="5.28646" fill="black"/>
<path d="M49.0248 7.759C49.7286 7.759 50.3367 7.89173 50.8491 8.15719C51.3677 8.41648 51.7628 8.78997 52.0344 9.27768C52.3122 9.76538 52.4511 10.3395 52.4511 11.0001C52.4511 11.6606 52.3122 12.2348 52.0344 12.7225C51.7628 13.204 51.3677 13.5744 50.8491 13.8337C50.3367 14.0868 49.7286 14.2134 49.0248 14.2134H47.0154V7.759H49.0248ZM49.0248 13.5189C49.8583 13.5189 50.4941 13.2997 50.9325 12.8614C51.3708 12.4169 51.5899 11.7965 51.5899 11.0001C51.5899 10.1975 51.3677 9.57092 50.9232 9.12025C50.4849 8.66959 49.8521 8.44426 49.0248 8.44426H47.8581V13.5189H49.0248ZM55.7758 14.2967C55.3005 14.2967 54.8683 14.1887 54.4794 13.9726C54.0967 13.7565 53.7942 13.451 53.5719 13.0559C53.3558 12.6546 53.2478 12.1916 53.2478 11.6668C53.2478 11.1482 53.3589 10.6914 53.5812 10.2963C53.8096 9.89503 54.1183 9.58944 54.5072 9.37954C54.8961 9.16347 55.3313 9.05543 55.8129 9.05543C56.2944 9.05543 56.7296 9.16347 57.1186 9.37954C57.5075 9.58944 57.8131 9.89194 58.0353 10.287C58.2638 10.6821 58.378 11.1421 58.378 11.6668C58.378 12.1916 58.2607 12.6546 58.0261 13.0559C57.7977 13.451 57.4859 13.7565 57.0908 13.9726C56.6957 14.1887 56.2574 14.2967 55.7758 14.2967ZM55.7758 13.5559C56.0783 13.5559 56.3623 13.4849 56.6278 13.3429C56.8932 13.2009 57.1062 12.9879 57.2667 12.704C57.4334 12.42 57.5168 12.0743 57.5168 11.6668C57.5168 11.2594 57.4365 10.9137 57.276 10.6297C57.1155 10.3457 56.9056 10.1358 56.6463 9.99998C56.387 9.85799 56.1061 9.78699 55.8036 9.78699C55.4949 9.78699 55.211 9.85799 54.9517 9.99998C54.6986 10.1358 54.4948 10.3457 54.3405 10.6297C54.1862 10.9137 54.109 11.2594 54.109 11.6668C54.109 12.0804 54.1831 12.4292 54.3312 12.7132C54.4856 12.9972 54.6893 13.2102 54.9424 13.3522C55.1955 13.488 55.4733 13.5559 55.7758 13.5559ZM66.2459 9.13877L64.6624 14.2134H63.7919L62.5696 10.1852L61.3472 14.2134H60.4768L58.884 9.13877H59.7452L60.912 13.3985L62.1714 9.13877H63.0326L64.2642 13.4077L65.4125 9.13877H66.2459ZM69.5547 9.04617C70.172 9.04617 70.6721 9.23446 71.0549 9.61105C71.4376 9.98146 71.629 10.5185 71.629 11.2223V14.2134H70.7956V11.3427C70.7956 10.8365 70.669 10.4506 70.4159 10.1852C70.1628 9.91355 69.8171 9.77773 69.3788 9.77773C68.9343 9.77773 68.5793 9.91663 68.3138 10.1944C68.0545 10.4722 67.9249 10.8766 67.9249 11.4075V14.2134H67.0822V9.13877H67.9249V9.86107C68.0916 9.60179 68.3169 9.40115 68.6009 9.25916C68.891 9.11717 69.209 9.04617 69.5547 9.04617ZM73.8482 7.36081V14.2134H73.0055V7.36081H73.8482ZM77.4976 14.2967C77.0222 14.2967 76.5901 14.1887 76.2012 13.9726C75.8184 13.7565 75.5159 13.451 75.2936 13.0559C75.0776 12.6546 74.9695 12.1916 74.9695 11.6668C74.9695 11.1482 75.0807 10.6914 75.3029 10.2963C75.5313 9.89503 75.84 9.58944 76.2289 9.37954C76.6179 9.16347 77.0531 9.05543 77.5346 9.05543C78.0162 9.05543 78.4514 9.16347 78.8403 9.37954C79.2292 9.58944 79.5348 9.89194 79.7571 10.287C79.9855 10.6821 80.0997 11.1421 80.0997 11.6668C80.0997 12.1916 79.9824 12.6546 79.7478 13.0559C79.5194 13.451 79.2076 13.7565 78.8125 13.9726C78.4174 14.1887 77.9791 14.2967 77.4976 14.2967ZM77.4976 13.5559C77.8001 13.5559 78.0841 13.4849 78.3495 13.3429C78.615 13.2009 78.828 12.9879 78.9885 12.704C79.1552 12.42 79.2385 12.0743 79.2385 11.6668C79.2385 11.2594 79.1582 10.9137 78.9977 10.6297C78.8372 10.3457 78.6273 10.1358 78.368 9.99998C78.1088 9.85799 77.8279 9.78699 77.5254 9.78699C77.2167 9.78699 76.9327 9.85799 76.6734 9.99998C76.4203 10.1358 76.2166 10.3457 76.0622 10.6297C75.9079 10.9137 75.8307 11.2594 75.8307 11.6668C75.8307 12.0804 75.9048 12.4292 76.053 12.7132C76.2073 12.9972 76.411 13.2102 76.6642 13.3522C76.9173 13.488 77.1951 13.5559 77.4976 13.5559ZM80.8928 11.6576C80.8928 11.139 80.9978 10.6852 81.2077 10.2963C81.4176 9.9012 81.7046 9.59561 82.0689 9.37954C82.4393 9.16347 82.8498 9.05543 83.3005 9.05543C83.745 9.05543 84.1308 9.15112 84.458 9.3425C84.7852 9.53388 85.0291 9.77464 85.1896 10.0648V9.13877H86.0415V14.2134H85.1896V13.2688C85.0229 13.5652 84.7729 13.8121 84.4395 14.0097C84.1123 14.201 83.7295 14.2967 83.2912 14.2967C82.8406 14.2967 82.4331 14.1856 82.0689 13.9634C81.7046 13.7411 81.4176 13.4293 81.2077 13.0281C80.9978 12.6268 80.8928 12.17 80.8928 11.6576ZM85.1896 11.6668C85.1896 11.2841 85.1124 10.9507 84.9581 10.6667C84.8037 10.3827 84.5938 10.1667 84.3284 10.0185C84.0691 9.86416 83.782 9.78699 83.4672 9.78699C83.1523 9.78699 82.8653 9.86107 82.606 10.0092C82.3467 10.1574 82.1399 10.3735 81.9855 10.6575C81.8312 10.9414 81.754 11.2748 81.754 11.6576C81.754 12.0465 81.8312 12.386 81.9855 12.6762C82.1399 12.9602 82.3467 13.1793 82.606 13.3337C82.8653 13.4818 83.1523 13.5559 83.4672 13.5559C83.782 13.5559 84.0691 13.4818 84.3284 13.3337C84.5938 13.1793 84.8037 12.9602 84.9581 12.6762C85.1124 12.386 85.1896 12.0496 85.1896 11.6668ZM87.1507 11.6576C87.1507 11.139 87.2557 10.6852 87.4656 10.2963C87.6755 9.9012 87.9625 9.59561 88.3268 9.37954C88.6972 9.16347 89.1108 9.05543 89.5676 9.05543C89.9627 9.05543 90.3301 9.14803 90.6696 9.33324C91.0091 9.51227 91.2684 9.74995 91.4475 10.0463V7.36081H92.2994V14.2134H91.4475V13.2596C91.2808 13.5621 91.0338 13.8121 90.7066 14.0097C90.3795 14.201 89.9967 14.2967 89.5584 14.2967C89.1077 14.2967 88.6972 14.1856 88.3268 13.9634C87.9625 13.7411 87.6755 13.4293 87.4656 13.0281C87.2557 12.6268 87.1507 12.17 87.1507 11.6576ZM91.4475 11.6668C91.4475 11.2841 91.3703 10.9507 91.216 10.6667C91.0616 10.3827 90.8517 10.1667 90.5863 10.0185C90.327 9.86416 90.0399 9.78699 89.7251 9.78699C89.4102 9.78699 89.1231 9.86107 88.8639 10.0092C88.6046 10.1574 88.3978 10.3735 88.2434 10.6575C88.0891 10.9414 88.0119 11.2748 88.0119 11.6576C88.0119 12.0465 88.0891 12.386 88.2434 12.6762C88.3978 12.9602 88.6046 13.1793 88.8639 13.3337C89.1231 13.4818 89.4102 13.5559 89.7251 13.5559C90.0399 13.5559 90.327 13.4818 90.5863 13.3337C90.8517 13.1793 91.0616 12.9602 91.216 12.6762C91.3703 12.386 91.4475 12.0496 91.4475 11.6668ZM98.4054 14.2967C97.9301 14.2967 97.4979 14.1887 97.109 13.9726C96.7263 13.7565 96.4237 13.451 96.2015 13.0559C95.9854 12.6546 95.8774 12.1916 95.8774 11.6668C95.8774 11.1482 95.9885 10.6914 96.2108 10.2963C96.4392 9.89503 96.7479 9.58944 97.1368 9.37954C97.5257 9.16347 97.9609 9.05543 98.4425 9.05543C98.924 9.05543 99.3592 9.16347 99.7482 9.37954C100.137 9.58944 100.443 9.89194 100.665 10.287C100.893 10.6821 101.008 11.1421 101.008 11.6668C101.008 12.1916 100.89 12.6546 100.656 13.0559C100.427 13.451 100.115 13.7565 99.7204 13.9726C99.3253 14.1887 98.887 14.2967 98.4054 14.2967ZM98.4054 13.5559C98.7079 13.5559 98.9919 13.4849 99.2574 13.3429C99.5228 13.2009 99.7358 12.9879 99.8963 12.704C100.063 12.42 100.146 12.0743 100.146 11.6668C100.146 11.2594 100.066 10.9137 99.9056 10.6297C99.7451 10.3457 99.5352 10.1358 99.2759 9.99998C99.0166 9.85799 98.7357 9.78699 98.4332 9.78699C98.1245 9.78699 97.8406 9.85799 97.5813 9.99998C97.3282 10.1358 97.1244 10.3457 96.9701 10.6297C96.8158 10.9137 96.7386 11.2594 96.7386 11.6668C96.7386 12.0804 96.8127 12.4292 96.9608 12.7132C97.1152 12.9972 97.3189 13.2102 97.572 13.3522C97.8251 13.488 98.1029 13.5559 98.4054 13.5559ZM104.588 9.04617C105.205 9.04617 105.705 9.23446 106.088 9.61105C106.471 9.98146 106.662 10.5185 106.662 11.2223V14.2134H105.829V11.3427C105.829 10.8365 105.702 10.4506 105.449 10.1852C105.196 9.91355 104.85 9.77773 104.412 9.77773C103.968 9.77773 103.613 9.91663 103.347 10.1944C103.088 10.4722 102.958 10.8766 102.958 11.4075V14.2134H102.116V9.13877H102.958V9.86107C103.125 9.60179 103.35 9.40115 103.634 9.25916C103.924 9.11717 104.242 9.04617 104.588 9.04617ZM111.536 9.83329V12.8243C111.536 13.0713 111.588 13.2472 111.693 13.3522C111.798 13.451 111.98 13.5003 112.239 13.5003H112.86V14.2134H112.1C111.631 14.2134 111.279 14.1053 111.045 13.8893C110.81 13.6732 110.693 13.3182 110.693 12.8243V9.83329H110.035V9.13877H110.693V7.86086H111.536V9.13877H112.86V9.83329H111.536ZM116.4 9.04617C116.782 9.04617 117.128 9.12951 117.437 9.2962C117.745 9.45671 117.986 9.70056 118.159 10.0278C118.338 10.355 118.427 10.7531 118.427 11.2223V14.2134H117.594V11.3427C117.594 10.8365 117.468 10.4506 117.214 10.1852C116.961 9.91355 116.616 9.77773 116.177 9.77773C115.733 9.77773 115.378 9.91663 115.112 10.1944C114.853 10.4722 114.723 10.8766 114.723 11.4075V14.2134H113.881V7.36081H114.723V9.86107C114.89 9.60179 115.119 9.40115 115.409 9.25916C115.705 9.11717 116.035 9.04617 116.4 9.04617ZM124.434 11.4816C124.434 11.6421 124.425 11.8119 124.406 11.9909H120.35C120.381 12.491 120.551 12.883 120.86 13.167C121.175 13.4448 121.554 13.5837 121.999 13.5837C122.363 13.5837 122.665 13.5003 122.906 13.3337C123.153 13.1608 123.326 12.9324 123.425 12.6484H124.332C124.196 13.1361 123.925 13.5343 123.517 13.843C123.11 14.1455 122.604 14.2967 121.999 14.2967C121.517 14.2967 121.085 14.1887 120.702 13.9726C120.326 13.7565 120.029 13.451 119.813 13.0559C119.597 12.6546 119.489 12.1916 119.489 11.6668C119.489 11.1421 119.594 10.6821 119.804 10.287C120.014 9.89194 120.307 9.58944 120.684 9.37954C121.066 9.16347 121.505 9.05543 121.999 9.05543C122.48 9.05543 122.906 9.16038 123.277 9.37028C123.647 9.58018 123.931 9.87033 124.129 10.2407C124.332 10.605 124.434 11.0186 124.434 11.4816ZM123.564 11.3057C123.564 10.9846 123.493 10.7099 123.351 10.4815C123.209 10.2469 123.014 10.071 122.767 9.95367C122.527 9.8302 122.258 9.76847 121.962 9.76847C121.536 9.76847 121.171 9.90429 120.869 10.1759C120.573 10.4476 120.403 10.8241 120.36 11.3057H123.564Z" fill="white"/>
<path d="M54.3704 30.2223H49.8948L49.1258 32.4062H47.2957L51.1252 21.7019H53.1554L56.9849 32.4062H55.1394L54.3704 30.2223ZM53.8782 28.792L52.1403 23.8243L50.387 28.792H53.8782ZM60.4033 25.1777C60.7007 24.7881 61.1057 24.46 61.6183 24.1934C62.131 23.9269 62.7103 23.7936 63.3563 23.7936C64.0945 23.7936 64.7661 23.9781 65.371 24.3472C65.9862 24.7061 66.4681 25.2136 66.8167 25.8698C67.1653 26.526 67.3396 27.2796 67.3396 28.1307C67.3396 28.9817 67.1653 29.7455 66.8167 30.4223C66.4681 31.0887 65.9862 31.6116 65.371 31.991C64.7661 32.3601 64.0945 32.5447 63.3563 32.5447C62.7103 32.5447 62.1361 32.4165 61.6337 32.1602C61.1313 31.8936 60.7212 31.5655 60.4033 31.1759V36.4358H58.65V23.932H60.4033V25.1777ZM65.5556 28.1307C65.5556 27.5462 65.4325 27.0438 65.1864 26.6234C64.9506 26.1928 64.6328 25.8698 64.2329 25.6545C63.8433 25.4289 63.4229 25.3162 62.9718 25.3162C62.5309 25.3162 62.1105 25.4289 61.7106 25.6545C61.321 25.8801 61.0031 26.2082 60.7571 26.6388C60.5212 27.0695 60.4033 27.577 60.4033 28.1614C60.4033 28.7459 60.5212 29.2585 60.7571 29.6994C61.0031 30.13 61.321 30.4581 61.7106 30.6837C62.1105 30.9093 62.5309 31.0221 62.9718 31.0221C63.4229 31.0221 63.8433 30.9093 64.2329 30.6837C64.6328 30.4479 64.9506 30.1095 65.1864 29.6686C65.4325 29.2278 65.5556 28.7151 65.5556 28.1307ZM70.8268 25.1777C71.1241 24.7881 71.5291 24.46 72.0418 24.1934C72.5544 23.9269 73.1337 23.7936 73.7797 23.7936C74.5179 23.7936 75.1895 23.9781 75.7944 24.3472C76.4096 24.7061 76.8915 25.2136 77.2401 25.8698C77.5887 26.526 77.763 27.2796 77.763 28.1307C77.763 28.9817 77.5887 29.7455 77.2401 30.4223C76.8915 31.0887 76.4096 31.6116 75.7944 31.991C75.1895 32.3601 74.5179 32.5447 73.7797 32.5447C73.1337 32.5447 72.5595 32.4165 72.0571 32.1602C71.5547 31.8936 71.1446 31.5655 70.8268 31.1759V36.4358H69.0735V23.932H70.8268V25.1777ZM75.979 28.1307C75.979 27.5462 75.8559 27.0438 75.6099 26.6234C75.374 26.1928 75.0562 25.8698 74.6563 25.6545C74.2667 25.4289 73.8463 25.3162 73.3952 25.3162C72.9543 25.3162 72.5339 25.4289 72.134 25.6545C71.7444 25.8801 71.4266 26.2082 71.1805 26.6388C70.9447 27.0695 70.8268 27.577 70.8268 28.1614C70.8268 28.7459 70.9447 29.2585 71.1805 29.6994C71.4266 30.13 71.7444 30.4581 72.134 30.6837C72.5339 30.9093 72.9543 31.0221 73.3952 31.0221C73.8463 31.0221 74.2667 30.9093 74.6563 30.6837C75.0562 30.4479 75.374 30.1095 75.6099 29.6686C75.8559 29.2278 75.979 28.7151 75.979 28.1307ZM87.014 32.5139C86.2963 32.5139 85.6503 32.3909 85.0761 32.1448C84.502 31.8885 84.0508 31.5296 83.7227 31.0682C83.3946 30.6068 83.2306 30.0685 83.2306 29.4533H85.1069C85.1479 29.9147 85.3273 30.2941 85.6452 30.5914C85.9733 30.8888 86.4296 31.0374 87.014 31.0374C87.6189 31.0374 88.0906 30.8939 88.4289 30.6068C88.7673 30.3095 88.9365 29.9301 88.9365 29.4687C88.9365 29.1098 88.8288 28.8176 88.6135 28.5921C88.4084 28.3665 88.147 28.1922 87.8291 28.0691C87.5215 27.9461 87.0909 27.8128 86.5372 27.6693C85.84 27.4847 85.2709 27.3002 84.8301 27.1156C84.3994 26.9208 84.0303 26.6234 83.7227 26.2236C83.4151 25.8237 83.2613 25.2905 83.2613 24.6241C83.2613 24.0089 83.4151 23.4706 83.7227 23.0092C84.0303 22.5478 84.4609 22.1941 85.0146 21.948C85.5683 21.7019 86.2091 21.5789 86.9371 21.5789C87.9727 21.5789 88.8186 21.8403 89.4748 22.3632C90.1412 22.8759 90.5103 23.5834 90.5821 24.4857H88.6443C88.6135 24.096 88.4289 23.7628 88.0906 23.486C87.7522 23.2091 87.3062 23.0707 86.7525 23.0707C86.2501 23.0707 85.84 23.1989 85.5222 23.4552C85.2043 23.7115 85.0454 24.0806 85.0454 24.5626C85.0454 24.8907 85.1428 25.1624 85.3376 25.3777C85.5427 25.5827 85.799 25.7468 86.1066 25.8698C86.4142 25.9929 86.8346 26.1262 87.3677 26.2697C88.0752 26.4645 88.6494 26.6593 89.0903 26.8541C89.5414 27.049 89.9208 27.3514 90.2284 27.7615C90.5462 28.1614 90.7051 28.6997 90.7051 29.3764C90.7051 29.9198 90.5565 30.4325 90.2591 30.9144C89.972 31.3963 89.5465 31.7859 88.9826 32.0833C88.4289 32.3704 87.7727 32.5139 87.014 32.5139ZM94.8195 25.3623V30.0531C94.8195 30.371 94.8913 30.6017 95.0348 30.7452C95.1886 30.8785 95.4449 30.9452 95.8038 30.9452H96.8804V32.4062H95.4962C94.7067 32.4062 94.1018 32.2217 93.6814 31.8526C93.261 31.4835 93.0508 30.8836 93.0508 30.0531V25.3623H92.0511V23.932H93.0508V21.8249H94.8195V23.932H96.8804V25.3623H94.8195ZM102.172 32.5447C101.372 32.5447 100.65 32.3652 100.004 32.0064C99.3576 31.6373 98.8501 31.1246 98.481 30.4684C98.1118 29.8019 97.9273 29.0329 97.9273 28.1614C97.9273 27.3002 98.117 26.5363 98.4963 25.8698C98.8757 25.2034 99.3935 24.6907 100.05 24.3319C100.706 23.973 101.439 23.7936 102.249 23.7936C103.059 23.7936 103.792 23.973 104.448 24.3319C105.105 24.6907 105.622 25.2034 106.002 25.8698C106.381 26.5363 106.571 27.3002 106.571 28.1614C106.571 29.0227 106.376 29.7866 105.986 30.453C105.597 31.1195 105.064 31.6373 104.387 32.0064C103.72 32.3652 102.982 32.5447 102.172 32.5447ZM102.172 31.0221C102.623 31.0221 103.044 30.9144 103.433 30.6991C103.833 30.4838 104.156 30.1608 104.402 29.7302C104.648 29.2995 104.771 28.7766 104.771 28.1614C104.771 27.5462 104.653 27.0284 104.418 26.6081C104.182 26.1774 103.869 25.8545 103.479 25.6391C103.09 25.4238 102.669 25.3162 102.218 25.3162C101.767 25.3162 101.347 25.4238 100.957 25.6391C100.578 25.8545 100.275 26.1774 100.05 26.6081C99.8241 27.0284 99.7113 27.5462 99.7113 28.1614C99.7113 29.074 99.942 29.7814 100.403 30.2838C100.875 30.776 101.465 31.0221 102.172 31.0221ZM110.057 25.1624C110.314 24.7317 110.652 24.3985 111.072 24.1627C111.503 23.9166 112.01 23.7936 112.595 23.7936V25.6084H112.149C111.462 25.6084 110.939 25.7827 110.58 26.1313C110.232 26.4799 110.057 27.0848 110.057 27.9461V32.4062H108.304V23.932H110.057V25.1624ZM121.973 27.9615C121.973 28.2793 121.953 28.5664 121.912 28.8228H115.437C115.488 29.4995 115.739 30.0429 116.191 30.453C116.642 30.8631 117.195 31.0682 117.852 31.0682C118.795 31.0682 119.461 30.6735 119.851 29.884H121.743C121.486 30.6632 121.02 31.304 120.343 31.8064C119.677 32.2986 118.846 32.5447 117.852 32.5447C117.042 32.5447 116.314 32.3652 115.668 32.0064C115.032 31.6373 114.53 31.1246 114.16 30.4684C113.802 29.8019 113.622 29.0329 113.622 28.1614C113.622 27.2899 113.796 26.526 114.145 25.8698C114.504 25.2034 115.001 24.6907 115.637 24.3319C116.283 23.973 117.021 23.7936 117.852 23.7936C118.651 23.7936 119.364 23.9679 119.989 24.3165C120.615 24.6651 121.102 25.1572 121.45 25.7929C121.799 26.4184 121.973 27.1412 121.973 27.9615ZM120.143 27.4078C120.133 26.7619 119.902 26.2441 119.451 25.8545C119 25.4648 118.441 25.27 117.775 25.27C117.17 25.27 116.652 25.4648 116.221 25.8545C115.791 26.2338 115.534 26.7516 115.452 27.4078H120.143Z" fill="white"/>
<path d="M32.7224 32.8931C31.239 34.3278 29.6194 34.1013 28.0603 33.4217C26.4103 32.727 24.8966 32.6968 23.1559 33.4217C20.9762 34.358 19.8258 34.0862 18.524 32.8931C11.1371 25.2967 12.227 13.7283 20.6129 13.3055C22.6564 13.4112 24.0792 14.423 25.2751 14.5136C27.0612 14.1512 28.7717 13.1091 30.6789 13.2451C32.9646 13.4263 34.6902 14.3324 35.8255 15.9635C31.1028 18.7876 32.2229 24.9946 36.5521 26.7314C35.6893 28.9967 34.5691 31.2469 32.7073 32.9082L32.7224 32.8931ZM25.1237 13.2148C24.8966 9.84704 27.6364 7.06823 30.7849 6.79639C31.2239 10.6928 27.2429 13.5924 25.1237 13.2148Z" fill="white"/>
</svg>
