<svg width="37" height="29" viewBox="0 0 37 29" fill="none" xmlns="http://www.w3.org/2000/svg">
<path d="M18.1667 4.38889V10.1667M18.1667 18.8333V21.7222M29.7222 1.5V4.38889M29.7222 15.9444V20.2778M9.5 1.5V24.6111C9.5 25.3773 9.80436 26.1121 10.3461 26.6539C10.8879 27.1956 11.6227 27.5 12.3889 27.5H35.5M16.7222 10.1667H19.6111C20.4089 10.1667 21.0556 10.8134 21.0556 11.6111V17.3889C21.0556 18.1866 20.4089 18.8333 19.6111 18.8333H16.7222C15.9245 18.8333 15.2778 18.1866 15.2778 17.3889V11.6111C15.2778 10.8134 15.9245 10.1667 16.7222 10.1667ZM28.2778 4.38889H31.1667C31.9644 4.38889 32.6111 5.03559 32.6111 5.83333V14.5C32.6111 15.2977 31.9644 15.9444 31.1667 15.9444H28.2778C27.48 15.9444 26.8333 15.2977 26.8333 14.5V5.83333C26.8333 5.03559 27.48 4.38889 28.2778 4.38889Z" stroke="#666666" stroke-width="3" stroke-linecap="round" stroke-linejoin="round"/>
<path fill-rule="evenodd" clip-rule="evenodd" d="M6.01295 17C4.4306 17 2.98908 17.4974 2.13608 17.9037C2.05901 17.9404 1.98708 17.9762 1.92029 18.0111C1.78788 18.0798 1.67508 18.1438 1.5854 18.2001L2.55575 19.5595L3.01255 19.7326C4.79773 20.5896 7.19174 20.5896 8.97726 19.7326L9.49572 19.4765L10.4132 18.2001C10.2229 18.0825 10.0253 17.9759 9.8215 17.8811C8.97271 17.479 7.56552 17 6.0133 17M3.75661 18.5388C3.41308 18.4773 3.07372 18.3962 2.74037 18.2961C3.53942 17.9584 4.73012 17.6001 6.0133 17.6001C6.90203 17.6001 7.74242 17.7721 8.43744 17.9901C7.62297 18.0991 6.75385 18.2841 5.92572 18.5118C5.27415 18.6911 4.51258 18.6718 3.75661 18.5388ZM9.34754 20.2269L9.26136 20.2683C7.29753 21.211 4.69264 21.211 2.7288 20.2683L2.64718 20.2289C-0.303467 23.3095 -2.55595 29 6.01295 29C14.5818 29 12.2747 23.2039 9.34754 20.2269ZM5.64898 23.0005C5.46316 23.0005 5.28496 23.0707 5.15357 23.1958C5.02218 23.3208 4.94836 23.4904 4.94836 23.6672C4.94836 23.844 5.02218 24.0136 5.15357 24.1387C5.28496 24.2637 5.46316 24.3339 5.64898 24.3339V23.0005ZM6.3496 22.3338V22.0004H5.64898V22.3338C5.27735 22.3338 4.92094 22.4743 4.65816 22.7243C4.39537 22.9744 4.24774 23.3136 4.24774 23.6672C4.24774 24.0209 4.39537 24.36 4.65816 24.6101C4.92094 24.8602 5.27735 25.0007 5.64898 25.0007V26.3341C5.34421 26.3341 5.08463 26.1491 4.98795 25.8897C4.9736 25.8473 4.95046 25.808 4.91989 25.7743C4.88932 25.7405 4.85195 25.7129 4.80998 25.6931C4.768 25.6733 4.72229 25.6618 4.67553 25.6591C4.62878 25.6564 4.58193 25.6627 4.53777 25.6775C4.49361 25.6924 4.45302 25.7155 4.41841 25.7455C4.3838 25.7756 4.35588 25.8119 4.33628 25.8524C4.31669 25.8929 4.30583 25.9367 4.30434 25.9812C4.30285 26.0258 4.31076 26.0702 4.32761 26.1118C4.4242 26.3718 4.60314 26.5969 4.83979 26.7562C5.07644 26.9154 5.35915 27.0009 5.64898 27.0008V27.3342H6.3496V27.0008C6.72123 27.0008 7.07764 26.8603 7.34042 26.6103C7.6032 26.3602 7.75083 26.021 7.75083 25.6674C7.75083 25.3137 7.6032 24.9746 7.34042 24.7245C7.07764 24.4744 6.72123 24.3339 6.3496 24.3339V23.0005C6.65436 23.0005 6.91394 23.1855 7.01063 23.4449C7.02497 23.4873 7.04811 23.5266 7.07868 23.5603C7.10925 23.5941 7.14663 23.6217 7.1886 23.6415C7.23057 23.6613 7.27629 23.6729 7.32304 23.6755C7.36979 23.6782 7.41664 23.6719 7.4608 23.6571C7.50497 23.6422 7.54555 23.6191 7.58016 23.5891C7.61477 23.559 7.6427 23.5227 7.66229 23.4822C7.68188 23.4417 7.69275 23.3979 7.69424 23.3534C7.69573 23.3088 7.68781 23.2644 7.67096 23.2229C7.57437 22.9628 7.39543 22.7377 7.15878 22.5784C6.92213 22.4192 6.63942 22.3337 6.3496 22.3338ZM6.3496 25.0007V26.3341C6.53541 26.3341 6.71362 26.2639 6.84501 26.1388C6.9764 26.0138 7.05021 25.8442 7.05021 25.6674C7.05021 25.4906 6.9764 25.321 6.84501 25.1959C6.71362 25.0709 6.53541 25.0007 6.3496 25.0007Z" fill="#141B5D"/>
</svg>
