<svg width="28" height="28" viewBox="0 0 28 28" fill="none" xmlns="http://www.w3.org/2000/svg">
<path d="M1.55556 28C1.11482 28 0.745635 27.8506 0.448005 27.552C0.150376 27.2533 0.0010424 26.8841 5.36398e-06 26.4444C-0.00103167 26.0047 0.148302 25.6355 0.448005 25.3369C0.747709 25.0382 1.11689 24.8889 1.55556 24.8889H3.11111V15.5555H1.55556C1.11482 15.5555 0.745635 15.4062 0.448005 15.1075C0.150376 14.8089 0.0010424 14.4397 5.36398e-06 14C-0.00103167 13.5603 0.148302 13.1911 0.448005 12.8924C0.747709 12.5938 1.11689 12.4444 1.55556 12.4444H3.11111V3.11111H1.55556C1.11482 3.11111 0.745635 2.96178 0.448005 2.66311C0.150376 2.36444 0.0010424 1.99526 5.36398e-06 1.55555C-0.00103167 1.11585 0.148302 0.746666 0.448005 0.448C0.747709 0.149333 1.11689 0 1.55556 0H26.4444C26.8852 0 27.2549 0.149333 27.5535 0.448C27.8522 0.746666 28.001 1.11585 28 1.55555C27.999 1.99526 27.8496 2.36496 27.552 2.66466C27.2544 2.96437 26.8852 3.11318 26.4444 3.11111H24.8889V12.4444H26.4444C26.8852 12.4444 27.2549 12.5938 27.5535 12.8924C27.8522 13.1911 28.001 13.5603 28 14C27.999 14.4397 27.8496 14.8094 27.552 15.1091C27.2544 15.4088 26.8852 15.5576 26.4444 15.5555H24.8889V24.8889H26.4444C26.8852 24.8889 27.2549 25.0382 27.5535 25.3369C27.8522 25.6355 28.001 26.0047 28 26.4444C27.999 26.8841 27.8496 27.2538 27.552 27.5535C27.2544 27.8532 26.8852 28.0021 26.4444 28H1.55556ZM6.22223 24.8889H21.7778V15.5555C21.337 15.5555 20.9679 15.4062 20.6702 15.1075C20.3726 14.8089 20.2233 14.4397 20.2222 14C20.2212 13.5603 20.3705 13.1911 20.6702 12.8924C20.9699 12.5938 21.3391 12.4444 21.7778 12.4444V3.11111H6.22223V12.4444C6.66297 12.4444 7.03267 12.5938 7.33134 12.8924C7.63 13.1911 7.77882 13.5603 7.77778 14C7.77674 14.4397 7.62741 14.8094 7.32978 15.1091C7.03215 15.4088 6.66297 15.5576 6.22223 15.5555V24.8889ZM14 20.2222C15.2963 20.2222 16.3981 19.7752 17.3056 18.8813C18.213 17.9874 18.6667 16.9047 18.6667 15.6333C18.6667 14.6222 18.3753 13.7537 17.7924 13.0278C17.2096 12.3018 15.9455 10.8111 14 8.55555C12.0556 10.7852 10.7919 12.2697 10.2091 13.0091C9.6263 13.7485 9.33437 14.6232 9.33333 15.6333C9.33333 16.9037 9.78704 17.9864 10.6944 18.8813C11.6019 19.7763 12.7037 20.2232 14 20.2222Z" fill="#141B5D"/>
<path fill-rule="evenodd" clip-rule="evenodd" d="M1.55556 28C1.11482 28 0.745635 27.8506 0.448005 27.552C0.150376 27.2533 0.0010424 26.8841 5.36398e-06 26.4444C-0.00103167 26.0047 0.148302 25.6355 0.448005 25.3369C0.747709 25.0382 1.11689 24.8889 1.55556 24.8889H3.11111V15.5555H1.55556C1.11482 15.5555 0.745635 15.4062 0.448005 15.1075C0.150376 14.8089 0.0010424 14.4397 5.36398e-06 14C-0.00103167 13.5603 0.148302 13.1911 0.448005 12.8924C0.747709 12.5938 1.11689 12.4444 1.55556 12.4444H3.11111V3.11111H1.55556C1.11482 3.11111 0.745635 2.96178 0.448005 2.66311C0.150376 2.36444 0.0010424 1.99526 5.36398e-06 1.55555C-0.00103167 1.11585 0.148302 0.746666 0.448005 0.448C0.747709 0.149333 1.11689 0 1.55556 0H26.4444C26.8852 0 27.2549 0.149333 27.5535 0.448C27.8522 0.746666 28.001 1.11585 28 1.55555C27.999 1.99526 27.8496 2.36496 27.552 2.66466C27.2544 2.96437 26.8852 3.11318 26.4444 3.11111H24.8889V12.4444H26.4444C26.8852 12.4444 27.2549 12.5938 27.5535 12.8924C27.8522 13.1911 28.001 13.5603 28 14C27.999 14.4397 27.8496 14.8094 27.552 15.1091C27.2544 15.4088 26.8852 15.5576 26.4444 15.5555H24.8889V24.8889H26.4444C26.8852 24.8889 27.2549 25.0382 27.5535 25.3369C27.8522 25.6355 28.001 26.0047 28 26.4444C27.999 26.8841 27.8496 27.2538 27.552 27.5535C27.2544 27.8532 26.8852 28.0021 26.4444 28H1.55556ZM21.7778 24.8889H6.22223V15.5555V12.4444V3.11111H21.7778V12.4444C21.3391 12.4444 20.9699 12.5938 20.6702 12.8924C20.3705 13.1911 20.2212 13.5603 20.2222 14C20.2233 14.4397 20.3726 14.8089 20.6702 15.1075C20.9679 15.4062 21.337 15.5555 21.7778 15.5555V24.8889Z" fill="#666666"/>
<path fill-rule="evenodd" clip-rule="evenodd" d="M7.32978 15.1091C7.03215 15.4088 6.66297 15.5576 6.22223 15.5555V12.4444C6.66297 12.4444 7.03267 12.5938 7.33134 12.8924C7.63 13.1911 7.77882 13.5603 7.77778 14C7.77674 14.4397 7.62741 14.8094 7.32978 15.1091Z" fill="#666666"/>
</svg>
