<svg width="24" height="31" viewBox="0 0 24 31" fill="none" xmlns="http://www.w3.org/2000/svg">
<path d="M12.899 1.14756L12.2373 0.582652L12.2369 0.583145L12.899 1.14756ZM13.5003 0.869995V-4.88758e-06V0.869995ZM14.1017 1.14756L14.7638 0.583248L14.7633 0.582652L14.1017 1.14756ZM20.6037 20.0313C20.6037 19.5508 20.2142 19.1613 19.7337 19.1613C19.2533 19.1613 18.8637 19.5508 18.8637 20.0313H19.7337H20.6037ZM16.5527 22.3378C16.0723 22.3378 15.6827 22.7273 15.6827 23.2078C15.6827 23.6882 16.0723 24.0778 16.5527 24.0778V23.2078V22.3378ZM23 18.3423H22.13C22.13 21.0815 21.274 23.2264 19.8202 24.6845C18.3666 26.1423 16.2292 27 13.5 27V27.87V28.74C16.6008 28.74 19.2134 27.7574 21.0523 25.9131C22.891 24.069 23.87 21.4501 23.87 18.3423H23ZM13.5 27.87V27C10.7708 27 8.6334 26.1423 7.17984 24.6845C5.72601 23.2264 4.87 21.0815 4.87 18.3423H4H3.13C3.13 21.4501 4.10901 24.069 5.94769 25.9131C7.78664 27.7574 10.3992 28.74 13.5 28.74V27.87ZM4 18.3423H4.87C4.87 15.4632 6.45566 11.9551 8.40827 8.76503C10.3384 5.61172 12.5308 2.92052 13.5611 1.71197L12.899 1.14756L12.2369 0.583145C11.1785 1.82466 8.92143 4.59367 6.92421 7.85665C4.94949 11.0828 3.13 14.9471 3.13 18.3423H4ZM12.899 1.14756L13.5606 1.71247C13.5535 1.72088 13.5444 1.72781 13.534 1.73263L13.1693 0.942717L12.8047 0.152804C12.5867 0.253449 12.3932 0.400145 12.2373 0.582652L12.899 1.14756ZM13.1693 0.942717L13.534 1.73263C13.5235 1.73745 13.512 1.74 13.5003 1.74V0.869995V-4.88758e-06C13.2601 -4.88758e-06 13.0228 0.0521564 12.8047 0.152804L13.1693 0.942717ZM13.5003 0.869995V1.74C13.4886 1.74 13.4772 1.73745 13.4667 1.73263L13.8313 0.942717L14.1959 0.152804C13.9779 0.052156 13.7406 -4.88758e-06 13.5003 -4.88758e-06V0.869995ZM13.8313 0.942717L13.4667 1.73263C13.4563 1.72781 13.4472 1.72087 13.44 1.71247L14.1017 1.14756L14.7633 0.582652C14.6075 0.400149 14.414 0.253451 14.1959 0.152804L13.8313 0.942717ZM14.1017 1.14756L13.4395 1.71187C14.4695 2.92049 16.6618 5.6117 18.5918 8.76501C20.5443 11.9551 22.13 15.4632 22.13 18.3423H23H23.87C23.87 14.9471 22.0505 11.0828 20.0759 7.85666C18.0787 4.59369 15.8218 1.82469 14.7638 0.583248L14.1017 1.14756ZM19.7337 20.0313H18.8637C18.8637 20.6426 18.6206 21.2291 18.1873 21.6618L18.802 22.2774L19.4168 22.893C20.1766 22.1342 20.6037 21.1049 20.6037 20.0313H19.7337ZM18.802 22.2774L18.1873 21.6618C17.754 22.0945 17.1661 22.3378 16.5527 22.3378V23.2078V24.0778C17.6267 24.0778 18.657 23.6517 19.4168 22.893L18.802 22.2774Z" fill="#666666"/>
<path d="M11 25.37C11 28.4076 8.53757 30.87 5.5 30.87C2.46243 30.87 0 28.4076 0 25.37C0 22.3324 2.46243 19.87 5.5 19.87C8.53757 19.87 11 22.3324 11 25.37Z" fill="#666666"/>
<path d="M5.50336 22.0701C5.63807 22.0701 5.76809 22.1196 5.86876 22.2091C5.96943 22.2986 6.03374 22.4219 6.04951 22.5557L6.05336 22.6201V23.1701H7.15336C7.29354 23.1702 7.42837 23.2239 7.53031 23.3201C7.63224 23.4164 7.69359 23.5479 7.7018 23.6878C7.71002 23.8278 7.66449 23.9656 7.57451 24.0731C7.48454 24.1806 7.35691 24.2497 7.21771 24.2662L7.15336 24.2701H4.40336C4.33464 24.27 4.26836 24.2956 4.21758 24.3419C4.16679 24.3882 4.13518 24.4518 4.12897 24.5202C4.12277 24.5887 4.14241 24.657 4.18403 24.7116C4.22565 24.7663 4.28624 24.8034 4.35386 24.8157L4.40336 24.8201H6.60336C6.96079 24.8192 7.30452 24.9576 7.56168 25.2058C7.81885 25.4541 7.96923 25.7927 7.98096 26.15C7.99269 26.5072 7.86484 26.855 7.62452 27.1196C7.38419 27.3841 7.05028 27.5447 6.69356 27.5673L6.60336 27.5701H6.05336V28.1201C6.0532 28.2603 5.99952 28.3951 5.90329 28.497C5.80706 28.599 5.67553 28.6603 5.53559 28.6685C5.39565 28.6767 5.25785 28.6312 5.15035 28.5412C5.04285 28.4513 4.97376 28.3236 4.95721 28.1844L4.95336 28.1201V27.5701H3.85336C3.71317 27.5699 3.57834 27.5162 3.4764 27.42C3.37447 27.3238 3.31313 27.1923 3.30491 27.0523C3.2967 26.9124 3.34223 26.7746 3.4322 26.6671C3.52218 26.5596 3.6498 26.4905 3.78901 26.4739L3.85336 26.4701H6.60336C6.67208 26.4702 6.73835 26.4446 6.78914 26.3983C6.83992 26.352 6.87153 26.2884 6.87774 26.2199C6.88395 26.1515 6.86431 26.0832 6.82269 26.0285C6.78106 25.9738 6.72048 25.9367 6.65286 25.9245L6.60336 25.9201H4.40336C4.04592 25.9209 3.70219 25.7826 3.44503 25.5343C3.18786 25.2861 3.03748 24.9474 3.02575 24.5902C3.01402 24.233 3.14187 23.8852 3.38219 23.6206C3.62252 23.356 3.95643 23.1954 4.31316 23.1728L4.40336 23.1701H4.95336V22.6201C4.95336 22.4742 5.0113 22.3343 5.11445 22.2312C5.21759 22.128 5.35749 22.0701 5.50336 22.0701Z" fill="white"/>
</svg>
