<svg width="32" height="32" viewBox="0 0 32 32" fill="none" xmlns="http://www.w3.org/2000/svg">
<mask id="path-1-inside-1_2168_3" fill="white">
<path fill-rule="evenodd" clip-rule="evenodd" d="M28.2344 14.2188C27.4531 13.5938 26.5833 13.0938 25.625 12.7188C25.875 11.8438 26 10.9427 26 10.0156C26 9.08854 25.8802 8.20312 25.6406 7.35938C25.401 6.51562 25.0625 5.71875 24.625 4.96875C24.1875 4.21875 23.6667 3.54167 23.0625 2.9375C22.4583 2.33333 21.7865 1.8125 21.0469 1.375C20.3073 0.9375 19.5104 0.598958 18.6562 0.359375C17.8021 0.119792 16.9167 0 16 0C15.0833 0.0104167 14.1979 0.130208 13.3438 0.359375C12.4896 0.588542 11.6927 0.927083 10.9531 1.375C10.2135 1.82292 9.53646 2.34896 8.92188 2.95312C8.30729 3.55729 7.78646 4.22917 7.35938 4.96875C6.93229 5.70833 6.59896 6.50521 6.35938 7.35938C6.11979 8.21354 6 9.09896 6 10.0156C6 10.9427 6.125 11.8438 6.375 12.7188C5.41667 13.0938 4.54688 13.5938 3.76562 14.2188C2.98438 14.8438 2.3125 15.5625 1.75 16.375C1.1875 17.1875 0.755208 18.0677 0.453125 19.0156C0.151042 19.9635 0 20.9531 0 21.9844C0.0104167 22.9115 0.130208 23.8021 0.359375 24.6562C0.588542 25.5104 0.927083 26.3073 1.375 27.0469C1.82292 27.7865 2.34375 28.4635 2.9375 29.0781C3.53125 29.6927 4.20312 30.2135 4.95312 30.6406C5.70312 31.0677 6.5 31.401 7.34375 31.6406C8.1875 31.8802 9.07292 32 10 32C11.0938 32 12.151 31.8281 13.1719 31.4844C14.1927 31.1406 15.1406 30.6406 16.0156 29.9844C16.8802 30.6406 17.8229 31.1406 18.8438 31.4844C19.8646 31.8281 20.9167 32 22 32C22.9167 31.9896 23.8021 31.8698 24.6562 31.6406C25.5104 31.4115 26.3073 31.0729 27.0469 30.625C27.7865 30.1771 28.4635 29.651 29.0781 29.0469C29.6927 28.4427 30.2135 27.7708 30.6406 27.0312C31.0677 26.2917 31.401 25.4948 31.6406 24.6406C31.8802 23.7865 32 22.901 32 21.9844C32 20.9531 31.8438 19.9583 31.5312 19C31.2188 18.0417 30.7865 17.1615 30.2344 16.3594C29.6823 15.5573 29.0156 14.8438 28.2344 14.2188ZM12.8906 2.625C13.8594 2.20833 14.8958 2 16 2C17.1042 2.01042 18.1458 2.22396 19.125 2.64062C20.1042 3.05729 20.9531 3.63021 21.6719 4.35938C22.3906 5.08854 22.9583 5.9375 23.375 6.90625C23.7917 7.875 24 8.91146 24 10.0156C24 11.1302 23.7917 12.1719 23.375 13.1406C22.9583 14.1094 22.3854 14.9583 21.6562 15.6875C20.9271 16.4167 20.0781 16.9896 19.1094 17.4063C18.1406 17.8229 17.1042 18.0312 16 18.0312C14.8958 18.0208 13.8542 17.8073 12.875 17.3906C11.8958 16.974 11.0469 16.401 10.3281 15.6719C9.60938 14.9427 9.04167 14.0938 8.625 13.125C8.20833 12.1562 8 11.1198 8 10.0156C8 8.90104 8.20833 7.86458 8.625 6.90625C9.04167 5.94792 9.61458 5.09896 10.3438 4.35938C11.0729 3.61979 11.9219 3.04167 12.8906 2.625ZM13.1094 29.375C12.1406 29.7917 11.1042 30 10 30C8.89583 29.9896 7.85417 29.776 6.875 29.3594C5.89583 28.9427 5.04688 28.3698 4.32813 27.6406C3.60938 26.9115 3.04167 26.0625 2.625 25.0938C2.20833 24.125 2 23.0885 2 21.9844C2.01042 21.151 2.13021 20.3542 2.35938 19.5938C2.58854 18.8333 2.93229 18.125 3.39062 17.4688C3.84896 16.8125 4.38542 16.2344 5 15.7344C5.61458 15.2344 6.30729 14.8333 7.07812 14.5312C7.26562 14.875 7.46354 15.2083 7.67188 15.5312C7.88021 15.8542 8.10417 16.1667 8.34375 16.4688C7.78125 16.7083 7.29167 17.0208 6.875 17.4063C6.45833 17.7917 6.10938 18.2292 5.82812 18.7188C5.54688 19.2083 5.33333 19.7292 5.1875 20.2812C5.04167 20.8333 4.96875 21.401 4.96875 21.9844C4.6875 22.0052 4.45833 22.1094 4.28125 22.2969C4.10417 22.4844 4.01563 22.7135 4.01563 22.9844C4.00521 23.1927 4.04167 23.3594 4.125 23.4844C4.20833 23.6094 4.30729 23.7083 4.42188 23.7812C4.53646 23.8542 4.67188 23.9062 4.82812 23.9375C4.98438 23.9688 5.14583 23.9844 5.3125 23.9844C5.53125 24.5885 5.82812 25.1302 6.20312 25.6094C6.57812 26.0885 7.01562 26.5052 7.51562 26.8594C8.01562 27.2135 8.55729 27.4844 9.14062 27.6719C9.72396 27.8594 10.3333 27.9531 10.9688 27.9531C11.1979 27.9531 11.4844 27.9323 11.8281 27.8906C12.1719 27.849 12.5104 27.776 12.8438 27.6719C13.1771 27.5677 13.4583 27.4219 13.6875 27.2344C13.9167 27.0469 14.0312 26.8021 14.0312 26.5C14.0312 26.2188 13.9323 25.9844 13.7344 25.7969C13.5365 25.6094 13.3021 25.5156 13.0312 25.5156C12.8958 25.5156 12.7604 25.5417 12.625 25.5938C12.3438 25.7083 12.0729 25.7969 11.8125 25.8594C11.5521 25.9219 11.2708 25.9531 10.9688 25.9531C10.2396 25.9427 9.57292 25.7656 8.96875 25.4219C8.36458 25.0781 7.88021 24.599 7.51562 23.9844C7.71354 23.9948 7.95313 24.0052 8.23438 24.0156C8.51563 24.026 8.78125 24.0052 9.03125 23.9531C9.28125 23.901 9.49479 23.8073 9.67188 23.6719C9.84896 23.5365 9.9375 23.3073 9.9375 22.9844C9.9375 22.7135 9.83854 22.4792 9.64062 22.2812C9.44271 22.0833 9.20833 21.9844 8.9375 21.9844H6.96875V21.9531C6.97917 20.9948 7.21875 20.1771 7.6875 19.5C8.15625 18.8229 8.84896 18.349 9.76562 18.0781C9.82812 18.0677 9.89583 18.0417 9.96875 18C10.8542 18.6667 11.8073 19.1719 12.8281 19.5156C13.849 19.8594 14.9062 20.0312 16 20.0312C16.5625 20.0312 17.125 19.9844 17.6875 19.8906C17.8958 20.5781 18 21.276 18 21.9844C18 23.099 17.7917 24.1406 17.375 25.1094C16.9583 26.0781 16.3854 26.9271 15.6562 27.6562C14.9271 28.3854 14.0781 28.9583 13.1094 29.375ZM25.1094 29.375C24.1406 29.7917 23.1042 30 22 30C21.1771 30 20.3906 29.8802 19.6406 29.6406C18.8906 29.401 18.1823 29.0521 17.5156 28.5938C18.3385 27.6667 18.9583 26.6406 19.375 25.5156C19.7917 24.3906 20 23.2135 20 21.9844C20 21.5469 19.974 21.1042 19.9219 20.6562C19.8698 20.2083 19.7812 19.7708 19.6562 19.3438L19.75 19.3125L21.9688 22.3438V23.9844C21.7812 23.9844 21.5677 23.9792 21.3281 23.9688C21.0885 23.9583 20.8698 23.9844 20.6719 24.0469C20.474 24.1094 20.3073 24.2083 20.1719 24.3438C20.0365 24.4792 19.9688 24.6927 19.9688 24.9844C19.9583 25.276 20.026 25.4948 20.1719 25.6406C20.3177 25.7865 20.4896 25.8802 20.6875 25.9219C20.8854 25.9635 21.099 25.9844 21.3281 25.9844H21.9688C21.9688 26.1927 21.9635 26.4115 21.9531 26.6406C21.9427 26.8698 21.9688 27.0885 22.0312 27.2969C22.0938 27.5052 22.1927 27.6771 22.3281 27.8125C22.4635 27.9479 22.6771 28.0156 22.9688 28.0156C23.2604 28.0052 23.4792 27.9323 23.625 27.7969C23.7708 27.6615 23.8646 27.4896 23.9062 27.2812C23.9479 27.0729 23.9688 26.8542 23.9688 26.625V25.9844C24.1771 25.9844 24.3958 25.9896 24.625 26C24.8542 26.0104 25.0729 25.9844 25.2812 25.9219C25.4896 25.8594 25.6615 25.7604 25.7969 25.625C25.9323 25.4896 26 25.276 26 24.9844C25.9896 24.6927 25.9167 24.474 25.7812 24.3281C25.6458 24.1823 25.474 24.0885 25.2656 24.0469C25.0573 24.0052 24.8385 23.9844 24.6094 23.9844H23.9688V22.3438L26.7812 18.6094C26.9167 18.4219 26.9844 18.224 26.9844 18.0156C26.9844 17.7344 26.8854 17.4948 26.6875 17.2969C26.4896 17.099 26.25 17 25.9688 17C25.6354 17 25.3698 17.1354 25.1719 17.4063L22.9844 20.3281L21.5312 18.3594C22.25 17.8802 22.8958 17.3177 23.4688 16.6719C24.0417 16.026 24.526 15.3177 24.9219 14.5469C25.6823 14.8698 26.375 15.276 27 15.7656C27.625 16.2552 28.1615 16.8281 28.6094 17.4844C29.0573 18.1406 29.401 18.849 29.6406 19.6094C29.8802 20.3698 30 21.1615 30 21.9844C30 23.099 29.7917 24.1406 29.375 25.1094C28.9583 26.0781 28.3854 26.9271 27.6562 27.6562C26.9271 28.3854 26.0781 28.9583 25.1094 29.375Z"/>
</mask>
<path fill-rule="evenodd" clip-rule="evenodd" d="M28.2344 14.2188C27.4531 13.5938 26.5833 13.0938 25.625 12.7188C25.875 11.8438 26 10.9427 26 10.0156C26 9.08854 25.8802 8.20312 25.6406 7.35938C25.401 6.51562 25.0625 5.71875 24.625 4.96875C24.1875 4.21875 23.6667 3.54167 23.0625 2.9375C22.4583 2.33333 21.7865 1.8125 21.0469 1.375C20.3073 0.9375 19.5104 0.598958 18.6562 0.359375C17.8021 0.119792 16.9167 0 16 0C15.0833 0.0104167 14.1979 0.130208 13.3438 0.359375C12.4896 0.588542 11.6927 0.927083 10.9531 1.375C10.2135 1.82292 9.53646 2.34896 8.92188 2.95312C8.30729 3.55729 7.78646 4.22917 7.35938 4.96875C6.93229 5.70833 6.59896 6.50521 6.35938 7.35938C6.11979 8.21354 6 9.09896 6 10.0156C6 10.9427 6.125 11.8438 6.375 12.7188C5.41667 13.0938 4.54688 13.5938 3.76562 14.2188C2.98438 14.8438 2.3125 15.5625 1.75 16.375C1.1875 17.1875 0.755208 18.0677 0.453125 19.0156C0.151042 19.9635 0 20.9531 0 21.9844C0.0104167 22.9115 0.130208 23.8021 0.359375 24.6562C0.588542 25.5104 0.927083 26.3073 1.375 27.0469C1.82292 27.7865 2.34375 28.4635 2.9375 29.0781C3.53125 29.6927 4.20312 30.2135 4.95312 30.6406C5.70312 31.0677 6.5 31.401 7.34375 31.6406C8.1875 31.8802 9.07292 32 10 32C11.0938 32 12.151 31.8281 13.1719 31.4844C14.1927 31.1406 15.1406 30.6406 16.0156 29.9844C16.8802 30.6406 17.8229 31.1406 18.8438 31.4844C19.8646 31.8281 20.9167 32 22 32C22.9167 31.9896 23.8021 31.8698 24.6562 31.6406C25.5104 31.4115 26.3073 31.0729 27.0469 30.625C27.7865 30.1771 28.4635 29.651 29.0781 29.0469C29.6927 28.4427 30.2135 27.7708 30.6406 27.0312C31.0677 26.2917 31.401 25.4948 31.6406 24.6406C31.8802 23.7865 32 22.901 32 21.9844C32 20.9531 31.8438 19.9583 31.5312 19C31.2188 18.0417 30.7865 17.1615 30.2344 16.3594C29.6823 15.5573 29.0156 14.8438 28.2344 14.2188ZM12.8906 2.625C13.8594 2.20833 14.8958 2 16 2C17.1042 2.01042 18.1458 2.22396 19.125 2.64062C20.1042 3.05729 20.9531 3.63021 21.6719 4.35938C22.3906 5.08854 22.9583 5.9375 23.375 6.90625C23.7917 7.875 24 8.91146 24 10.0156C24 11.1302 23.7917 12.1719 23.375 13.1406C22.9583 14.1094 22.3854 14.9583 21.6562 15.6875C20.9271 16.4167 20.0781 16.9896 19.1094 17.4063C18.1406 17.8229 17.1042 18.0312 16 18.0312C14.8958 18.0208 13.8542 17.8073 12.875 17.3906C11.8958 16.974 11.0469 16.401 10.3281 15.6719C9.60938 14.9427 9.04167 14.0938 8.625 13.125C8.20833 12.1562 8 11.1198 8 10.0156C8 8.90104 8.20833 7.86458 8.625 6.90625C9.04167 5.94792 9.61458 5.09896 10.3438 4.35938C11.0729 3.61979 11.9219 3.04167 12.8906 2.625ZM13.1094 29.375C12.1406 29.7917 11.1042 30 10 30C8.89583 29.9896 7.85417 29.776 6.875 29.3594C5.89583 28.9427 5.04688 28.3698 4.32813 27.6406C3.60938 26.9115 3.04167 26.0625 2.625 25.0938C2.20833 24.125 2 23.0885 2 21.9844C2.01042 21.151 2.13021 20.3542 2.35938 19.5938C2.58854 18.8333 2.93229 18.125 3.39062 17.4688C3.84896 16.8125 4.38542 16.2344 5 15.7344C5.61458 15.2344 6.30729 14.8333 7.07812 14.5312C7.26562 14.875 7.46354 15.2083 7.67188 15.5312C7.88021 15.8542 8.10417 16.1667 8.34375 16.4688C7.78125 16.7083 7.29167 17.0208 6.875 17.4063C6.45833 17.7917 6.10938 18.2292 5.82812 18.7188C5.54688 19.2083 5.33333 19.7292 5.1875 20.2812C5.04167 20.8333 4.96875 21.401 4.96875 21.9844C4.6875 22.0052 4.45833 22.1094 4.28125 22.2969C4.10417 22.4844 4.01563 22.7135 4.01563 22.9844C4.00521 23.1927 4.04167 23.3594 4.125 23.4844C4.20833 23.6094 4.30729 23.7083 4.42188 23.7812C4.53646 23.8542 4.67188 23.9062 4.82812 23.9375C4.98438 23.9688 5.14583 23.9844 5.3125 23.9844C5.53125 24.5885 5.82812 25.1302 6.20312 25.6094C6.57812 26.0885 7.01562 26.5052 7.51562 26.8594C8.01562 27.2135 8.55729 27.4844 9.14062 27.6719C9.72396 27.8594 10.3333 27.9531 10.9688 27.9531C11.1979 27.9531 11.4844 27.9323 11.8281 27.8906C12.1719 27.849 12.5104 27.776 12.8438 27.6719C13.1771 27.5677 13.4583 27.4219 13.6875 27.2344C13.9167 27.0469 14.0312 26.8021 14.0312 26.5C14.0312 26.2188 13.9323 25.9844 13.7344 25.7969C13.5365 25.6094 13.3021 25.5156 13.0312 25.5156C12.8958 25.5156 12.7604 25.5417 12.625 25.5938C12.3438 25.7083 12.0729 25.7969 11.8125 25.8594C11.5521 25.9219 11.2708 25.9531 10.9688 25.9531C10.2396 25.9427 9.57292 25.7656 8.96875 25.4219C8.36458 25.0781 7.88021 24.599 7.51562 23.9844C7.71354 23.9948 7.95313 24.0052 8.23438 24.0156C8.51563 24.026 8.78125 24.0052 9.03125 23.9531C9.28125 23.901 9.49479 23.8073 9.67188 23.6719C9.84896 23.5365 9.9375 23.3073 9.9375 22.9844C9.9375 22.7135 9.83854 22.4792 9.64062 22.2812C9.44271 22.0833 9.20833 21.9844 8.9375 21.9844H6.96875V21.9531C6.97917 20.9948 7.21875 20.1771 7.6875 19.5C8.15625 18.8229 8.84896 18.349 9.76562 18.0781C9.82812 18.0677 9.89583 18.0417 9.96875 18C10.8542 18.6667 11.8073 19.1719 12.8281 19.5156C13.849 19.8594 14.9062 20.0312 16 20.0312C16.5625 20.0312 17.125 19.9844 17.6875 19.8906C17.8958 20.5781 18 21.276 18 21.9844C18 23.099 17.7917 24.1406 17.375 25.1094C16.9583 26.0781 16.3854 26.9271 15.6562 27.6562C14.9271 28.3854 14.0781 28.9583 13.1094 29.375ZM25.1094 29.375C24.1406 29.7917 23.1042 30 22 30C21.1771 30 20.3906 29.8802 19.6406 29.6406C18.8906 29.401 18.1823 29.0521 17.5156 28.5938C18.3385 27.6667 18.9583 26.6406 19.375 25.5156C19.7917 24.3906 20 23.2135 20 21.9844C20 21.5469 19.974 21.1042 19.9219 20.6562C19.8698 20.2083 19.7812 19.7708 19.6562 19.3438L19.75 19.3125L21.9688 22.3438V23.9844C21.7812 23.9844 21.5677 23.9792 21.3281 23.9688C21.0885 23.9583 20.8698 23.9844 20.6719 24.0469C20.474 24.1094 20.3073 24.2083 20.1719 24.3438C20.0365 24.4792 19.9688 24.6927 19.9688 24.9844C19.9583 25.276 20.026 25.4948 20.1719 25.6406C20.3177 25.7865 20.4896 25.8802 20.6875 25.9219C20.8854 25.9635 21.099 25.9844 21.3281 25.9844H21.9688C21.9688 26.1927 21.9635 26.4115 21.9531 26.6406C21.9427 26.8698 21.9688 27.0885 22.0312 27.2969C22.0938 27.5052 22.1927 27.6771 22.3281 27.8125C22.4635 27.9479 22.6771 28.0156 22.9688 28.0156C23.2604 28.0052 23.4792 27.9323 23.625 27.7969C23.7708 27.6615 23.8646 27.4896 23.9062 27.2812C23.9479 27.0729 23.9688 26.8542 23.9688 26.625V25.9844C24.1771 25.9844 24.3958 25.9896 24.625 26C24.8542 26.0104 25.0729 25.9844 25.2812 25.9219C25.4896 25.8594 25.6615 25.7604 25.7969 25.625C25.9323 25.4896 26 25.276 26 24.9844C25.9896 24.6927 25.9167 24.474 25.7812 24.3281C25.6458 24.1823 25.474 24.0885 25.2656 24.0469C25.0573 24.0052 24.8385 23.9844 24.6094 23.9844H23.9688V22.3438L26.7812 18.6094C26.9167 18.4219 26.9844 18.224 26.9844 18.0156C26.9844 17.7344 26.8854 17.4948 26.6875 17.2969C26.4896 17.099 26.25 17 25.9688 17C25.6354 17 25.3698 17.1354 25.1719 17.4063L22.9844 20.3281L21.5312 18.3594C22.25 17.8802 22.8958 17.3177 23.4688 16.6719C24.0417 16.026 24.526 15.3177 24.9219 14.5469C25.6823 14.8698 26.375 15.276 27 15.7656C27.625 16.2552 28.1615 16.8281 28.6094 17.4844C29.0573 18.1406 29.401 18.849 29.6406 19.6094C29.8802 20.3698 30 21.1615 30 21.9844C30 23.099 29.7917 24.1406 29.375 25.1094C28.9583 26.0781 28.3854 26.9271 27.6562 27.6562C26.9271 28.3854 26.0781 28.9583 25.1094 29.375Z" fill="#546CDE" stroke="#666666" stroke-width="90" mask="url(#path-1-inside-1_2168_3)"/>
<path d="M17.0932 11.5546V14.9798C17.6228 14.8916 18.1296 14.6992 18.5844 14.4138C19.216 14.001 19.3863 13.5647 19.3863 13.2672C19.3863 12.9698 19.216 12.5334 18.5844 12.1207C18.1296 11.8353 17.6228 11.6429 17.0932 11.5546ZM13.9222 8.67446C13.992 8.74697 14.0724 8.8186 14.1633 8.88936C14.4358 9.09901 14.766 9.26149 15.1277 9.36501V6.03149C14.9708 6.07676 14.8175 6.1337 14.6691 6.20184C14.4847 6.28745 14.3161 6.38922 14.1633 6.50715C13.6693 6.88977 13.4897 7.32874 13.4897 7.69825C13.4897 7.93936 13.5657 8.20929 13.7544 8.47398C13.8034 8.54124 13.8593 8.60894 13.9222 8.67446Z" fill="#141B5D"/>
<path fill-rule="evenodd" clip-rule="evenodd" d="M26.4829 10.4828C26.4829 13.263 25.3784 15.9293 23.4125 17.8952C21.4466 19.8611 18.7803 20.9655 16.0001 20.9655C13.2199 20.9655 10.5536 19.8611 8.58766 17.8952C6.62176 15.9293 5.51733 13.263 5.51733 10.4828C5.51733 7.70256 6.62176 5.03623 8.58766 3.07033C10.5536 1.10443 13.2199 0 16.0001 0C18.7803 0 21.4466 1.10443 23.4125 3.07033C25.3784 5.03623 26.4829 7.70256 26.4829 10.4828ZM16.0001 2.62069C16.2607 2.62069 16.5107 2.72423 16.695 2.90853C16.8793 3.09284 16.9829 3.3428 16.9829 3.60345V4.01752C17.7693 4.15096 18.5121 4.47137 19.1489 4.95179C19.7071 5.38421 20.1237 5.92145 20.3609 6.52421C20.4488 6.76496 20.4391 7.03051 20.334 7.26425C20.2289 7.49798 20.0366 7.68141 19.7982 7.77541C19.5598 7.86941 19.2941 7.86656 19.0577 7.76745C18.8214 7.66835 18.6331 7.48084 18.533 7.2449C18.408 6.95057 18.2056 6.69562 17.9473 6.50717C17.6585 6.28954 17.3313 6.12818 16.9829 6.03152V9.56552C17.8975 9.68738 18.7951 9.98483 19.5498 10.4775C20.5811 11.151 21.2402 12.1417 21.2402 13.2686C21.2402 14.3954 20.5797 15.3861 19.5498 16.0596C18.7951 16.5536 17.8975 16.8497 16.9815 16.9716V17.3634C16.9815 17.624 16.878 17.874 16.6937 18.0583C16.5094 18.2426 16.2594 18.3461 15.9988 18.3461C15.7381 18.3461 15.4882 18.2426 15.3039 18.0583C15.1196 17.874 15.016 17.624 15.016 17.3634V16.9703C14.1027 16.8497 13.2051 16.5536 12.4504 16.0596C11.8188 15.6468 11.3274 15.1201 11.0378 14.5029C10.9273 14.2668 10.9151 13.9964 11.004 13.7513C11.0928 13.5061 11.2754 13.3063 11.5115 13.1958C11.7476 13.0853 12.018 13.0731 12.2631 13.162C12.5083 13.2508 12.7081 13.4334 12.8186 13.6695C12.9234 13.8962 13.1396 14.1622 13.5262 14.4151C13.9363 14.6837 14.4513 14.8777 15.0173 14.9812V11.3803C14.2309 11.2469 13.4881 10.9265 12.8513 10.4461C11.938 9.73979 11.4139 8.75441 11.4139 7.69828C11.4139 6.64345 11.938 5.65676 12.8513 4.95179C13.4881 4.47137 14.2309 4.15096 15.0173 4.01752V3.60345C15.0173 3.3428 15.1209 3.09284 15.3052 2.90853C15.4895 2.72423 15.7394 2.62069 16.0001 2.62069Z" fill="#141B5D"/>
</svg>
