<svg width="26" height="25" viewBox="0 0 26 25" fill="none" xmlns="http://www.w3.org/2000/svg">
<path d="M6.1432 20.2C3.3028 20.2 1 17.9248 1 15.118C1 12.3112 3.3028 10.0348 6.1432 10.0348C6.4848 10.0356 6.8168 10.0676 7.1392 10.1308M7.1392 10.1308C6.85792 9.37773 6.71404 8.58029 6.7144 7.7764C6.7144 4.0336 9.784 1 13.5712 1C17.0992 1 20.0044 3.6328 20.3872 7.018M7.1392 10.1308C7.80307 10.2601 8.43505 10.5186 8.9992 10.8916M15.8572 7.0324C16.5923 6.77711 17.365 6.6469 18.1432 6.6472C18.928 6.6472 19.6828 6.778 20.3872 7.018M20.3872 7.018C23.0704 7.936 25 10.4572 25 13.4236C25 16.672 22.6876 19.3876 19.6 20.0476M16.6002 20.3008C16.6002 22.2328 14.9886 23.8 13.0002 23.8C11.0118 23.8 9.40019 22.234 9.40019 20.3008C9.40019 19.2064 10.5534 17.7808 11.5554 16.7488C11.7419 16.5535 11.9662 16.398 12.2145 16.2918C12.4628 16.1856 12.7301 16.1308 13.0002 16.1308C13.2703 16.1308 13.5376 16.1856 13.7859 16.2918C14.0342 16.398 14.2584 16.5535 14.445 16.7488C15.447 17.7808 16.6002 19.2064 16.6002 20.3008Z" stroke="#666666" stroke-width="2" stroke-linecap="round"/>
</svg>
