<svg width="145" height="44" viewBox="0 0 145 44" fill="none" xmlns="http://www.w3.org/2000/svg">
<rect width="145" height="43.349" rx="5.28646" fill="black"/>
<path d="M49.5644 9.78093C49.3854 9.40435 49.1261 9.1142 48.7866 8.91047C48.447 8.70057 48.0519 8.59562 47.6013 8.59562C47.1506 8.59562 46.7431 8.70057 46.3789 8.91047C46.0208 9.1142 45.7369 9.41052 45.527 9.79945C45.3232 10.1822 45.2214 10.6267 45.2214 11.1329C45.2214 11.6392 45.3232 12.0836 45.527 12.4664C45.7369 12.8492 46.0208 13.1455 46.3789 13.3554C46.7431 13.5591 47.1506 13.661 47.6013 13.661C48.2309 13.661 48.7495 13.4727 49.157 13.0961C49.5644 12.7195 49.8021 12.2102 49.87 11.5682H47.2957V10.8829H50.7682V11.5311C50.7189 12.062 50.5522 12.5497 50.2682 12.9942C49.9842 13.4325 49.6107 13.7814 49.1477 14.0406C48.6847 14.2938 48.1692 14.4203 47.6013 14.4203C47.0024 14.4203 46.4561 14.2814 45.9622 14.0036C45.4683 13.7196 45.0763 13.3276 44.7861 12.8275C44.5022 12.3275 44.3602 11.7626 44.3602 11.1329C44.3602 10.5032 44.5022 9.93836 44.7861 9.43831C45.0763 8.93208 45.4683 8.54006 45.9622 8.26226C46.4561 7.97828 47.0024 7.83629 47.6013 7.83629C48.2865 7.83629 48.8915 8.00606 49.4163 8.3456C49.9472 8.68514 50.333 9.16358 50.5738 9.78093H49.5644ZM52.7251 8.59562V10.7533H55.0772V11.4478H52.7251V13.6702H55.355V14.3647H51.8824V7.90111H55.355V8.59562H52.7251ZM60.6028 7.91037V8.59562H58.8433V14.3647H58.0006V8.59562H56.2319V7.91037H60.6028ZM64.9515 7.91037V14.3647H64.1088V7.91037H64.9515ZM70.3604 7.91037V8.59562H68.6009V14.3647H67.7582V8.59562H65.9895V7.91037H70.3604ZM76.7927 14.4296C76.1938 14.4296 75.6475 14.2907 75.1536 14.0129C74.6597 13.7289 74.2677 13.3369 73.9776 12.8368C73.6936 12.3306 73.5516 11.7626 73.5516 11.1329C73.5516 10.5032 73.6936 9.93836 73.9776 9.43831C74.2677 8.93208 74.6597 8.54006 75.1536 8.26226C75.6475 7.97828 76.1938 7.83629 76.7927 7.83629C77.3977 7.83629 77.9471 7.97828 78.441 8.26226C78.9349 8.54006 79.3238 8.92899 79.6078 9.42904C79.8918 9.9291 80.0338 10.4971 80.0338 11.1329C80.0338 11.7688 79.8918 12.3368 79.6078 12.8368C79.3238 13.3369 78.9349 13.7289 78.441 14.0129C77.9471 14.2907 77.3977 14.4296 76.7927 14.4296ZM76.7927 13.698C77.2433 13.698 77.6477 13.5931 78.0058 13.3832C78.37 13.1733 78.654 12.8738 78.8577 12.4849C79.0676 12.096 79.1726 11.6453 79.1726 11.1329C79.1726 10.6144 79.0676 10.1637 78.8577 9.78093C78.654 9.392 78.3731 9.09259 78.015 8.88269C77.657 8.67279 77.2495 8.56784 76.7927 8.56784C76.3358 8.56784 75.9284 8.67279 75.5703 8.88269C75.2123 9.09259 74.9283 9.392 74.7184 9.78093C74.5147 10.1637 74.4128 10.6144 74.4128 11.1329C74.4128 11.6453 74.5147 12.096 74.7184 12.4849C74.9283 12.8738 75.2123 13.1733 75.5703 13.3832C75.9346 13.5931 76.342 13.698 76.7927 13.698ZM86.2208 14.3647H85.3781L81.9889 9.22532V14.3647H81.1462V7.90111H81.9889L85.3781 13.0313V7.90111H86.2208V14.3647Z" fill="white"/>
<path d="M52.2037 24.0056C51.9269 23.4725 51.5424 23.0726 51.0503 22.806C50.5581 22.5292 49.9891 22.3908 49.3431 22.3908C48.6356 22.3908 48.0051 22.5497 47.4514 22.8675C46.8977 23.1854 46.462 23.6365 46.1441 24.221C45.8365 24.8054 45.6827 25.4821 45.6827 26.2511C45.6827 27.0201 45.8365 27.7019 46.1441 28.2966C46.462 28.881 46.8977 29.3322 47.4514 29.65C48.0051 29.9679 48.6356 30.1268 49.3431 30.1268C50.2967 30.1268 51.0708 29.8602 51.6655 29.3271C52.2601 28.7939 52.6241 28.071 52.7574 27.1585H48.7433V25.7589H54.6338V27.1277C54.521 27.9583 54.2236 28.7221 53.7417 29.4193C53.2701 30.1166 52.6498 30.6754 51.8808 31.0957C51.122 31.5059 50.2761 31.7109 49.3431 31.7109C48.3383 31.7109 47.4206 31.4802 46.5901 31.0188C45.7596 30.5472 45.0983 29.8961 44.6061 29.0656C44.1242 28.2351 43.8833 27.2969 43.8833 26.2511C43.8833 25.2053 44.1242 24.2671 44.6061 23.4366C45.0983 22.6061 45.7596 21.9601 46.5901 21.4987C47.4309 21.0271 48.3485 20.7913 49.3431 20.7913C50.4812 20.7913 51.4912 21.0732 52.3729 21.6372C53.265 22.1908 53.9109 22.9803 54.3108 24.0056H52.2037ZM60.0388 31.7571C59.239 31.7571 58.5162 31.5776 57.8702 31.2188C57.2243 30.8497 56.7168 30.337 56.3476 29.6808C55.9785 29.0143 55.794 28.2453 55.794 27.3738C55.794 26.5126 55.9837 25.7487 56.363 25.0822C56.7424 24.4158 57.2602 23.9031 57.9164 23.5443C58.5726 23.1854 59.3057 23.006 60.1157 23.006C60.9257 23.006 61.6588 23.1854 62.315 23.5443C62.9712 23.9031 63.489 24.4158 63.8684 25.0822C64.2477 25.7487 64.4374 26.5126 64.4374 27.3738C64.4374 28.2351 64.2426 28.999 63.853 29.6654C63.4634 30.3319 62.9302 30.8497 62.2535 31.2188C61.587 31.5776 60.8488 31.7571 60.0388 31.7571ZM60.0388 30.2345C60.4899 30.2345 60.9103 30.1268 61.2999 29.9115C61.6998 29.6962 62.0228 29.3732 62.2689 28.9426C62.5149 28.5119 62.638 27.989 62.638 27.3738C62.638 26.7586 62.5201 26.2408 62.2842 25.8205C62.0484 25.3898 61.7357 25.0669 61.3461 24.8515C60.9565 24.6362 60.5361 24.5286 60.0849 24.5286C59.6338 24.5286 59.2134 24.6362 58.8238 24.8515C58.4444 25.0669 58.142 25.3898 57.9164 25.8205C57.6908 26.2408 57.578 26.7586 57.578 27.3738C57.578 28.2864 57.8087 28.9938 58.2701 29.4962C58.7418 29.9884 59.3313 30.2345 60.0388 30.2345ZM69.8464 31.7571C69.0467 31.7571 68.3238 31.5776 67.6779 31.2188C67.0319 30.8497 66.5244 30.337 66.1553 29.6808C65.7862 29.0143 65.6016 28.2453 65.6016 27.3738C65.6016 26.5126 65.7913 25.7487 66.1707 25.0822C66.55 24.4158 67.0678 23.9031 67.724 23.5443C68.3802 23.1854 69.1133 23.006 69.9233 23.006C70.7333 23.006 71.4664 23.1854 72.1226 23.5443C72.7788 23.9031 73.2966 24.4158 73.676 25.0822C74.0554 25.7487 74.245 26.5126 74.245 27.3738C74.245 28.2351 74.0502 28.999 73.6606 29.6654C73.271 30.3319 72.7378 30.8497 72.0611 31.2188C71.3947 31.5776 70.6564 31.7571 69.8464 31.7571ZM69.8464 30.2345C70.2976 30.2345 70.7179 30.1268 71.1076 29.9115C71.5074 29.6962 71.8304 29.3732 72.0765 28.9426C72.3226 28.5119 72.4456 27.989 72.4456 27.3738C72.4456 26.7586 72.3277 26.2408 72.0919 25.8205C71.8561 25.3898 71.5433 25.0669 71.1537 24.8515C70.7641 24.6362 70.3437 24.5286 69.8926 24.5286C69.4414 24.5286 69.021 24.6362 68.6314 24.8515C68.2521 25.0669 67.9496 25.3898 67.724 25.8205C67.4984 26.2408 67.3857 26.7586 67.3857 27.3738C67.3857 28.2864 67.6164 28.9938 68.0777 29.4962C68.5494 29.9884 69.139 30.2345 69.8464 30.2345ZM79.3926 23.006C80.0488 23.006 80.6281 23.1393 81.1305 23.4058C81.6432 23.6622 82.043 23.9851 82.3301 24.3748V23.1444H84.0988V31.7571C84.0988 32.5363 83.9348 33.2284 83.6067 33.8333C83.2786 34.4485 82.8018 34.9304 82.1763 35.279C81.5611 35.6277 80.8229 35.802 79.9616 35.802C78.8133 35.802 77.8597 35.5302 77.101 34.9868C76.3423 34.4537 75.9116 33.7257 75.8091 32.8029H77.547C77.6803 33.2438 77.9623 33.5975 78.3929 33.8641C78.8338 34.1409 79.3567 34.2794 79.9616 34.2794C80.6691 34.2794 81.2382 34.064 81.6688 33.6334C82.1097 33.2028 82.3301 32.5773 82.3301 31.7571V30.3421C82.0328 30.742 81.6278 31.0804 81.1151 31.3572C80.6127 31.6238 80.0385 31.7571 79.3926 31.7571C78.6544 31.7571 77.9777 31.5725 77.3625 31.2034C76.7575 30.824 76.2756 30.3011 75.9168 29.6347C75.5682 28.9579 75.3938 28.1941 75.3938 27.3431C75.3938 26.4921 75.5682 25.7384 75.9168 25.0822C76.2756 24.426 76.7575 23.9185 77.3625 23.5596C77.9777 23.1905 78.6544 23.006 79.3926 23.006ZM82.3301 27.3738C82.3301 26.7894 82.2071 26.2819 81.961 25.8512C81.7252 25.4206 81.4125 25.0925 81.0229 24.8669C80.6332 24.6413 80.2129 24.5286 79.7617 24.5286C79.3106 24.5286 78.8902 24.6413 78.5006 24.8669C78.1109 25.0822 77.7931 25.4052 77.547 25.8358C77.3112 26.2562 77.1933 26.7586 77.1933 27.3431C77.1933 27.9275 77.3112 28.4402 77.547 28.881C77.7931 29.3219 78.1109 29.6603 78.5006 29.8961C78.9004 30.1217 79.3208 30.2345 79.7617 30.2345C80.2129 30.2345 80.6332 30.1217 81.0229 29.8961C81.4125 29.6705 81.7252 29.3424 81.961 28.9118C82.2071 28.4709 82.3301 27.9583 82.3301 27.3738ZM88.155 20.2376V31.6187H86.4017V20.2376H88.155ZM98.2237 27.1739C98.2237 27.4917 98.2032 27.7788 98.1622 28.0352H91.6873C91.7386 28.7119 91.9898 29.2553 92.4409 29.6654C92.8921 30.0755 93.4457 30.2806 94.1019 30.2806C95.0452 30.2806 95.7117 29.8859 96.1013 29.0964H97.993C97.7367 29.8756 97.2702 30.5164 96.5935 31.0188C95.927 31.511 95.0965 31.7571 94.1019 31.7571C93.2919 31.7571 92.564 31.5776 91.918 31.2188C91.2823 30.8497 90.7799 30.337 90.4108 29.6808C90.0519 29.0143 89.8725 28.2453 89.8725 27.3738C89.8725 26.5023 90.0468 25.7384 90.3954 25.0822C90.7543 24.4158 91.2515 23.9031 91.8872 23.5443C92.5332 23.1854 93.2714 23.006 94.1019 23.006C94.9017 23.006 95.6143 23.1803 96.2397 23.5289C96.8652 23.8775 97.3522 24.3696 97.7008 25.0053C98.0494 25.6308 98.2237 26.3536 98.2237 27.1739ZM96.3935 26.6202C96.3833 25.9743 96.1526 25.4565 95.7014 25.0669C95.2503 24.6772 94.6915 24.4824 94.025 24.4824C93.4201 24.4824 92.9023 24.6772 92.4717 25.0669C92.041 25.4462 91.7847 25.964 91.7027 26.6202H96.3935ZM111.419 24.1133C111.419 24.6567 111.291 25.1694 111.034 25.6513C110.778 26.1332 110.368 26.5279 109.804 26.8355C109.24 27.1329 108.517 27.2815 107.635 27.2815H105.698V31.6187H103.944V20.9297H107.635C108.456 20.9297 109.148 21.0732 109.712 21.3603C110.286 21.6372 110.711 22.0165 110.988 22.4984C111.275 22.9803 111.419 23.5186 111.419 24.1133ZM107.635 25.8512C108.302 25.8512 108.799 25.7026 109.127 25.4052C109.455 25.0976 109.619 24.667 109.619 24.1133C109.619 22.9444 108.958 22.36 107.635 22.36H105.698V25.8512H107.635ZM114.844 20.2376V31.6187H113.091V20.2376H114.844ZM116.562 27.3431C116.562 26.4921 116.736 25.7384 117.085 25.0822C117.444 24.426 117.926 23.9185 118.53 23.5596C119.146 23.1905 119.822 23.006 120.561 23.006C121.227 23.006 121.806 23.1393 122.299 23.4058C122.801 23.6622 123.201 23.9851 123.498 24.3748V23.1444H125.267V31.6187H123.498V30.3575C123.201 30.7574 122.796 31.0906 122.283 31.3572C121.77 31.6238 121.186 31.7571 120.53 31.7571C119.802 31.7571 119.135 31.5725 118.53 31.2034C117.926 30.824 117.444 30.3011 117.085 29.6347C116.736 28.9579 116.562 28.1941 116.562 27.3431ZM123.498 27.3738C123.498 26.7894 123.375 26.2819 123.129 25.8512C122.893 25.4206 122.58 25.0925 122.191 24.8669C121.801 24.6413 121.381 24.5286 120.93 24.5286C120.479 24.5286 120.058 24.6413 119.669 24.8669C119.279 25.0822 118.961 25.4052 118.715 25.8358C118.479 26.2562 118.361 26.7586 118.361 27.3431C118.361 27.9275 118.479 28.4402 118.715 28.881C118.961 29.3219 119.279 29.6603 119.669 29.8961C120.068 30.1217 120.489 30.2345 120.93 30.2345C121.381 30.2345 121.801 30.1217 122.191 29.8961C122.58 29.6705 122.893 29.3424 123.129 28.9118C123.375 28.4709 123.498 27.9583 123.498 27.3738ZM135.198 23.1444L130 35.602H128.185L129.907 31.4802L126.57 23.1444H128.523L130.907 29.6039L133.383 23.1444H135.198Z" fill="white"/>
<path d="M21.8993 20.8196L10.2241 33.1667C10.3552 33.6357 10.5908 34.0682 10.9129 34.4312C11.235 34.7942 11.6351 35.0781 12.0825 35.2611C12.53 35.4441 13.013 35.5215 13.4945 35.4872C13.9761 35.4529 14.4436 35.308 14.8612 35.0634L27.998 27.5113L21.8993 20.8196Z" fill="#EA4335"/>
<path d="M33.705 18.7209L28.0242 15.4365L21.6298 21.1005L28.0502 27.4936L33.6878 24.2443C34.1872 23.9804 34.6055 23.5835 34.8974 23.0966C35.1893 22.6098 35.3436 22.0516 35.3436 21.4826C35.3436 20.9135 35.1893 20.3554 34.8974 19.8685C34.6055 19.3817 34.1872 18.9848 33.6878 18.7208L33.705 18.7209Z" fill="#FBBC04"/>
<path d="M10.2241 9.73731C10.1536 10.0007 10.1184 10.2724 10.1197 10.5452V32.3587C10.1204 32.6314 10.1555 32.9029 10.2241 33.1667L22.2996 21.1358L10.2241 9.73731Z" fill="#4285F4"/>
<path d="M21.9863 21.452L28.0242 15.4365L14.9047 7.84923C14.4111 7.55744 13.8497 7.40291 13.2777 7.40137C11.8581 7.39859 10.6101 8.34959 10.2241 9.72856L21.9863 21.452Z" fill="#34A853"/>
</svg>
