<svg width="18" height="18" viewBox="0 0 18 18" fill="none" xmlns="http://www.w3.org/2000/svg">
<path d="M1.4375 7.66667H6.22917C7.02458 7.66667 7.66667 7.02458 7.66667 6.22917V1.4375C7.66667 0.642083 7.02458 0 6.22917 0H1.4375C0.642083 0 0 0.642083 0 1.4375V6.22917C0 7.02458 0.642083 7.66667 1.4375 7.66667ZM1.91667 1.91667H5.75V5.75H1.91667V1.91667ZM15.8125 0H11.0208C10.2254 0 9.58333 0.642083 9.58333 1.4375V6.22917C9.58333 7.02458 10.2254 7.66667 11.0208 7.66667H15.8125C16.6079 7.66667 17.25 7.02458 17.25 6.22917V1.4375C17.25 0.642083 16.6079 0 15.8125 0ZM15.3333 5.75H11.5V1.91667H15.3333V5.75ZM1.4375 17.25H6.22917C7.02458 17.25 7.66667 16.6079 7.66667 15.8125V11.0208C7.66667 10.2254 7.02458 9.58333 6.22917 9.58333H1.4375C0.642083 9.58333 0 10.2254 0 11.0208V15.8125C0 16.6079 0.642083 17.25 1.4375 17.25ZM1.91667 11.5H5.75V15.3333H1.91667V11.5ZM15.8125 9.58333H11.0208C10.2254 9.58333 9.58333 10.2254 9.58333 11.0208V15.8125C9.58333 16.6079 10.2254 17.25 11.0208 17.25H15.8125C16.6079 17.25 17.25 16.6079 17.25 15.8125V11.0208C17.25 10.2254 16.6079 9.58333 15.8125 9.58333ZM15.3333 15.3333H11.5V11.5H15.3333V15.3333Z" fill="#666666"/>
</svg>
