<svg width="95" height="87" viewBox="0 0 95 87" fill="none" xmlns="http://www.w3.org/2000/svg">
<path opacity="0.85" d="M48.5 5.5C60.611 5.5 70.5 16.2042 70.5 29.5C70.5 42.7958 60.611 53.5 48.5 53.5C36.389 53.5 26.5 42.7958 26.5 29.5C26.5 16.2042 36.389 5.5 48.5 5.5Z" fill="#32CD4B" stroke="#1FAD37"/>
<path d="M48.5 0.5C53.9622 0.5 58.5 5.58392 58.5 12C58.5 18.4161 53.9622 23.5 48.5 23.5C43.0378 23.5 38.5 18.4161 38.5 12C38.5 5.58392 43.0378 0.5 48.5 0.5Z" fill="#32CD4B" stroke="#1FAD37"/>
<path opacity="0.85" d="M80.464 61.6068C75.4353 72.6245 61.5913 77.1762 49.4959 71.6555C37.4004 66.1349 31.7686 52.6941 36.7973 41.6764C41.826 30.6587 55.67 26.1071 67.7654 31.6277C79.8609 37.1484 85.4927 50.5892 80.464 61.6068Z" fill="#0357F8" stroke="#0E55E1"/>
<path d="M85.013 63.6829C82.745 68.652 76.2359 70.6691 70.399 68.0051C64.5622 65.341 61.8214 59.102 64.0894 54.1329C66.3574 49.1638 72.8665 47.1466 78.7034 49.8106C84.5402 52.4747 87.281 58.7138 85.013 63.6829Z" fill="#0357F8" stroke="#0E55E1"/>
<path opacity="0.85" d="M16.1084 63.9103C9.99333 53.4565 14.2397 39.5159 25.7161 32.8026C37.1926 26.0892 51.4253 29.2203 57.5404 39.6741C63.6555 50.1279 59.4091 64.0685 47.9327 70.7818C36.4562 77.4951 22.2236 74.3641 16.1084 63.9103Z" fill="#F6ED74" stroke="#E0D866"/>
<path d="M11.7925 66.4348C9.03451 61.72 11.1316 55.2362 16.6697 51.9965C22.2078 48.7569 28.8873 50.1068 31.6453 54.8216C34.4033 59.5364 32.3063 66.0202 26.7681 69.2598C21.23 72.4995 14.5505 71.1496 11.7925 66.4348Z" fill="#F6E851" stroke="#E0D866"/>
<circle cx="48.5" cy="42.5" r="17.5" fill="white"/>
<path d="M42.5641 46.3538L42.8983 44.2994L50.5376 34.7382H52.2507L51.7632 37.663H50.7256L45.5724 44.1184L45.5585 44.2298H54.0125L53.6574 46.3538H42.5641ZM48.922 49L49.4652 45.7201L49.6532 44.8078L51.3175 34.7382H53.7549L51.3872 49H48.922Z" fill="#E38746"/>
</svg>
