<svg width="95" height="87" viewBox="0 0 95 87" fill="none" xmlns="http://www.w3.org/2000/svg">
<path opacity="0.85" d="M48.5 5.5C60.611 5.5 70.5 16.2042 70.5 29.5C70.5 42.7958 60.611 53.5 48.5 53.5C36.389 53.5 26.5 42.7958 26.5 29.5C26.5 16.2042 36.389 5.5 48.5 5.5Z" fill="#32CD4B" stroke="#1FAD37"/>
<path d="M48.5 0.5C53.9622 0.5 58.5 5.58392 58.5 12C58.5 18.4161 53.9622 23.5 48.5 23.5C43.0378 23.5 38.5 18.4161 38.5 12C38.5 5.58392 43.0378 0.5 48.5 0.5Z" fill="#32CD4B" stroke="#1FAD37"/>
<path opacity="0.85" d="M80.464 61.6068C75.4353 72.6245 61.5913 77.1762 49.4959 71.6555C37.4004 66.1349 31.7686 52.6941 36.7973 41.6764C41.826 30.6587 55.67 26.1071 67.7654 31.6277C79.8609 37.1484 85.4927 50.5892 80.464 61.6068Z" fill="#0357F8" stroke="#0E55E1"/>
<path d="M85.013 63.6829C82.745 68.652 76.2359 70.6691 70.399 68.0051C64.5622 65.341 61.8214 59.102 64.0894 54.1329C66.3574 49.1638 72.8665 47.1466 78.7034 49.8106C84.5402 52.4747 87.281 58.7138 85.013 63.6829Z" fill="#0357F8" stroke="#0E55E1"/>
<path opacity="0.85" d="M16.1084 63.9103C9.99333 53.4565 14.2397 39.5159 25.7161 32.8026C37.1926 26.0892 51.4253 29.2203 57.5404 39.6741C63.6555 50.1279 59.4091 64.0685 47.9327 70.7818C36.4562 77.4951 22.2236 74.3641 16.1084 63.9103Z" fill="#F6ED74" stroke="#E0D866"/>
<path d="M11.7925 66.4348C9.03451 61.72 11.1316 55.2362 16.6697 51.9965C22.2078 48.7569 28.8873 50.1068 31.6453 54.8216C34.4033 59.5364 32.3063 66.0202 26.7681 69.2598C21.23 72.4995 14.5505 71.1496 11.7925 66.4348Z" fill="#F6E851" stroke="#E0D866"/>
<circle cx="48.5" cy="42.5" r="17.5" fill="white"/>
<path d="M47.3064 49.195C46.3779 49.195 45.5747 49.0209 44.8969 48.6727C44.2238 48.3199 43.7224 47.837 43.3928 47.2242C43.0631 46.6114 42.9494 45.9104 43.0515 45.1212H45.5585C45.5074 45.7015 45.6815 46.1773 46.0808 46.5487C46.4847 46.9202 47.0046 47.1059 47.6407 47.1059C48.156 47.1059 48.6295 46.9898 49.0613 46.7577C49.4977 46.5255 49.8621 46.2052 50.1546 45.7967C50.4471 45.3835 50.6397 44.9099 50.7326 44.3761C50.8208 43.8375 50.7836 43.3593 50.6212 42.9415C50.4587 42.519 50.194 42.1894 49.8273 41.9527C49.4605 41.7159 49.0148 41.5975 48.4902 41.5975C48.0678 41.5975 47.636 41.6787 47.195 41.8412C46.7586 41.9991 46.3941 42.2103 46.1017 42.4749L43.8315 42.0919L45.8022 34.7382H54.0752L53.727 36.897H47.585L46.5473 40.6783H46.6309C46.9512 40.3626 47.3691 40.1026 47.8844 39.8983C48.3997 39.6941 48.9475 39.5919 49.5278 39.5919C50.3914 39.5919 51.1272 39.7962 51.7354 40.2047C52.3435 40.6086 52.7823 41.1681 53.0515 41.883C53.3254 42.5933 53.3835 43.4034 53.2256 44.3134C53.0771 45.2558 52.7242 46.0961 52.1671 46.8343C51.6147 47.5678 50.9183 48.1458 50.078 48.5682C49.2423 48.9861 48.3185 49.195 47.3064 49.195Z" fill="#E38746"/>
</svg>
