<svg width="46" height="52" viewBox="0 0 46 52" fill="none" xmlns="http://www.w3.org/2000/svg">
<path fill-rule="evenodd" clip-rule="evenodd" d="M21.206 0.332967C22.3627 -0.110989 23.6373 -0.110989 24.794 0.332967L42.6829 7.20169C43.6573 7.57569 44.4971 8.24535 45.0898 9.12115C45.6826 9.99694 46.0001 11.0371 46 12.1027V26.1358C46.0001 30.5093 44.8107 34.7965 42.5652 38.5169C40.3196 42.2373 37.1066 45.2439 33.2861 47.1999L24.7148 51.5854C24.1824 51.858 23.5953 52 23 52C22.4047 52 21.8176 51.858 21.2852 51.5854L12.7139 47.1973C8.89343 45.2413 5.68041 42.2347 3.43484 38.5143C1.18928 34.7939 -9.11236e-05 30.5067 9.97081e-07 26.1332V12.1053C-0.000649136 11.0393 0.316647 9.99854 0.909441 9.12222C1.50223 8.24591 2.34225 7.57585 3.31711 7.20169L21.206 0.332967ZM25.5556 25.288C26.5299 24.712 27.2914 23.8228 27.7219 22.7585C28.1524 21.6942 28.2279 20.5142 27.9367 19.4015C27.6455 18.2887 27.0039 17.3055 26.1113 16.6042C25.2187 15.9029 24.1251 15.5227 23 15.5227C21.8749 15.5227 20.7813 15.9029 19.8887 16.6042C18.9961 17.3055 18.3545 18.2887 18.0633 19.4015C17.7721 20.5142 17.8476 21.6942 18.2781 22.7585C18.7086 23.8228 19.4701 24.712 20.4444 25.288V33.8392C20.4444 34.5332 20.7137 35.1988 21.1929 35.6895C21.6722 36.1802 22.3222 36.4559 23 36.4559C23.6778 36.4559 24.3278 36.1802 24.8071 35.6895C25.2863 35.1988 25.5556 34.5332 25.5556 33.8392V25.288Z" fill="white"/>
</svg>
