<svg width="26" height="26" viewBox="0 0 26 26" fill="none" xmlns="http://www.w3.org/2000/svg">
<path d="M19.0625 11.9584L20.01 12.2783L20.0101 12.2778L19.0625 11.9584ZM20.2025 10.9948L20.6166 11.905L20.6186 11.9041L20.2025 10.9948ZM21.2765 10.6048L21.1974 9.60793L21.196 9.60804L21.2765 10.6048ZM22.1417 10.7908L21.6529 11.6632L21.6534 11.6635L22.1417 10.7908ZM22.9696 11.6476L22.1973 12.2829L22.1975 12.283L22.9696 11.6476ZM24.874 14.4676L23.9092 14.7306L23.9097 14.7323L24.874 14.4676ZM24.874 16.3312L23.9098 16.066L23.9091 16.0685L24.874 16.3312ZM22.912 19.2232L23.6836 19.8594L23.6843 19.8585L22.912 19.2232ZM22.1417 20.0092L22.6267 20.8837L22.6324 20.8805L22.1417 20.0092ZM21.2765 20.1952L21.3592 19.1986L21.3569 19.1984L21.2765 20.1952ZM20.2013 19.8052L20.6166 18.8955L20.6154 18.895L20.2013 19.8052ZM19.0625 18.8416L20.0101 18.5222L20.01 18.5217L19.0625 18.8416ZM6.56357 11.4064L7.21965 10.6517L7.21873 10.6509L6.56357 11.4064ZM5.79918 10.9948L6.21501 10.0854L6.21284 10.0844L5.79918 10.9948ZM4.724 10.6048L4.6433 11.6015L4.64354 11.6016L4.724 10.6048ZM3.03204 11.6488L3.80362 12.2849L3.80511 12.2831L3.03204 11.6488ZM1.12527 14.4688L2.08977 14.7329L2.08979 14.7328L1.12527 14.4688ZM1.12527 16.3324L2.08982 16.0685L2.08977 16.0683L1.12527 16.3324ZM3.08843 19.2232L2.31606 19.8584L2.31684 19.8593L3.08843 19.2232ZM4.724 20.1952L4.80381 21.192L4.80446 21.192L4.724 20.1952ZM5.79918 19.8052L5.38658 18.8943L5.38384 18.8955L5.79918 19.8052ZM6.56357 19.3936L7.21873 20.1491L7.21965 20.1483L6.56357 19.3936ZM21.6 11.2C21.6 11.7523 22.0478 12.2 22.6 12.2C23.1523 12.2 23.6 11.7523 23.6 11.2H22.6H21.6ZM2.40043 11.2C2.40043 11.7523 2.84814 12.2 3.40043 12.2C3.95271 12.2 4.40043 11.7523 4.40043 11.2H3.40043H2.40043ZM23.6 19.6C23.6 19.0477 23.1523 18.6 22.6 18.6C22.0478 18.6 21.6 19.0477 21.6 19.6H22.6H23.6ZM13.0002 24C12.448 24 12.0002 24.4477 12.0002 25C12.0002 25.5523 12.448 26 13.0002 26V25V24ZM19.0001 12.766H20.0001C20.0001 12.5465 20.0006 12.4264 20.006 12.3371C20.0108 12.2598 20.0171 12.2571 20.01 12.2783L19.0625 11.9584L18.1151 11.6385C17.9876 12.0159 18.0001 12.4211 18.0001 12.766H19.0001ZM19.0625 11.9584L20.0101 12.2778C20.0198 12.2493 20.0319 12.2211 20.1066 12.1671C20.2112 12.0914 20.3492 12.0267 20.6166 11.905L20.2025 10.9948L19.7883 10.0846C19.3992 10.2616 18.4578 10.6217 18.1149 11.639L19.0625 11.9584ZM20.2025 10.9948L20.6186 11.9041C21.227 11.6257 21.3071 11.6056 21.3569 11.6016L21.2765 10.6048L21.196 9.60804C20.7106 9.64722 20.2531 9.87191 19.7864 10.0855L20.2025 10.9948ZM21.2765 10.6048L21.3556 11.6017C21.4666 11.5929 21.5718 11.6178 21.6529 11.6632L22.1417 10.7908L22.6304 9.91837C22.1932 9.67344 21.6911 9.56875 21.1974 9.60793L21.2765 10.6048ZM22.1417 10.7908L21.6534 11.6635C21.6802 11.6785 21.7377 11.7209 21.8391 11.8371C21.9749 11.9928 22.0101 12.0552 22.1973 12.2829L22.9696 11.6476L23.7419 11.0123C23.6844 10.9424 23.4772 10.6724 23.346 10.5221C23.1804 10.3323 22.9463 10.0951 22.6299 9.91809L22.1417 10.7908ZM22.9696 11.6476L22.1975 12.283C22.7729 12.9823 23.169 13.4645 23.4512 13.8652C23.7265 14.2561 23.8488 14.5089 23.9092 14.7306L24.874 14.4676L25.8388 14.2046C25.6928 13.6691 25.4287 13.1995 25.0863 12.7135C24.7509 12.2373 24.298 11.6881 23.7418 11.0122L22.9696 11.6476ZM24.874 14.4676L23.9097 14.7323C24.0302 15.1712 24.03 15.6289 23.9098 16.066L24.874 16.3312L25.8382 16.5964C26.054 15.8119 26.0538 14.988 25.8383 14.2029L24.874 14.4676ZM24.874 16.3312L23.9091 16.0685C23.8081 16.4398 23.5831 16.8273 23.2504 17.263C22.8896 17.7354 22.5572 18.0804 22.1398 18.5879L22.912 19.2232L23.6843 19.8585C23.9736 19.5068 24.4716 18.959 24.8399 18.4768C25.2361 17.9579 25.6388 17.329 25.8389 16.5939L24.874 16.3312ZM22.912 19.2232L22.1405 18.587C21.7268 19.0887 21.6776 19.1229 21.651 19.1379L22.1417 20.0092L22.6324 20.8805C23.0617 20.6387 23.3749 20.2337 23.6836 19.8594L22.912 19.2232ZM22.1417 20.0092L21.6567 19.1347C21.566 19.185 21.4625 19.2072 21.3592 19.1986L21.2765 20.1952L21.1937 21.1918C21.6913 21.2331 22.19 21.1259 22.6266 20.8837L22.1417 20.0092ZM21.2765 20.1952L21.3569 19.1984C21.3068 19.1944 21.2269 19.1742 20.6166 18.8955L20.2013 19.8052L19.786 20.7149C20.2533 20.9282 20.711 21.1528 21.196 21.192L21.2765 20.1952ZM20.2013 19.8052L20.6154 18.895C20.3483 18.7734 20.2107 18.7088 20.1066 18.6333C20.0324 18.5796 20.02 18.5514 20.0101 18.5222L19.0625 18.8416L18.1149 19.161C18.4576 20.1778 19.3967 20.5377 19.7871 20.7154L20.2013 19.8052ZM19.0625 18.8416L20.01 18.5217C20.0171 18.5429 20.0108 18.5402 20.006 18.4629C20.0006 18.3739 20.0001 18.2541 20.0001 18.0352H19.0001H18.0001C18.0001 18.379 17.9876 18.7841 18.1151 19.1615L19.0625 18.8416ZM19.0001 18.0352H20.0001V12.766H19.0001H18.0001V18.0352H19.0001ZM7.00036 12.766H8.00036C8.00036 12.2791 8.02297 11.3501 7.21965 10.6517L6.56357 11.4064L5.90749 12.1611C5.93331 12.1835 5.9427 12.198 5.94695 12.2053C5.95187 12.2137 5.96053 12.231 5.96947 12.2672C5.99258 12.3609 6.00036 12.4915 6.00036 12.766H7.00036ZM6.56357 11.4064L7.21873 10.6509C6.92964 10.4002 6.56043 10.2433 6.21501 10.0854L5.79918 10.9948L5.38335 11.9042C5.59692 12.0019 5.72172 12.0591 5.81465 12.1075C5.89962 12.1517 5.91363 12.1664 5.9084 12.1619L6.56357 11.4064ZM5.79918 10.9948L6.21284 10.0844C5.74976 9.87397 5.28945 9.64719 4.80446 9.60804L4.724 10.6048L4.64354 11.6016C4.69374 11.6056 4.77102 11.626 5.38552 11.9052L5.79918 10.9948ZM4.724 10.6048L4.8047 9.60806C3.4017 9.49447 2.64609 10.5427 2.25896 11.0145L3.03204 11.6488L3.80511 12.2831C4.0598 11.9727 4.20214 11.8032 4.35046 11.6921C4.4523 11.6157 4.52316 11.5918 4.6433 11.6015L4.724 10.6048ZM3.03204 11.6488L2.26045 11.0127C1.70353 11.6882 1.25033 12.237 0.914436 12.7134C0.571565 13.1997 0.307337 13.6693 0.160755 14.2048L1.12527 14.4688L2.08979 14.7328C2.15081 14.5099 2.27357 14.2565 2.54899 13.8659C2.83138 13.4654 3.22776 12.9834 3.80362 12.2849L3.03204 11.6488ZM1.12527 14.4688L0.160781 14.2047C-0.0535936 14.9876 -0.0535936 15.8136 0.160781 16.5965L1.12527 16.3324L2.08977 16.0683C1.97008 15.6312 1.97008 15.17 2.08977 14.7329L1.12527 14.4688ZM1.12527 16.3324L0.160726 16.5963C0.361626 17.3306 0.764823 17.9592 1.16114 18.4777C1.52909 18.9592 2.02789 19.5079 2.31606 19.8584L3.08843 19.2232L3.86081 18.588C3.44339 18.0805 3.11181 17.7364 2.75018 17.2633C2.4169 16.8272 2.19131 16.4394 2.08982 16.0685L1.12527 16.3324ZM3.08843 19.2232L2.31684 19.8593C2.72069 20.3492 3.45831 21.2997 4.80381 21.192L4.724 20.1952L4.64419 19.1984C4.52507 19.2079 4.45697 19.1843 4.36583 19.1195C4.23319 19.0253 4.09506 18.8722 3.86002 18.5871L3.08843 19.2232ZM4.724 20.1952L4.80446 21.192C5.2895 21.1528 5.74721 20.9282 6.21452 20.7149L5.79918 19.8052L5.38384 18.8955C4.77358 19.1742 4.69369 19.1944 4.64354 19.1984L4.724 20.1952ZM5.79918 19.8052L6.21178 20.7161C6.56625 20.5556 6.92961 20.3998 7.21873 20.1491L6.56357 19.3936L5.9084 18.6381C5.91197 18.635 5.89683 18.6503 5.81378 18.6937C5.72292 18.7411 5.59836 18.7984 5.38658 18.8943L5.79918 19.8052ZM6.56357 19.3936L7.21965 20.1483C8.02287 19.45 8.00036 18.5212 8.00036 18.0352H7.00036H6.00036C6.00036 18.309 5.99258 18.4393 5.96951 18.5328C5.96057 18.569 5.95193 18.5862 5.94699 18.5947C5.94272 18.602 5.93331 18.6165 5.90749 18.6389L6.56357 19.3936ZM7.00036 18.0352H8.00036V12.766H7.00036H6.00036V18.0352H7.00036ZM22.6 11.2H23.6V9.4H22.6H21.6V11.2H22.6ZM22.6 9.4H23.6C23.6 4.08726 18.7244 0 13.0002 0V1V2C17.8791 2 21.6 5.43434 21.6 9.4H22.6ZM13.0002 1V0C7.27607 0 2.40043 4.08726 2.40043 9.4H3.40043H4.40043C4.40043 5.43434 8.12142 2 13.0002 2V1ZM3.40043 9.4H2.40043V11.2H3.40043H4.40043V9.4H3.40043ZM22.6 19.6H21.6C21.6 20.8012 21.3345 21.6007 20.9525 22.1532C20.5715 22.7043 20.0101 23.1033 19.249 23.3887C17.6555 23.9862 15.4624 24 13.0002 24V25V26C15.3379 26 17.9448 26.0138 19.9512 25.2613C20.9901 24.8717 21.9286 24.2582 22.5976 23.2906C23.2656 22.3243 23.6 21.0988 23.6 19.6H22.6Z" fill="#666666"/>
</svg>
