<svg width="205" height="56" viewBox="0 0 205 56" fill="none" xmlns="http://www.w3.org/2000/svg">
<rect x="0.662983" y="0.662983" width="202.873" height="54.3646" rx="8.20062" stroke="white" stroke-width="1.32597"/>
<path d="M75.7518 9.70056C76.7242 9.70056 77.5773 9.89062 78.311 10.2707C79.0535 10.6508 79.6237 11.1945 80.0215 11.9017C80.4281 12.6 80.6314 13.4133 80.6314 14.3414C80.6314 15.2696 80.4281 16.0829 80.0215 16.7812C79.6237 17.4707 79.0535 18.0055 78.311 18.3856C77.5773 18.7658 76.7242 18.9558 75.7518 18.9558H72.5165V9.70056H75.7518ZM75.6855 17.3779C76.6579 17.3779 77.4093 17.1127 77.9397 16.5823C78.4701 16.0519 78.7353 15.305 78.7353 14.3414C78.7353 13.3779 78.4701 12.6265 77.9397 12.0873C77.4093 11.5392 76.6579 11.2652 75.6855 11.2652H74.3728V17.3779H75.6855ZM85.2828 19.0751C84.5757 19.0751 83.9392 18.9205 83.3735 18.6111C82.8077 18.2928 82.3613 17.8464 82.0342 17.2718C81.716 16.6972 81.5569 16.0343 81.5569 15.2829C81.5569 14.5315 81.7204 13.8685 82.0475 13.2939C82.3834 12.7193 82.8386 12.2774 83.4132 11.968C83.9878 11.6497 84.6287 11.4906 85.3359 11.4906C86.0431 11.4906 86.684 11.6497 87.2585 11.968C87.8331 12.2774 88.284 12.7193 88.611 13.2939C88.9469 13.8685 89.1149 14.5315 89.1149 15.2829C89.1149 16.0343 88.9425 16.6972 88.5978 17.2718C88.2619 17.8464 87.8022 18.2928 87.2188 18.6111C86.6442 18.9205 85.9989 19.0751 85.2828 19.0751ZM85.2828 17.4575C85.6188 17.4575 85.9326 17.3779 86.2243 17.2188C86.5248 17.0508 86.7635 16.8033 86.9403 16.4763C87.1171 16.1492 87.2055 15.7514 87.2055 15.2829C87.2055 14.5845 87.0199 14.0497 86.6486 13.6785C86.2862 13.2984 85.8398 13.1083 85.3094 13.1083C84.779 13.1083 84.3326 13.2984 83.9701 13.6785C83.6165 14.0497 83.4398 14.5845 83.4398 15.2829C83.4398 15.9812 83.6121 16.5205 83.9569 16.9006C84.3105 17.2718 84.7525 17.4575 85.2828 17.4575ZM100.66 11.61L98.512 18.9558H96.5097L95.1705 13.8243L93.8313 18.9558H91.8158L89.6545 11.61H91.5374L92.8368 17.2055L94.2423 11.61H96.2048L97.5838 17.1923L98.8832 11.61H100.66ZM105.735 11.5039C106.61 11.5039 107.317 11.7823 107.857 12.3392C108.396 12.8873 108.666 13.6564 108.666 14.6464V18.9558H106.809V14.8984C106.809 14.3149 106.663 13.8685 106.372 13.5591C106.08 13.2409 105.682 13.0818 105.178 13.0818C104.666 13.0818 104.259 13.2409 103.958 13.5591C103.667 13.8685 103.521 14.3149 103.521 14.8984V18.9558H101.664V11.61H103.521V12.5249C103.768 12.2066 104.082 11.9591 104.462 11.7823C104.851 11.5967 105.275 11.5039 105.735 11.5039ZM112.287 9.14366V18.9558H110.431V9.14366H112.287ZM117.383 19.0751C116.676 19.0751 116.04 18.9205 115.474 18.6111C114.908 18.2928 114.462 17.8464 114.135 17.2718C113.816 16.6972 113.657 16.0343 113.657 15.2829C113.657 14.5315 113.821 13.8685 114.148 13.2939C114.484 12.7193 114.939 12.2774 115.514 11.968C116.088 11.6497 116.729 11.4906 117.436 11.4906C118.143 11.4906 118.784 11.6497 119.359 11.968C119.933 12.2774 120.384 12.7193 120.711 13.2939C121.047 13.8685 121.215 14.5315 121.215 15.2829C121.215 16.0343 121.043 16.6972 120.698 17.2718C120.362 17.8464 119.902 18.2928 119.319 18.6111C118.744 18.9205 118.099 19.0751 117.383 19.0751ZM117.383 17.4575C117.719 17.4575 118.033 17.3779 118.325 17.2188C118.625 17.0508 118.864 16.8033 119.041 16.4763C119.217 16.1492 119.306 15.7514 119.306 15.2829C119.306 14.5845 119.12 14.0497 118.749 13.6785C118.386 13.2984 117.94 13.1083 117.41 13.1083C116.879 13.1083 116.433 13.2984 116.07 13.6785C115.717 14.0497 115.54 14.5845 115.54 15.2829C115.54 15.9812 115.712 16.5205 116.057 16.9006C116.411 17.2718 116.853 17.4575 117.383 17.4575ZM122.1 15.2564C122.1 14.5138 122.245 13.8553 122.537 13.2807C122.838 12.7061 123.24 12.2641 123.744 11.9547C124.256 11.6453 124.827 11.4906 125.454 11.4906C126.002 11.4906 126.48 11.6011 126.886 11.8221C127.302 12.0431 127.633 12.3216 127.881 12.6575V11.61H129.75V18.9558H127.881V17.8818C127.642 18.2265 127.311 18.5138 126.886 18.7437C126.471 18.9647 125.989 19.0751 125.441 19.0751C124.822 19.0751 124.256 18.916 123.744 18.5978C123.24 18.2796 122.838 17.8332 122.537 17.2586C122.245 16.6751 122.1 16.0077 122.1 15.2564ZM127.881 15.2829C127.881 14.8321 127.792 14.4475 127.616 14.1293C127.439 13.8022 127.2 13.5547 126.9 13.3867C126.599 13.21 126.276 13.1216 125.932 13.1216C125.587 13.1216 125.269 13.2055 124.977 13.3735C124.685 13.5414 124.447 13.789 124.261 14.116C124.084 14.4343 123.996 14.8144 123.996 15.2564C123.996 15.6984 124.084 16.0873 124.261 16.4232C124.447 16.7503 124.685 17.0022 124.977 17.179C125.277 17.3558 125.596 17.4442 125.932 17.4442C126.276 17.4442 126.599 17.3602 126.9 17.1923C127.2 17.0155 127.439 16.768 127.616 16.4497C127.792 16.1227 127.881 15.7337 127.881 15.2829ZM131.086 15.2564C131.086 14.5138 131.232 13.8553 131.524 13.2807C131.824 12.7061 132.231 12.2641 132.744 11.9547C133.256 11.6453 133.826 11.4906 134.454 11.4906C134.931 11.4906 135.387 11.5967 135.82 11.8088C136.253 12.0122 136.598 12.2862 136.854 12.6309V9.14366H138.737V18.9558H136.854V17.8685C136.624 18.2309 136.302 18.5227 135.886 18.7437C135.471 18.9647 134.989 19.0751 134.441 19.0751C133.822 19.0751 133.256 18.916 132.744 18.5978C132.231 18.2796 131.824 17.8332 131.524 17.2586C131.232 16.6751 131.086 16.0077 131.086 15.2564ZM136.867 15.2829C136.867 14.8321 136.779 14.4475 136.602 14.1293C136.425 13.8022 136.187 13.5547 135.886 13.3867C135.586 13.21 135.263 13.1216 134.918 13.1216C134.573 13.1216 134.255 13.2055 133.963 13.3735C133.672 13.5414 133.433 13.789 133.247 14.116C133.071 14.4343 132.982 14.8144 132.982 15.2564C132.982 15.6984 133.071 16.0873 133.247 16.4232C133.433 16.7503 133.672 17.0022 133.963 17.179C134.264 17.3558 134.582 17.4442 134.918 17.4442C135.263 17.4442 135.586 17.3602 135.886 17.1923C136.187 17.0155 136.425 16.768 136.602 16.4497C136.779 16.1227 136.867 15.7337 136.867 15.2829ZM146.971 19.0751C146.264 19.0751 145.628 18.9205 145.062 18.6111C144.496 18.2928 144.05 17.8464 143.723 17.2718C143.405 16.6972 143.245 16.0343 143.245 15.2829C143.245 14.5315 143.409 13.8685 143.736 13.2939C144.072 12.7193 144.527 12.2774 145.102 11.968C145.676 11.6497 146.317 11.4906 147.024 11.4906C147.732 11.4906 148.372 11.6497 148.947 11.968C149.522 12.2774 149.972 12.7193 150.3 13.2939C150.635 13.8685 150.803 14.5315 150.803 15.2829C150.803 16.0343 150.631 16.6972 150.286 17.2718C149.95 17.8464 149.491 18.2928 148.907 18.6111C148.333 18.9205 147.687 19.0751 146.971 19.0751ZM146.971 17.4575C147.307 17.4575 147.621 17.3779 147.913 17.2188C148.213 17.0508 148.452 16.8033 148.629 16.4763C148.806 16.1492 148.894 15.7514 148.894 15.2829C148.894 14.5845 148.708 14.0497 148.337 13.6785C147.975 13.2984 147.528 13.1083 146.998 13.1083C146.468 13.1083 146.021 13.2984 145.659 13.6785C145.305 14.0497 145.128 14.5845 145.128 15.2829C145.128 15.9812 145.301 16.5205 145.645 16.9006C145.999 17.2718 146.441 17.4575 146.971 17.4575ZM156.236 11.5039C157.111 11.5039 157.818 11.7823 158.357 12.3392C158.897 12.8873 159.166 13.6564 159.166 14.6464V18.9558H157.31V14.8984C157.31 14.3149 157.164 13.8685 156.872 13.5591C156.581 13.2409 156.183 13.0818 155.679 13.0818C155.166 13.0818 154.76 13.2409 154.459 13.5591C154.167 13.8685 154.021 14.3149 154.021 14.8984V18.9558H152.165V11.61H154.021V12.5249C154.269 12.2066 154.583 11.9591 154.963 11.7823C155.352 11.5967 155.776 11.5039 156.236 11.5039ZM166.252 13.1348V16.6884C166.252 16.9359 166.31 17.1171 166.425 17.2321C166.549 17.3381 166.752 17.3912 167.035 17.3912H167.897V18.9558H166.73C165.165 18.9558 164.383 18.1956 164.383 16.6751V13.1348H163.508V11.61H164.383V9.79338H166.252V11.61H167.897V13.1348H166.252ZM173.369 11.5039C173.926 11.5039 174.421 11.6276 174.854 11.8751C175.287 12.1138 175.623 12.4718 175.862 12.9492C176.109 13.4177 176.233 13.9834 176.233 14.6464V18.9558H174.377V14.8984C174.377 14.3149 174.231 13.8685 173.939 13.5591C173.647 13.2409 173.249 13.0818 172.746 13.0818C172.233 13.0818 171.826 13.2409 171.526 13.5591C171.234 13.8685 171.088 14.3149 171.088 14.8984V18.9558H169.232V9.14366H171.088V12.5249C171.327 12.2066 171.645 11.9591 172.043 11.7823C172.441 11.5967 172.883 11.5039 173.369 11.5039ZM184.827 15.1238C184.827 15.389 184.809 15.6276 184.774 15.8398H179.404C179.448 16.3702 179.634 16.7856 179.961 17.0862C180.288 17.3867 180.69 17.537 181.167 17.537C181.857 17.537 182.347 17.2409 182.639 16.6486H184.641C184.429 17.3558 184.022 17.9392 183.421 18.3989C182.82 18.8497 182.082 19.0751 181.207 19.0751C180.5 19.0751 179.863 18.9205 179.298 18.6111C178.741 18.2928 178.303 17.8464 177.985 17.2718C177.676 16.6972 177.521 16.0343 177.521 15.2829C177.521 14.5227 177.676 13.8553 177.985 13.2807C178.294 12.7061 178.727 12.2641 179.284 11.9547C179.841 11.6453 180.482 11.4906 181.207 11.4906C181.905 11.4906 182.529 11.6409 183.077 11.9414C183.634 12.242 184.062 12.6707 184.363 13.2276C184.672 13.7757 184.827 14.4077 184.827 15.1238ZM182.904 14.5934C182.895 14.116 182.723 13.7359 182.387 13.453C182.051 13.1613 181.64 13.0155 181.154 13.0155C180.694 13.0155 180.305 13.1569 179.987 13.4398C179.678 13.7138 179.488 14.0984 179.417 14.5934H182.904Z" fill="white"/>
<path d="M77.5091 35.5702H71.9798L71.0649 38.2155H68.1412L73.1334 24.3127H76.3754L81.3677 38.2155H78.424L77.5091 35.5702ZM76.7533 33.3425L74.7445 27.5348L72.7356 33.3425H76.7533ZM86.0182 28.7878C86.3763 28.284 86.8669 27.8663 87.4901 27.5348C88.1265 27.19 88.8492 27.0177 89.658 27.0177C90.5995 27.0177 91.4481 27.2497 92.2039 27.7138C92.9729 28.1779 93.5763 28.8409 94.0138 29.7027C94.4646 30.5514 94.6901 31.5392 94.6901 32.6663C94.6901 33.7934 94.4646 34.7945 94.0138 35.6696C93.5763 36.5315 92.9729 37.2011 92.2039 37.6784C91.4481 38.1558 90.5995 38.3945 89.658 38.3945C88.8492 38.3945 88.1332 38.2287 87.51 37.8972C86.9 37.5657 86.4028 37.1481 86.0182 36.6442V43.4663H83.2337V27.1967H86.0182V28.7878ZM91.8459 32.6663C91.8459 32.0033 91.7066 31.4331 91.4282 30.9558C91.163 30.4652 90.805 30.0939 90.3542 29.842C89.9166 29.59 89.4392 29.4641 88.9221 29.4641C88.4182 29.4641 87.9409 29.5967 87.4901 29.8619C87.0525 30.1138 86.6945 30.4851 86.416 30.9757C86.1508 31.4663 86.0182 32.0431 86.0182 32.7061C86.0182 33.369 86.1508 33.9458 86.416 34.4364C86.6945 34.9271 87.0525 35.305 87.4901 35.5702C87.9409 35.8221 88.4182 35.9481 88.9221 35.9481C89.4392 35.9481 89.9166 35.8155 90.3542 35.5503C90.805 35.2851 91.163 34.9072 91.4282 34.4166C91.7066 33.926 91.8459 33.3425 91.8459 32.6663ZM99.498 28.7878C99.8561 28.284 100.347 27.8663 100.97 27.5348C101.606 27.19 102.329 27.0177 103.138 27.0177C104.079 27.0177 104.928 27.2497 105.684 27.7138C106.453 28.1779 107.056 28.8409 107.494 29.7027C107.944 30.5514 108.17 31.5392 108.17 32.6663C108.17 33.7934 107.944 34.7945 107.494 35.6696C107.056 36.5315 106.453 37.2011 105.684 37.6784C104.928 38.1558 104.079 38.3945 103.138 38.3945C102.329 38.3945 101.613 38.2287 100.99 37.8972C100.38 37.5657 99.8826 37.1481 99.498 36.6442V43.4663H96.7135V27.1967H99.498V28.7878ZM105.326 32.6663C105.326 32.0033 105.186 31.4331 104.908 30.9558C104.643 30.4652 104.285 30.0939 103.834 29.842C103.396 29.59 102.919 29.4641 102.402 29.4641C101.898 29.4641 101.421 29.5967 100.97 29.8619C100.532 30.1138 100.174 30.4851 99.8958 30.9757C99.6306 31.4663 99.498 32.0431 99.498 32.7061C99.498 33.369 99.6306 33.9458 99.8958 34.4364C100.174 34.9271 100.532 35.305 100.97 35.5702C101.421 35.8221 101.898 35.9481 102.402 35.9481C102.919 35.9481 103.396 35.8155 103.834 35.5503C104.285 35.2851 104.643 34.9072 104.908 34.4166C105.186 33.926 105.326 33.3425 105.326 32.6663ZM119.726 38.3547C118.758 38.3547 117.883 38.1889 117.101 37.8574C116.332 37.526 115.722 37.0486 115.271 36.4254C114.82 35.8022 114.588 35.0663 114.575 34.2177H117.558C117.598 34.7878 117.797 35.2387 118.155 35.5702C118.526 35.9016 119.03 36.0674 119.666 36.0674C120.316 36.0674 120.827 35.9149 121.198 35.6099C121.569 35.2917 121.755 34.8806 121.755 34.3768C121.755 33.9657 121.629 33.6276 121.377 33.3624C121.125 33.0972 120.807 32.8917 120.422 32.7458C120.051 32.5867 119.534 32.4143 118.871 32.2287C117.969 31.9635 117.233 31.705 116.663 31.453C116.106 31.1878 115.622 30.7967 115.211 30.2795C114.813 29.7492 114.614 29.0464 114.614 28.1713C114.614 27.3492 114.82 26.6331 115.231 26.0232C115.642 25.4132 116.219 24.9492 116.961 24.6309C117.704 24.2994 118.552 24.1337 119.507 24.1337C120.939 24.1337 122.099 24.4851 122.988 25.1878C123.89 25.8773 124.387 26.8453 124.48 28.0917H121.417C121.39 27.6143 121.185 27.2232 120.8 26.9182C120.429 26.6 119.932 26.4409 119.308 26.4409C118.765 26.4409 118.327 26.5801 117.996 26.8585C117.677 27.137 117.518 27.5414 117.518 28.0718C117.518 28.4431 117.638 28.7547 117.876 29.0066C118.128 29.2453 118.433 29.4442 118.791 29.6033C119.162 29.7492 119.68 29.9215 120.343 30.1204C121.244 30.3856 121.98 30.6508 122.55 30.916C123.12 31.1812 123.611 31.579 124.022 32.1094C124.433 32.6398 124.639 33.3359 124.639 34.1978C124.639 34.9403 124.446 35.6298 124.062 36.2663C123.677 36.9027 123.114 37.4132 122.371 37.7978C121.629 38.169 120.747 38.3547 119.726 38.3547ZM130.295 29.484V34.8143C130.295 35.1856 130.381 35.4574 130.553 35.6298C130.739 35.7889 131.044 35.8685 131.468 35.8685H132.761V38.2155H131.011C128.664 38.2155 127.49 37.0751 127.49 34.7945V29.484H126.178V27.1967H127.49V24.4718H130.295V27.1967H132.761V29.484H130.295ZM139.657 38.3945C138.596 38.3945 137.641 38.1624 136.793 37.6983C135.944 37.221 135.274 36.5514 134.784 35.6895C134.306 34.8276 134.068 33.8331 134.068 32.7061C134.068 31.579 134.313 30.5845 134.804 29.7226C135.307 28.8608 135.99 28.1978 136.852 27.7337C137.714 27.2563 138.675 27.0177 139.736 27.0177C140.797 27.0177 141.758 27.2563 142.62 27.7337C143.482 28.1978 144.158 28.8608 144.649 29.7226C145.153 30.5845 145.405 31.579 145.405 32.7061C145.405 33.8331 145.146 34.8276 144.629 35.6895C144.125 36.5514 143.436 37.221 142.561 37.6983C141.699 38.1624 140.731 38.3945 139.657 38.3945ZM139.657 35.9679C140.161 35.9679 140.631 35.8486 141.069 35.6099C141.52 35.358 141.878 34.9867 142.143 34.4961C142.408 34.0055 142.541 33.4088 142.541 32.7061C142.541 31.6585 142.262 30.8563 141.705 30.2994C141.162 29.7293 140.492 29.4442 139.696 29.4442C138.901 29.4442 138.231 29.7293 137.688 30.2994C137.157 30.8563 136.892 31.6585 136.892 32.7061C136.892 33.7536 137.151 34.5624 137.668 35.1326C138.198 35.6895 138.861 35.9679 139.657 35.9679ZM150.232 28.9072C150.59 28.3237 151.054 27.8663 151.624 27.5348C152.208 27.2033 152.87 27.0376 153.613 27.0376V29.9613H152.877C152.002 29.9613 151.339 30.1668 150.888 30.5779C150.451 30.9889 150.232 31.705 150.232 32.726V38.2155H147.447V27.1967H150.232V28.9072ZM165.732 32.4674C165.732 32.8652 165.705 33.2232 165.652 33.5414H157.597C157.663 34.337 157.942 34.9602 158.432 35.411C158.923 35.8619 159.526 36.0873 160.242 36.0873C161.276 36.0873 162.012 35.6431 162.45 34.7547H165.453C165.135 35.8155 164.525 36.6906 163.623 37.3801C162.722 38.0563 161.615 38.3945 160.302 38.3945C159.241 38.3945 158.286 38.1624 157.438 37.6983C156.602 37.221 155.946 36.5514 155.469 35.6895C155.005 34.8276 154.773 33.8331 154.773 32.7061C154.773 31.5657 155.005 30.5646 155.469 29.7027C155.933 28.8409 156.582 28.1779 157.418 27.7138C158.253 27.2497 159.215 27.0177 160.302 27.0177C161.349 27.0177 162.284 27.2431 163.106 27.6939C163.942 28.1447 164.585 28.7878 165.036 29.6232C165.5 30.4453 165.732 31.3934 165.732 32.4674ZM162.848 31.6718C162.834 30.9558 162.576 30.3856 162.072 29.9613C161.568 29.5237 160.952 29.305 160.222 29.305C159.533 29.305 158.949 29.5171 158.472 29.9414C158.008 30.3525 157.723 30.9293 157.617 31.6718H162.848Z" fill="white"/>
<path d="M47.1973 38.684C45.5937 40.2276 43.8428 39.9839 42.1574 39.2527C40.3738 38.5053 38.7375 38.4728 36.8558 39.2527C34.4995 40.2601 33.2559 39.9676 31.8486 38.684C23.8634 30.5113 25.0416 18.0654 34.1068 17.6105C36.3158 17.7242 37.8539 18.8129 39.1466 18.9103C41.0775 18.5204 42.9265 17.3993 44.9882 17.5455C47.4591 17.7405 49.3245 18.7154 50.5517 20.4701C45.4464 23.5085 46.6573 30.1864 51.3371 32.0549C50.4044 34.4921 49.1936 36.913 47.1809 38.7003L47.1973 38.684ZM38.983 17.513C38.7375 13.8897 41.6993 10.9001 45.1028 10.6077C45.5773 14.7996 41.2738 17.9192 38.983 17.513Z" fill="white"/>
</svg>
