<svg width="205" height="56" viewBox="0 0 205 56" fill="none" xmlns="http://www.w3.org/2000/svg">
<rect x="0.662983" y="0.662983" width="202.873" height="54.3646" rx="8.20062" stroke="white" stroke-width="1.32597"/>
<path d="M72.3318 11.1592C72.1196 10.7702 71.8279 10.4741 71.4566 10.2708C71.0854 10.0675 70.6522 9.96579 70.1572 9.96579C69.6091 9.96579 69.1229 10.0896 68.6986 10.3371C68.2743 10.5846 67.9428 10.9382 67.7041 11.3978C67.4655 11.8575 67.3461 12.3879 67.3461 12.989C67.3461 13.6078 67.4655 14.147 67.7041 14.6067C67.9517 15.0663 68.292 15.4199 68.7251 15.6675C69.1583 15.915 69.6622 16.0387 70.2367 16.0387C70.9439 16.0387 71.5229 15.8531 71.9738 15.4818C72.4246 15.1017 72.7207 14.5757 72.8622 13.9039H69.6798V12.4851H74.692V14.1028C74.5682 14.7481 74.303 15.3448 73.8964 15.8929C73.4898 16.4409 72.9638 16.8829 72.3185 17.2188C71.682 17.5459 70.966 17.7094 70.1704 17.7094C69.2776 17.7094 68.4688 17.5105 67.7439 17.1128C67.0279 16.7061 66.4622 16.1448 66.0467 15.4288C65.6401 14.7128 65.4367 13.8995 65.4367 12.989C65.4367 12.0785 65.6401 11.2652 66.0467 10.5492C66.4622 9.82436 67.0279 9.26303 67.7439 8.86524C68.4688 8.45861 69.2732 8.2553 70.1572 8.2553C71.2003 8.2553 72.1064 8.51165 72.8754 9.02436C73.6445 9.52823 74.1749 10.2398 74.4666 11.1592H72.3318ZM82.8941 13.7978C82.8941 14.063 82.8765 14.3017 82.8411 14.5139H77.4709C77.5151 15.0442 77.7008 15.4597 78.0278 15.7603C78.3549 16.0608 78.7571 16.2111 79.2345 16.2111C79.924 16.2111 80.4146 15.915 80.7063 15.3227H82.7085C82.4963 16.0299 82.0897 16.6133 81.4886 17.073C80.8875 17.5238 80.1494 17.7492 79.2742 17.7492C78.5671 17.7492 77.9306 17.5945 77.3649 17.2851C76.8079 16.9669 76.3704 16.5205 76.0521 15.9459C75.7428 15.3713 75.5881 14.7083 75.5881 13.957C75.5881 13.1967 75.7428 12.5293 76.0521 11.9547C76.3615 11.3802 76.7947 10.9382 77.3516 10.6288C77.9085 10.3194 78.5494 10.1647 79.2742 10.1647C79.9726 10.1647 80.5958 10.315 81.1439 10.6155C81.7008 10.9161 82.1295 11.3448 82.43 11.9017C82.7394 12.4498 82.8941 13.0818 82.8941 13.7978ZM80.9715 13.2675C80.9626 12.7901 80.7903 12.41 80.4544 12.1271C80.1184 11.8354 79.7074 11.6896 79.2212 11.6896C78.7615 11.6896 78.3726 11.831 78.0544 12.1139C77.745 12.3879 77.5549 12.7724 77.4842 13.2675H80.9715ZM86.4104 11.8089V15.3625C86.4104 15.61 86.4679 15.7912 86.5828 15.9061C86.7066 16.0122 86.9099 16.0652 87.1928 16.0652H88.0546V17.6299H86.8878C85.3231 17.6299 84.5408 16.8697 84.5408 15.3492V11.8089H83.6657V10.284H84.5408V8.46745H86.4104V10.284H88.0546V11.8089H86.4104ZM93.4908 9.40889C93.1637 9.40889 92.8897 9.30723 92.6687 9.10392C92.4565 8.89176 92.3505 8.63099 92.3505 8.3216C92.3505 8.0122 92.4565 7.75585 92.6687 7.55253C92.8897 7.34038 93.1637 7.2343 93.4908 7.2343C93.8179 7.2343 94.0875 7.34038 94.2996 7.55253C94.5206 7.75585 94.6311 8.0122 94.6311 8.3216C94.6311 8.63099 94.5206 8.89176 94.2996 9.10392C94.0875 9.30723 93.8179 9.40889 93.4908 9.40889ZM94.4057 10.284V17.6299H92.5493V10.284H94.4057ZM98.4011 11.8089V15.3625C98.4011 15.61 98.4586 15.7912 98.5735 15.9061C98.6972 16.0122 98.9006 16.0652 99.1834 16.0652H100.045V17.6299H98.8785C97.3138 17.6299 96.5315 16.8697 96.5315 15.3492V11.8089H95.6564V10.284H96.5315V8.46745H98.4011V10.284H100.045V11.8089H98.4011ZM107.802 17.7492C107.095 17.7492 106.458 17.5945 105.893 17.2851C105.327 16.9669 104.88 16.5205 104.553 15.9459C104.235 15.3713 104.076 14.7083 104.076 13.957C104.076 13.2056 104.239 12.5426 104.567 11.968C104.902 11.3934 105.358 10.9514 105.932 10.642C106.507 10.3238 107.148 10.1647 107.855 10.1647C108.562 10.1647 109.203 10.3238 109.778 10.642C110.352 10.9514 110.803 11.3934 111.13 11.968C111.466 12.5426 111.634 13.2056 111.634 13.957C111.634 14.7083 111.462 15.3713 111.117 15.9459C110.781 16.5205 110.321 16.9669 109.738 17.2851C109.163 17.5945 108.518 17.7492 107.802 17.7492ZM107.802 16.1315C108.138 16.1315 108.452 16.052 108.743 15.8929C109.044 15.7249 109.283 15.4774 109.459 15.1503C109.636 14.8233 109.725 14.4255 109.725 13.957C109.725 13.2586 109.539 12.7238 109.168 12.3525C108.805 11.9724 108.359 11.7824 107.828 11.7824C107.298 11.7824 106.852 11.9724 106.489 12.3525C106.136 12.7238 105.959 13.2586 105.959 13.957C105.959 14.6553 106.131 15.1945 106.476 15.5746C106.83 15.9459 107.272 16.1315 107.802 16.1315ZM117.066 10.1779C117.942 10.1779 118.649 10.4564 119.188 11.0133C119.727 11.5614 119.997 12.3304 119.997 13.3205V17.6299H118.14V13.5724C118.14 12.989 117.995 12.5426 117.703 12.2332C117.411 11.915 117.013 11.7558 116.509 11.7558C115.997 11.7558 115.59 11.915 115.29 12.2332C114.998 12.5426 114.852 12.989 114.852 13.5724V17.6299H112.996V10.284H114.852V11.1989C115.1 10.8807 115.413 10.6332 115.793 10.4564C116.182 10.2708 116.607 10.1779 117.066 10.1779Z" fill="white"/>
<path d="M76.0113 31.1614C75.6931 30.5779 75.2555 30.1337 74.6986 29.8288C74.1417 29.5238 73.492 29.3713 72.7495 29.3713C71.9274 29.3713 71.1981 29.5569 70.5616 29.9282C69.9251 30.2995 69.4279 30.8299 69.0699 31.5194C68.7119 32.2089 68.5329 33.0044 68.5329 33.9061C68.5329 34.8343 68.7119 35.6431 69.0699 36.3326C69.4412 37.0221 69.9517 37.5525 70.6014 37.9238C71.2511 38.2951 72.0069 38.4807 72.8688 38.4807C73.9296 38.4807 74.7981 38.2022 75.4743 37.6453C76.1506 37.0752 76.5948 36.2862 76.8069 35.2785H72.0334V33.1503H79.5517V35.5768C79.366 36.5448 78.9682 37.4398 78.3583 38.2619C77.7483 39.084 76.9594 39.747 75.9914 40.2509C75.0367 40.7415 73.9627 40.9868 72.7693 40.9868C71.4301 40.9868 70.2169 40.6884 69.1296 40.0917C68.0555 39.4818 67.2069 38.6398 66.5837 37.5658C65.9738 36.4917 65.6688 35.2719 65.6688 33.9061C65.6688 32.5404 65.9738 31.3205 66.5837 30.2464C67.2069 29.1591 68.0555 28.3172 69.1296 27.7205C70.2169 27.1105 71.4235 26.8056 72.7495 26.8056C74.3141 26.8056 75.6732 27.1901 76.8268 27.9591C77.9804 28.7149 78.776 29.7823 79.2135 31.1614H76.0113ZM86.5046 41.0464C85.4438 41.0464 84.4891 40.8144 83.6405 40.3503C82.7919 39.873 82.1223 39.2033 81.6317 38.3415C81.1543 37.4796 80.9156 36.4851 80.9156 35.358C80.9156 34.231 81.161 33.2365 81.6516 32.3746C82.1554 31.5127 82.8383 30.8498 83.7002 30.3857C84.5621 29.9083 85.5234 29.6696 86.5842 29.6696C87.6449 29.6696 88.6063 29.9083 89.4681 30.3857C90.33 30.8498 91.0063 31.5127 91.4969 32.3746C92.0007 33.2365 92.2527 34.231 92.2527 35.358C92.2527 36.4851 91.9941 37.4796 91.477 38.3415C90.9731 39.2033 90.2836 39.873 89.4085 40.3503C88.5466 40.8144 87.5786 41.0464 86.5046 41.0464ZM86.5046 38.6199C87.0085 38.6199 87.4792 38.5006 87.9168 38.2619C88.3676 38.01 88.7256 37.6387 88.9908 37.1481C89.256 36.6575 89.3886 36.0608 89.3886 35.358C89.3886 34.3105 89.1101 33.5083 88.5532 32.9514C88.0096 32.3812 87.34 32.0962 86.5444 32.0962C85.7488 32.0962 85.0792 32.3812 84.5355 32.9514C84.0051 33.5083 83.74 34.3105 83.74 35.358C83.74 36.4056 83.9985 37.2144 84.5156 37.7846C85.046 38.3415 85.709 38.6199 86.5046 38.6199ZM99.188 41.0464C98.1273 41.0464 97.1726 40.8144 96.324 40.3503C95.4753 39.873 94.8057 39.2033 94.3151 38.3415C93.8378 37.4796 93.5991 36.4851 93.5991 35.358C93.5991 34.231 93.8444 33.2365 94.335 32.3746C94.8389 31.5127 95.5217 30.8498 96.3836 30.3857C97.2455 29.9083 98.2068 29.6696 99.2676 29.6696C100.328 29.6696 101.29 29.9083 102.152 30.3857C103.013 30.8498 103.69 31.5127 104.18 32.3746C104.684 33.2365 104.936 34.231 104.936 35.358C104.936 36.4851 104.678 37.4796 104.16 38.3415C103.657 39.2033 102.967 39.873 102.092 40.3503C101.23 40.8144 100.262 41.0464 99.188 41.0464ZM99.188 38.6199C99.6919 38.6199 100.163 38.5006 100.6 38.2619C101.051 38.01 101.409 37.6387 101.674 37.1481C101.939 36.6575 102.072 36.0608 102.072 35.358C102.072 34.3105 101.794 33.5083 101.237 32.9514C100.693 32.3812 100.023 32.0962 99.2278 32.0962C98.4322 32.0962 97.7626 32.3812 97.219 32.9514C96.6886 33.5083 96.4234 34.3105 96.4234 35.358C96.4234 36.4056 96.682 37.2144 97.1991 37.7846C97.7295 38.3415 98.3925 38.6199 99.188 38.6199ZM111.295 29.6696C112.117 29.6696 112.839 29.8354 113.463 30.1669C114.086 30.4851 114.576 30.9028 114.934 31.4199V29.8486H117.739V40.947C117.739 41.968 117.533 42.8763 117.122 43.6719C116.711 44.4807 116.095 45.1172 115.273 45.5812C114.45 46.0586 113.456 46.2973 112.289 46.2973C110.725 46.2973 109.438 45.9326 108.431 45.2033C107.436 44.4741 106.873 43.4796 106.74 42.2199H109.505C109.65 42.7238 109.962 43.1216 110.439 43.4133C110.93 43.7183 111.52 43.8707 112.21 43.8707C113.018 43.8707 113.675 43.6254 114.179 43.1348C114.683 42.6575 114.934 41.9282 114.934 40.947V39.2365C114.576 39.7536 114.079 40.1846 113.443 40.5293C112.82 40.8741 112.104 41.0464 111.295 41.0464C110.367 41.0464 109.518 40.8078 108.749 40.3304C107.98 39.8531 107.37 39.1835 106.919 38.3216C106.481 37.4464 106.263 36.4453 106.263 35.3183C106.263 34.2044 106.481 33.2166 106.919 32.3547C107.37 31.4928 107.973 30.8299 108.729 30.3658C109.498 29.9017 110.353 29.6696 111.295 29.6696ZM114.934 35.358C114.934 34.6818 114.802 34.105 114.537 33.6277C114.271 33.137 113.913 32.7658 113.463 32.5138C113.012 32.2486 112.528 32.116 112.011 32.116C111.494 32.116 111.016 32.242 110.579 32.494C110.141 32.7459 109.783 33.1172 109.505 33.6078C109.239 34.0851 109.107 34.6553 109.107 35.3183C109.107 35.9812 109.239 36.5647 109.505 37.0685C109.783 37.5591 110.141 37.937 110.579 38.2022C111.029 38.4674 111.507 38.6 112.011 38.6C112.528 38.6 113.012 38.4741 113.463 38.2221C113.913 37.9569 114.271 37.5857 114.537 37.1083C114.802 36.6177 114.934 36.0343 114.934 35.358ZM123.243 26.1492V40.8674H120.458V26.1492H123.243ZM136.237 35.1194C136.237 35.5172 136.211 35.8752 136.158 36.1934H128.102C128.169 36.989 128.447 37.6122 128.938 38.063C129.428 38.5138 130.032 38.7393 130.748 38.7393C131.782 38.7393 132.518 38.2951 132.955 37.4067H135.959C135.641 38.4674 135.031 39.3426 134.129 40.0321C133.227 40.7083 132.12 41.0464 130.807 41.0464C129.747 41.0464 128.792 40.8144 127.943 40.3503C127.108 39.873 126.452 39.2033 125.974 38.3415C125.51 37.4796 125.278 36.4851 125.278 35.358C125.278 34.2177 125.51 33.2166 125.974 32.3547C126.438 31.4928 127.088 30.8299 127.923 30.3658C128.759 29.9017 129.72 29.6696 130.807 29.6696C131.855 29.6696 132.79 29.8951 133.612 30.3459C134.447 30.7967 135.09 31.4398 135.541 32.2752C136.005 33.0973 136.237 34.0453 136.237 35.1194ZM133.353 34.3238C133.34 33.6078 133.081 33.0376 132.578 32.6133C132.074 32.1757 131.457 31.9569 130.728 31.9569C130.038 31.9569 129.455 32.1691 128.978 32.5934C128.513 33.0044 128.228 33.5812 128.122 34.3238H133.353ZM153.133 31.2807C153.133 32.0232 152.954 32.7194 152.596 33.3691C152.251 34.0188 151.701 34.5426 150.945 34.9404C150.202 35.3381 149.261 35.537 148.121 35.537H145.793V40.8674H143.009V26.9846H148.121C149.195 26.9846 150.11 27.1702 150.865 27.5415C151.621 27.9127 152.185 28.4232 152.556 29.073C152.94 29.7227 153.133 30.4586 153.133 31.2807ZM148.001 33.2895C148.77 33.2895 149.34 33.1172 149.712 32.7724C150.083 32.4144 150.269 31.9172 150.269 31.2807C150.269 29.9282 149.513 29.252 148.001 29.252H145.793V33.2895H148.001ZM157.894 26.1492V40.8674H155.11V26.1492H157.894ZM159.929 35.3183C159.929 34.2044 160.148 33.2166 160.586 32.3547C161.037 31.4928 161.64 30.8299 162.396 30.3658C163.165 29.9017 164.02 29.6696 164.961 29.6696C165.783 29.6696 166.5 29.8354 167.109 30.1669C167.733 30.4984 168.23 30.916 168.601 31.4199V29.8486H171.406V40.8674H168.601V39.2564C168.243 39.7735 167.746 40.2044 167.109 40.5492C166.486 40.8807 165.764 41.0464 164.941 41.0464C164.013 41.0464 163.165 40.8078 162.396 40.3304C161.64 39.8531 161.037 39.1835 160.586 38.3216C160.148 37.4464 159.929 36.4453 159.929 35.3183ZM168.601 35.358C168.601 34.6818 168.469 34.105 168.203 33.6277C167.938 33.137 167.58 32.7658 167.129 32.5138C166.679 32.2486 166.195 32.116 165.677 32.116C165.16 32.116 164.683 32.242 164.245 32.494C163.808 32.7459 163.45 33.1172 163.171 33.6078C162.906 34.0851 162.774 34.6553 162.774 35.3183C162.774 35.9812 162.906 36.5647 163.171 37.0685C163.45 37.5591 163.808 37.937 164.245 38.2022C164.696 38.4674 165.174 38.6 165.677 38.6C166.195 38.6 166.679 38.4741 167.129 38.2221C167.58 37.9569 167.938 37.5857 168.203 37.1083C168.469 36.6177 168.601 36.0343 168.601 35.358ZM184.667 29.8486L177.844 46.0785H174.881L177.268 40.589L172.852 29.8486H175.975L178.819 37.5459L181.703 29.8486H184.667Z" fill="white"/>
<path d="M20.3778 13.3881C20.526 13.3033 20.6938 13.2591 20.8645 13.2598C21.0352 13.2605 21.2028 13.3061 21.3502 13.392L36.6038 22.2891L31.8836 26.5364L19.8896 15.7432V14.2321C19.8895 14.0609 19.9346 13.8927 20.0203 13.7445C20.106 13.5963 20.2293 13.4734 20.3778 13.3881ZM19.8896 18.3608V37.3297L30.4308 27.8452L19.8896 18.3608ZM19.8896 39.9473V41.4584C19.8896 41.6295 19.9347 41.7976 20.0204 41.9456C20.1061 42.0937 20.2293 42.2166 20.3777 42.3018C20.5261 42.387 20.6943 42.4316 20.8654 42.431C21.0365 42.4305 21.2044 42.3847 21.3522 42.2985L36.6038 33.4014L31.8836 29.1541L19.8896 39.9473ZM38.3678 32.3726L44.6886 28.6854C44.8355 28.5998 44.9574 28.4771 45.0421 28.3297C45.1268 28.1823 45.1714 28.0153 45.1714 27.8452C45.1714 27.6752 45.1268 27.5082 45.0421 27.3608C44.9574 27.2134 44.8355 27.0907 44.6886 27.0051L38.3678 23.3179L33.3364 27.8452L38.3678 32.3726Z" fill="white"/>
</svg>
