<svg width="34" height="34" viewBox="0 0 34 34" fill="none" xmlns="http://www.w3.org/2000/svg">
<path d="M28.3334 26.5625V3.18751C28.3329 2.71801 28.1461 2.2679 27.8142 1.93592C27.4822 1.60394 27.0321 1.4172 26.5626 1.41667H3.18758C2.71809 1.4172 2.26798 1.60394 1.936 1.93592C1.60401 2.2679 1.41728 2.71801 1.41675 3.18751V26.5625C1.41728 27.032 1.60401 27.4821 1.936 27.8141C2.26798 28.1461 2.71809 28.3328 3.18758 28.3333H26.5626C27.0321 28.3328 27.4822 28.1461 27.8142 27.8141C28.1461 27.4821 28.3329 27.032 28.3334 26.5625ZM7.08341 7.79167C7.0833 7.64481 7.12884 7.50154 7.21372 7.3817C7.29861 7.26185 7.41865 7.17136 7.55723 7.12273C7.69581 7.07411 7.84607 7.06976 7.98723 7.11029C8.12839 7.15082 8.25346 7.23423 8.34513 7.34896L12.7501 12.8558V7.79167C12.7501 7.60381 12.8247 7.42364 12.9575 7.2908C13.0904 7.15797 13.2706 7.08334 13.4584 7.08334C13.6463 7.08334 13.8264 7.15797 13.9593 7.2908C14.0921 7.42364 14.1667 7.60381 14.1667 7.79167V14.875C14.1669 15.0219 14.1213 15.1651 14.0364 15.285C13.9516 15.4048 13.8315 15.4953 13.6929 15.5439C13.5544 15.5926 13.4041 15.5969 13.2629 15.5564C13.1218 15.5159 12.9967 15.4325 12.905 15.3177L8.50008 9.81086V14.875C8.50008 15.0629 8.42545 15.243 8.29262 15.3759C8.15978 15.5087 7.97961 15.5833 7.79175 15.5833C7.60389 15.5833 7.42372 15.5087 7.29088 15.3759C7.15804 15.243 7.08341 15.0629 7.08341 14.875V7.79167ZM21.9584 21.25H7.79175C7.60389 21.25 7.42372 21.1754 7.29088 21.0425C7.15804 20.9097 7.08341 20.7295 7.08341 20.5417C7.08341 20.3538 7.15804 20.1736 7.29088 20.0408C7.42372 19.908 7.60389 19.8333 7.79175 19.8333H21.9584C22.1463 19.8333 22.3264 19.908 22.4593 20.0408C22.5921 20.1736 22.6667 20.3538 22.6667 20.5417C22.6667 20.7295 22.5921 20.9097 22.4593 21.0425C22.3264 21.1754 22.1463 21.25 21.9584 21.25ZM21.9584 14.1667H17.7084C17.5206 14.1667 17.3404 14.092 17.2075 13.9592C17.0747 13.8264 17.0001 13.6462 17.0001 13.4583C17.0001 13.2705 17.0747 13.0903 17.2075 12.9575C17.3404 12.8246 17.5206 12.75 17.7084 12.75H21.9584C22.1463 12.75 22.3264 12.8246 22.4593 12.9575C22.5921 13.0903 22.6667 13.2705 22.6667 13.4583C22.6667 13.6462 22.5921 13.8264 22.4593 13.9592C22.3264 14.092 22.1463 14.1667 21.9584 14.1667ZM21.9584 8.5H17.7084C17.5206 8.5 17.3404 8.42538 17.2075 8.29254C17.0747 8.1597 17.0001 7.97953 17.0001 7.79167C17.0001 7.60381 17.0747 7.42364 17.2075 7.2908C17.3404 7.15797 17.5206 7.08334 17.7084 7.08334H21.9584C22.1463 7.08334 22.3264 7.15797 22.4593 7.2908C22.5921 7.42364 22.6667 7.60381 22.6667 7.79167C22.6667 7.97953 22.5921 8.1597 22.4593 8.29254C22.3264 8.42538 22.1463 8.5 21.9584 8.5ZM32.5834 9.20834V30.8125C32.5829 31.282 32.3961 31.7321 32.0642 32.0641C31.7322 32.3961 31.2821 32.5828 30.8126 32.5833H9.20842C9.02055 32.5833 8.84039 32.5087 8.70755 32.3759C8.57471 32.243 8.50008 32.0629 8.50008 31.875C8.50008 31.6871 8.57471 31.507 8.70755 31.3741C8.84039 31.2413 9.02055 31.1667 9.20842 31.1667H30.8126C30.9065 31.1667 30.9966 31.1294 31.063 31.0629C31.1294 30.9965 31.1667 30.9064 31.1667 30.8125V9.20834C31.1667 9.02048 31.2414 8.84031 31.3742 8.70747C31.5071 8.57463 31.6872 8.5 31.8751 8.5C32.0629 8.5 32.2431 8.57463 32.3759 8.70747C32.5088 8.84031 32.5834 9.02048 32.5834 9.20834Z" fill="white"/>
</svg>
